<?xml version="1.0" encoding="UTF-8"?>
<svg xmlns="http://www.w3.org/2000/svg" xmlns:xlink="http://www.w3.org/1999/xlink" width="106px" height="150px" viewBox="0 0 106 149" version="1.1">
<g id="surface1">
<path style=" stroke:none;fill-rule:nonzero;fill:rgb(18.823529%,19.607843%,27.45098%);fill-opacity:1;" d="M 5.867188 146.371094 L 3.4375 146.371094 L 2.976562 147.496094 L 1.734375 147.496094 L 4.066406 142.273438 L 5.257812 142.273438 L 7.589844 147.496094 L 6.316406 147.496094 Z M 5.488281 145.464844 L 4.660156 143.464844 L 3.835938 145.464844 Z M 10.351562 143.414062 C 10.714844 143.414062 11.0625 143.496094 11.375 143.679688 C 11.671875 143.84375 11.921875 144.089844 12.101562 144.40625 C 12.285156 144.734375 12.367188 145.117188 12.367188 145.496094 C 12.382812 145.875 12.285156 146.257812 12.101562 146.585938 C 11.9375 146.882812 11.6875 147.148438 11.375 147.3125 C 11.0625 147.480469 10.714844 147.578125 10.351562 147.578125 C 9.886719 147.59375 9.457031 147.429688 9.144531 147.097656 L 9.144531 148.96875 L 7.984375 148.96875 L 7.984375 143.511719 L 9.09375 143.511719 L 9.09375 143.976562 C 9.40625 143.578125 9.871094 143.378906 10.351562 143.414062 Z M 10.152344 146.601562 C 10.433594 146.621094 10.695312 146.503906 10.878906 146.304688 C 11.078125 146.089844 11.175781 145.792969 11.160156 145.496094 C 11.175781 145.199219 11.078125 144.902344 10.878906 144.6875 C 10.679688 144.488281 10.414062 144.371094 10.152344 144.390625 C 9.871094 144.371094 9.605469 144.488281 9.421875 144.6875 C 9.226562 144.902344 9.125 145.199219 9.144531 145.496094 C 9.125 145.792969 9.226562 146.089844 9.421875 146.304688 C 9.605469 146.503906 9.871094 146.601562 10.152344 146.601562 Z M 15.410156 143.414062 C 15.773438 143.414062 16.121094 143.496094 16.433594 143.679688 C 16.730469 143.84375 16.980469 144.089844 17.164062 144.40625 C 17.34375 144.734375 17.425781 145.117188 17.425781 145.496094 C 17.441406 145.875 17.34375 146.257812 17.164062 146.585938 C 16.996094 146.882812 16.75 147.148438 16.433594 147.3125 C 16.121094 147.480469 15.773438 147.578125 15.410156 147.578125 C 14.945312 147.59375 14.515625 147.429688 14.203125 147.097656 L 14.203125 148.96875 L 13.046875 148.96875 L 13.046875 143.511719 L 14.152344 143.511719 L 14.152344 143.976562 C 14.46875 143.578125 14.929688 143.378906 15.410156 143.414062 Z M 15.210938 146.601562 C 15.492188 146.621094 15.757812 146.503906 15.9375 146.304688 C 16.136719 146.089844 16.234375 145.792969 16.21875 145.496094 C 16.234375 145.199219 16.136719 144.902344 15.9375 144.6875 C 15.738281 144.488281 15.476562 144.371094 15.210938 144.390625 C 14.929688 144.371094 14.664062 144.488281 14.484375 144.6875 C 14.285156 144.902344 14.1875 145.199219 14.203125 145.496094 C 14.1875 145.792969 14.285156 146.089844 14.484375 146.304688 C 14.664062 146.503906 14.929688 146.601562 15.210938 146.601562 Z M 18.105469 141.960938 L 19.261719 141.960938 L 19.261719 147.496094 L 18.105469 147.496094 Z M 20.253906 143.480469 L 21.410156 143.480469 L 21.410156 147.496094 L 20.253906 147.496094 Z M 20.832031 142.917969 C 20.632812 142.917969 20.453125 142.851562 20.304688 142.734375 C 20.171875 142.621094 20.105469 142.453125 20.105469 142.273438 C 20.105469 142.089844 20.171875 141.925781 20.304688 141.808594 C 20.453125 141.679688 20.632812 141.613281 20.832031 141.628906 C 21.03125 141.628906 21.214844 141.679688 21.363281 141.808594 C 21.496094 141.925781 21.558594 142.089844 21.558594 142.257812 C 21.558594 142.4375 21.496094 142.621094 21.363281 142.734375 C 21.214844 142.851562 21.03125 142.933594 20.832031 142.917969 Z M 24.355469 147.546875 C 23.957031 147.546875 23.5625 147.464844 23.199219 147.28125 C 22.867188 147.117188 22.585938 146.867188 22.402344 146.554688 C 22.207031 146.238281 22.105469 145.859375 22.121094 145.480469 C 22.121094 145.097656 22.222656 144.734375 22.402344 144.40625 C 22.601562 144.089844 22.867188 143.84375 23.199219 143.679688 C 23.5625 143.496094 23.957031 143.414062 24.355469 143.414062 C 24.734375 143.398438 25.117188 143.496094 25.460938 143.679688 C 25.777344 143.84375 26.007812 144.109375 26.15625 144.4375 L 25.246094 144.917969 C 25.082031 144.570312 24.734375 144.355469 24.339844 144.371094 C 24.058594 144.355469 23.777344 144.472656 23.578125 144.667969 C 23.363281 144.882812 23.261719 145.183594 23.28125 145.480469 C 23.261719 145.777344 23.378906 146.074219 23.578125 146.289062 C 23.777344 146.488281 24.058594 146.601562 24.339844 146.585938 C 24.71875 146.601562 25.082031 146.371094 25.246094 146.042969 L 26.15625 146.539062 C 26.007812 146.851562 25.777344 147.117188 25.460938 147.28125 C 25.117188 147.464844 24.734375 147.5625 24.355469 147.546875 Z M 28.355469 143.414062 C 28.867188 143.378906 29.382812 143.527344 29.792969 143.859375 C 30.160156 144.207031 30.339844 144.703125 30.289062 145.199219 L 30.289062 147.496094 L 29.199219 147.496094 L 29.199219 147 C 28.984375 147.378906 28.570312 147.5625 27.976562 147.5625 C 27.695312 147.5625 27.429688 147.511719 27.164062 147.414062 C 26.949219 147.3125 26.769531 147.164062 26.652344 146.984375 C 26.539062 146.800781 26.472656 146.585938 26.472656 146.355469 C 26.453125 146.007812 26.621094 145.679688 26.902344 145.480469 C 27.296875 145.230469 27.746094 145.132812 28.207031 145.164062 L 29.132812 145.164062 C 29.148438 144.949219 29.066406 144.734375 28.902344 144.585938 C 28.703125 144.4375 28.457031 144.355469 28.207031 144.390625 C 27.992188 144.390625 27.777344 144.421875 27.578125 144.488281 C 27.378906 144.554688 27.214844 144.636719 27.050781 144.753906 L 26.636719 143.941406 C 26.882812 143.777344 27.148438 143.660156 27.429688 143.578125 C 27.710938 143.464844 28.042969 143.414062 28.355469 143.414062 Z M 28.257812 146.769531 C 28.4375 146.769531 28.621094 146.71875 28.785156 146.636719 C 28.933594 146.539062 29.050781 146.40625 29.117188 146.222656 L 29.117188 145.808594 L 28.324219 145.808594 C 27.84375 145.808594 27.613281 145.957031 27.613281 146.273438 C 27.613281 146.40625 27.679688 146.554688 27.792969 146.621094 C 27.925781 146.734375 28.089844 146.785156 28.257812 146.769531 Z M 33.695312 143.414062 C 34.144531 143.398438 34.574219 143.5625 34.902344 143.859375 C 35.234375 144.222656 35.398438 144.703125 35.367188 145.183594 L 35.367188 147.480469 L 34.210938 147.480469 L 34.210938 145.363281 C 34.226562 145.117188 34.160156 144.851562 33.996094 144.652344 C 33.847656 144.488281 33.613281 144.40625 33.382812 144.421875 C 33.117188 144.40625 32.871094 144.503906 32.6875 144.6875 C 32.507812 144.917969 32.40625 145.199219 32.425781 145.496094 L 32.425781 147.480469 L 31.265625 147.480469 L 31.265625 143.464844 L 32.375 143.464844 L 32.375 143.925781 C 32.539062 143.761719 32.722656 143.613281 32.953125 143.527344 C 33.167969 143.464844 33.433594 143.414062 33.695312 143.414062 Z M 38.90625 147.296875 C 38.773438 147.378906 38.640625 147.445312 38.476562 147.496094 C 38.308594 147.546875 38.128906 147.5625 37.945312 147.5625 C 37.550781 147.59375 37.152344 147.464844 36.839844 147.199219 C 36.558594 146.917969 36.425781 146.519531 36.441406 146.125 L 36.441406 144.472656 L 35.832031 144.472656 L 35.832031 143.578125 L 36.441406 143.578125 L 36.441406 142.605469 L 37.597656 142.605469 L 37.597656 143.578125 L 38.589844 143.578125 L 38.589844 144.472656 L 37.597656 144.472656 L 37.597656 146.109375 C 37.582031 146.257812 37.632812 146.386719 37.730469 146.503906 C 37.832031 146.601562 37.964844 146.652344 38.09375 146.636719 C 38.261719 146.636719 38.425781 146.585938 38.558594 146.488281 Z M 42.660156 143.265625 L 40.988281 143.265625 L 40.988281 142.273438 L 45.535156 142.273438 L 45.535156 143.265625 L 43.867188 143.265625 L 43.867188 147.496094 L 42.660156 147.496094 Z M 47.039062 144.007812 C 47.191406 143.808594 47.371094 143.660156 47.601562 143.5625 C 47.867188 143.464844 48.148438 143.414062 48.414062 143.414062 L 48.414062 144.488281 C 48.28125 144.472656 48.199219 144.472656 48.148438 144.472656 C 47.867188 144.453125 47.570312 144.554688 47.371094 144.753906 C 47.171875 144.984375 47.058594 145.28125 47.089844 145.59375 L 47.089844 147.496094 L 45.933594 147.496094 L 45.933594 143.480469 L 47.039062 143.480469 Z M 50.628906 143.414062 C 51.140625 143.378906 51.652344 143.527344 52.066406 143.859375 C 52.429688 144.207031 52.613281 144.703125 52.5625 145.199219 L 52.5625 147.496094 L 51.472656 147.496094 L 51.472656 147 C 51.257812 147.378906 50.84375 147.5625 50.25 147.5625 C 49.96875 147.5625 49.703125 147.511719 49.4375 147.414062 C 49.222656 147.3125 49.042969 147.164062 48.925781 146.984375 C 48.808594 146.800781 48.742188 146.585938 48.742188 146.355469 C 48.726562 146.007812 48.894531 145.679688 49.171875 145.480469 C 49.570312 145.230469 50.015625 145.117188 50.480469 145.164062 L 51.40625 145.164062 C 51.421875 144.949219 51.339844 144.734375 51.175781 144.585938 C 50.976562 144.4375 50.726562 144.355469 50.480469 144.390625 C 50.265625 144.390625 50.050781 144.421875 49.851562 144.488281 C 49.652344 144.554688 49.488281 144.636719 49.324219 144.753906 L 48.910156 143.941406 C 49.15625 143.777344 49.421875 143.660156 49.703125 143.578125 C 49.984375 143.464844 50.296875 143.414062 50.628906 143.414062 Z M 50.53125 146.769531 C 50.710938 146.769531 50.894531 146.71875 51.058594 146.636719 C 51.207031 146.539062 51.324219 146.40625 51.390625 146.222656 L 51.390625 145.808594 L 50.597656 145.808594 C 50.117188 145.808594 49.886719 145.957031 49.886719 146.273438 C 49.886719 146.40625 49.949219 146.554688 50.066406 146.621094 C 50.199219 146.734375 50.363281 146.785156 50.53125 146.769531 Z M 55.507812 147.546875 C 55.109375 147.546875 54.714844 147.464844 54.347656 147.28125 C 54.019531 147.117188 53.738281 146.867188 53.554688 146.554688 C 53.355469 146.238281 53.257812 145.859375 53.273438 145.480469 C 53.273438 145.097656 53.375 144.734375 53.554688 144.40625 C 53.753906 144.089844 54.019531 143.84375 54.347656 143.679688 C 54.714844 143.496094 55.109375 143.414062 55.507812 143.414062 C 55.886719 143.398438 56.265625 143.496094 56.613281 143.679688 C 56.929688 143.84375 57.160156 144.109375 57.308594 144.4375 L 56.398438 144.917969 C 56.234375 144.570312 55.886719 144.355469 55.488281 144.371094 C 55.210938 144.355469 54.929688 144.472656 54.730469 144.667969 C 54.515625 144.882812 54.414062 145.183594 54.433594 145.480469 C 54.414062 145.777344 54.53125 146.074219 54.730469 146.289062 C 54.929688 146.488281 55.210938 146.601562 55.488281 146.585938 C 55.871094 146.601562 56.234375 146.371094 56.398438 146.042969 L 57.308594 146.539062 C 57.160156 146.851562 56.929688 147.117188 56.613281 147.28125 C 56.265625 147.464844 55.886719 147.5625 55.507812 147.546875 Z M 59.574219 145.925781 L 59.011719 146.472656 L 59.011719 147.496094 L 57.855469 147.496094 L 57.855469 141.960938 L 59.011719 141.960938 L 59.011719 145.097656 L 60.714844 143.496094 L 62.105469 143.496094 L 60.433594 145.199219 L 62.253906 147.511719 L 60.847656 147.511719 Z M 62.667969 143.480469 L 63.824219 143.480469 L 63.824219 147.496094 L 62.667969 147.496094 Z M 63.246094 142.917969 C 63.046875 142.917969 62.863281 142.851562 62.714844 142.734375 C 62.582031 142.621094 62.515625 142.453125 62.515625 142.273438 C 62.515625 142.089844 62.582031 141.925781 62.714844 141.808594 C 62.863281 141.679688 63.046875 141.613281 63.246094 141.628906 C 63.445312 141.628906 63.625 141.679688 63.773438 141.808594 C 63.90625 141.925781 63.972656 142.089844 63.972656 142.257812 C 63.972656 142.4375 63.90625 142.621094 63.773438 142.734375 C 63.625 142.867188 63.445312 142.933594 63.246094 142.917969 Z M 67.261719 143.414062 C 67.710938 143.398438 68.140625 143.5625 68.46875 143.859375 C 68.800781 144.222656 68.964844 144.703125 68.933594 145.183594 L 68.933594 147.480469 L 67.777344 147.480469 L 67.777344 145.363281 C 67.792969 145.117188 67.726562 144.851562 67.5625 144.652344 C 67.410156 144.488281 67.179688 144.40625 66.949219 144.421875 C 66.683594 144.40625 66.4375 144.503906 66.253906 144.6875 C 66.074219 144.917969 65.972656 145.199219 65.988281 145.496094 L 65.988281 147.480469 L 64.832031 147.480469 L 64.832031 143.464844 L 65.941406 143.464844 L 65.941406 143.925781 C 66.105469 143.761719 66.289062 143.613281 66.519531 143.527344 C 66.75 143.464844 67 143.414062 67.261719 143.414062 Z M 74.074219 143.480469 L 74.074219 146.816406 C 74.074219 147.5625 73.878906 148.109375 73.496094 148.453125 C 73.035156 148.835938 72.421875 149.03125 71.808594 148.984375 C 71.429688 148.984375 71.066406 148.933594 70.703125 148.835938 C 70.386719 148.753906 70.089844 148.621094 69.84375 148.421875 L 70.304688 147.578125 C 70.503906 147.726562 70.71875 147.84375 70.949219 147.910156 C 71.199219 147.992188 71.464844 148.023438 71.726562 148.023438 C 72.042969 148.058594 72.371094 147.957031 72.621094 147.761719 C 72.835938 147.546875 72.933594 147.230469 72.902344 146.933594 L 72.902344 146.769531 C 72.570312 147.117188 72.109375 147.296875 71.628906 147.265625 C 71.28125 147.265625 70.933594 147.183594 70.621094 147.015625 C 70.320312 146.867188 70.074219 146.621094 69.890625 146.339844 C 69.710938 146.023438 69.609375 145.679688 69.628906 145.332031 C 69.628906 144.96875 69.710938 144.621094 69.890625 144.324219 C 70.074219 144.023438 70.320312 143.792969 70.621094 143.644531 C 70.933594 143.480469 71.28125 143.398438 71.628906 143.398438 C 72.140625 143.363281 72.636719 143.578125 72.949219 143.976562 L 72.949219 143.464844 Z M 71.875 146.339844 C 72.15625 146.355469 72.421875 146.257812 72.636719 146.074219 C 72.835938 145.894531 72.933594 145.628906 72.933594 145.363281 C 72.949219 145.097656 72.835938 144.835938 72.636719 144.652344 C 72.421875 144.472656 72.15625 144.371094 71.875 144.390625 C 71.59375 144.371094 71.332031 144.472656 71.117188 144.652344 C 70.917969 144.835938 70.800781 145.097656 70.816406 145.363281 C 70.800781 145.628906 70.917969 145.894531 71.117188 146.074219 C 71.3125 146.257812 71.59375 146.355469 71.875 146.339844 Z M 78.886719 147.578125 C 78.472656 147.578125 78.078125 147.527344 77.695312 147.414062 C 77.367188 147.332031 77.050781 147.183594 76.769531 146.984375 L 77.183594 146.074219 C 77.433594 146.257812 77.695312 146.386719 77.976562 146.472656 C 78.273438 146.570312 78.589844 146.621094 78.902344 146.621094 C 79.167969 146.636719 79.433594 146.585938 79.664062 146.472656 C 79.8125 146.386719 79.914062 146.238281 79.914062 146.058594 C 79.914062 145.941406 79.863281 145.828125 79.761719 145.742188 C 79.648438 145.660156 79.53125 145.59375 79.382812 145.546875 C 79.234375 145.496094 79.019531 145.445312 78.769531 145.378906 C 78.441406 145.296875 78.109375 145.214844 77.796875 145.097656 C 77.546875 145 77.316406 144.851562 77.132812 144.636719 C 76.9375 144.40625 76.851562 144.109375 76.871094 143.792969 C 76.871094 143.496094 76.953125 143.214844 77.117188 142.96875 C 77.300781 142.703125 77.5625 142.503906 77.863281 142.390625 C 78.242188 142.238281 78.65625 142.15625 79.070312 142.175781 C 79.398438 142.175781 79.730469 142.207031 80.042969 142.289062 C 80.34375 142.355469 80.625 142.472656 80.886719 142.636719 L 80.507812 143.5625 C 80.0625 143.296875 79.566406 143.164062 79.050781 143.148438 C 78.789062 143.132812 78.523438 143.183594 78.308594 143.3125 C 78.160156 143.414062 78.058594 143.5625 78.058594 143.742188 C 78.058594 143.925781 78.175781 144.074219 78.339844 144.140625 C 78.621094 144.257812 78.902344 144.339844 79.203125 144.40625 C 79.53125 144.472656 79.863281 144.570312 80.175781 144.6875 C 80.425781 144.785156 80.65625 144.933594 80.820312 145.132812 C 81.019531 145.363281 81.101562 145.660156 81.085938 145.957031 C 81.085938 146.257812 81.003906 146.539062 80.839844 146.769531 C 80.65625 147.03125 80.390625 147.230469 80.09375 147.347656 C 79.714844 147.527344 79.300781 147.59375 78.886719 147.578125 Z M 85.667969 143.480469 L 83.847656 147.742188 C 83.714844 148.125 83.484375 148.472656 83.167969 148.71875 C 82.871094 148.917969 82.542969 149.015625 82.195312 149 C 81.980469 149 81.78125 148.96875 81.582031 148.902344 C 81.402344 148.851562 81.234375 148.753906 81.085938 148.636719 L 81.515625 147.808594 C 81.617188 147.894531 81.714844 147.957031 81.832031 147.992188 C 81.945312 148.042969 82.0625 148.058594 82.175781 148.058594 C 82.308594 148.058594 82.457031 148.023438 82.558594 147.941406 C 82.671875 147.84375 82.773438 147.710938 82.824219 147.5625 L 82.839844 147.527344 L 81.101562 143.480469 L 82.308594 143.480469 L 83.433594 146.207031 L 84.574219 143.480469 Z M 87.351562 147.5625 C 87.023438 147.5625 86.691406 147.527344 86.378906 147.445312 C 86.113281 147.378906 85.847656 147.28125 85.617188 147.132812 L 85.996094 146.289062 C 86.195312 146.421875 86.410156 146.503906 86.640625 146.570312 C 86.890625 146.636719 87.136719 146.667969 87.386719 146.6875 C 87.882812 146.6875 88.128906 146.570312 88.128906 146.324219 C 88.128906 146.207031 88.046875 146.109375 87.933594 146.074219 C 87.734375 146.007812 87.519531 145.976562 87.320312 145.941406 C 87.039062 145.910156 86.773438 145.84375 86.507812 145.777344 C 86.292969 145.710938 86.113281 145.59375 85.949219 145.429688 C 85.78125 145.230469 85.699219 144.984375 85.714844 144.734375 C 85.714844 144.488281 85.78125 144.257812 85.929688 144.058594 C 86.097656 143.84375 86.328125 143.695312 86.574219 143.59375 C 86.890625 143.480469 87.238281 143.429688 87.566406 143.429688 C 87.847656 143.429688 88.128906 143.464844 88.410156 143.527344 C 88.660156 143.578125 88.890625 143.660156 89.105469 143.792969 L 88.726562 144.621094 C 88.378906 144.421875 87.980469 144.324219 87.566406 144.324219 C 87.371094 144.304688 87.1875 144.339844 87.003906 144.421875 C 86.890625 144.472656 86.824219 144.570312 86.824219 144.6875 C 86.824219 144.800781 86.90625 144.917969 87.023438 144.949219 C 87.238281 145.015625 87.453125 145.066406 87.667969 145.097656 C 87.933594 145.148438 88.210938 145.199219 88.476562 145.28125 C 88.691406 145.347656 88.875 145.464844 89.023438 145.628906 C 89.1875 145.808594 89.269531 146.058594 89.253906 146.324219 C 89.253906 146.570312 89.171875 146.800781 89.023438 146.984375 C 88.859375 147.199219 88.625 147.347656 88.378906 147.429688 C 88.046875 147.511719 87.699219 147.5625 87.351562 147.5625 Z M 92.460938 147.296875 C 92.328125 147.378906 92.199219 147.445312 92.03125 147.496094 C 91.867188 147.546875 91.683594 147.5625 91.503906 147.5625 C 91.105469 147.59375 90.710938 147.464844 90.394531 147.199219 C 90.113281 146.917969 89.980469 146.519531 90 146.125 L 90 144.472656 L 89.371094 144.472656 L 89.371094 143.578125 L 89.980469 143.578125 L 89.980469 142.605469 L 91.140625 142.605469 L 91.140625 143.578125 L 92.132812 143.578125 L 92.132812 144.472656 L 91.140625 144.472656 L 91.140625 146.109375 C 91.121094 146.257812 91.171875 146.386719 91.273438 146.503906 C 91.371094 146.601562 91.503906 146.652344 91.636719 146.636719 C 91.800781 146.636719 91.964844 146.585938 92.097656 146.488281 Z M 96.84375 145.496094 C 96.84375 145.511719 96.84375 145.613281 96.828125 145.808594 L 93.785156 145.808594 C 93.835938 146.042969 93.96875 146.257812 94.164062 146.40625 C 94.398438 146.554688 94.660156 146.636719 94.925781 146.621094 C 95.109375 146.621094 95.304688 146.585938 95.488281 146.519531 C 95.652344 146.453125 95.820312 146.355469 95.933594 146.222656 L 96.546875 146.902344 C 96.117188 147.347656 95.503906 147.59375 94.894531 147.546875 C 94.480469 147.5625 94.066406 147.464844 93.6875 147.28125 C 93.355469 147.117188 93.074219 146.867188 92.875 146.554688 C 92.675781 146.222656 92.578125 145.859375 92.59375 145.480469 C 92.59375 145.097656 92.695312 144.734375 92.875 144.421875 C 93.058594 144.109375 93.320312 143.859375 93.636719 143.679688 C 93.96875 143.496094 94.347656 143.414062 94.726562 143.414062 C 95.089844 143.414062 95.472656 143.496094 95.800781 143.660156 C 96.117188 143.828125 96.382812 144.074219 96.546875 144.390625 C 96.761719 144.734375 96.84375 145.117188 96.84375 145.496094 Z M 94.761719 144.304688 C 94.511719 144.304688 94.28125 144.371094 94.097656 144.539062 C 93.917969 144.6875 93.800781 144.917969 93.769531 145.148438 L 95.753906 145.148438 C 95.71875 144.917969 95.605469 144.703125 95.421875 144.539062 C 95.222656 144.371094 94.992188 144.289062 94.761719 144.304688 Z M 102.664062 143.414062 C 103.109375 143.398438 103.539062 143.546875 103.855469 143.859375 C 104.167969 144.222656 104.335938 144.703125 104.300781 145.199219 L 104.300781 147.496094 L 103.128906 147.496094 L 103.128906 145.378906 C 103.144531 145.132812 103.078125 144.867188 102.929688 144.667969 C 102.78125 144.503906 102.582031 144.421875 102.367188 144.4375 C 102.117188 144.421875 101.886719 144.519531 101.722656 144.703125 C 101.539062 144.933594 101.457031 145.214844 101.492188 145.496094 L 101.492188 147.511719 L 100.332031 147.511719 L 100.332031 145.398438 C 100.332031 144.769531 100.085938 144.453125 99.574219 144.453125 C 99.324219 144.4375 99.09375 144.539062 98.925781 144.71875 C 98.746094 144.949219 98.664062 145.230469 98.695312 145.511719 L 98.695312 147.527344 L 97.539062 147.527344 L 97.539062 143.511719 L 98.644531 143.511719 L 98.644531 143.976562 C 98.796875 143.808594 98.976562 143.679688 99.191406 143.59375 C 99.421875 143.496094 99.65625 143.464844 99.902344 143.464844 C 100.167969 143.464844 100.433594 143.511719 100.664062 143.628906 C 100.894531 143.742188 101.078125 143.910156 101.210938 144.125 C 101.375 143.910156 101.589844 143.742188 101.835938 143.644531 C 102.101562 143.480469 102.382812 143.414062 102.664062 143.414062 Z M 102.664062 143.414062 "/>
<path style=" stroke:none;fill-rule:nonzero;fill:rgb(18.823529%,19.607843%,27.45098%);fill-opacity:1;" d="M 14.765625 131.941406 L 7.027344 131.941406 L 5.585938 135.496094 L 0.3125 135.496094 L 8.382812 117.214844 L 13.476562 117.214844 L 21.578125 135.496094 L 16.203125 135.496094 Z M 13.242188 128.140625 L 10.894531 122.289062 L 8.546875 128.140625 Z M 22.785156 117.214844 L 31.433594 117.214844 C 33.265625 117.183594 35.085938 117.5625 36.757812 118.339844 C 38.246094 119.035156 39.5 120.140625 40.359375 121.53125 C 41.238281 122.984375 41.683594 124.652344 41.632812 126.355469 C 41.667969 128.058594 41.238281 129.726562 40.359375 131.183594 C 39.5 132.570312 38.246094 133.679688 36.757812 134.371094 C 35.085938 135.148438 33.265625 135.53125 31.433594 135.496094 L 22.785156 135.496094 Z M 31.21875 131.363281 C 32.789062 131.363281 34.042969 130.917969 34.988281 130.027344 C 35.929688 129.132812 36.410156 127.910156 36.410156 126.339844 C 36.410156 124.769531 35.929688 123.546875 34.988281 122.65625 C 34.042969 121.761719 32.789062 121.316406 31.21875 121.316406 L 27.941406 121.316406 L 27.941406 131.347656 L 31.21875 131.347656 Z M 44.097656 117.214844 L 49.273438 117.214844 L 49.273438 135.496094 L 44.097656 135.496094 Z M 52.679688 117.214844 L 57.855469 117.214844 L 57.855469 131.398438 L 66.585938 131.398438 L 66.585938 135.496094 L 52.695312 135.496094 L 52.695312 117.214844 Z M 80.820312 131.941406 L 73.082031 131.941406 L 71.644531 135.496094 L 66.371094 135.496094 L 74.4375 117.214844 L 79.53125 117.214844 L 87.632812 135.496094 L 82.261719 135.496094 Z M 79.300781 128.140625 L 76.953125 122.289062 L 74.605469 128.140625 Z M 96.828125 130.636719 L 94 130.636719 L 94 135.496094 L 88.824219 135.496094 L 88.824219 117.214844 L 97.191406 117.214844 C 98.664062 117.183594 100.132812 117.464844 101.507812 118.042969 C 102.664062 118.539062 103.640625 119.347656 104.335938 120.390625 C 105.011719 121.464844 105.359375 122.703125 105.328125 123.976562 C 105.359375 125.199219 105.027344 126.390625 104.402344 127.429688 C 103.753906 128.4375 102.828125 129.234375 101.753906 129.746094 L 105.707031 135.496094 L 100.167969 135.496094 Z M 100.101562 123.976562 C 100.152344 123.234375 99.851562 122.503906 99.292969 121.992188 C 98.746094 121.53125 97.953125 121.28125 96.894531 121.28125 L 94.015625 121.28125 L 94.015625 126.636719 L 96.894531 126.636719 C 97.953125 126.636719 98.761719 126.40625 99.292969 125.945312 C 99.851562 125.449219 100.152344 124.738281 100.101562 123.976562 Z M 100.101562 123.976562 "/>
<path style=" stroke:none;fill-rule:nonzero;fill:rgb(18.823529%,19.607843%,27.45098%);fill-opacity:1;" d="M 75.515625 95.695312 L 53.257812 65.085938 L 31 95.695312 C 28.753906 98.804688 24.40625 99.5 21.296875 97.25 C 18.1875 95.003906 17.492188 90.65625 19.742188 87.550781 C 19.742188 87.550781 19.757812 87.53125 19.757812 87.53125 L 47.6875 49.105469 C 49.949219 45.996094 54.300781 45.304688 57.410156 47.566406 C 58.316406 48.230469 59.046875 49.089844 59.542969 50.078125 L 86.773438 87.53125 C 89.039062 90.640625 88.363281 94.988281 85.253906 97.25 C 82.144531 99.515625 77.796875 98.835938 75.53125 95.730469 C 75.515625 95.714844 75.515625 95.714844 75.515625 95.695312 Z M 75.515625 95.695312 "/>
<path style=" stroke:none;fill-rule:nonzero;fill:rgb(100%,50.196078%,54.509804%);fill-opacity:1;" d="M 53.027344 0 C 56.976562 0 60.167969 3.207031 60.167969 7.140625 L 60.167969 30.3125 C 60.167969 34.261719 56.960938 37.453125 53.027344 37.453125 C 49.074219 37.453125 45.882812 34.246094 45.882812 30.3125 L 45.882812 7.140625 C 45.867188 3.207031 49.074219 0 53.027344 0 Z M 53.027344 0 "/>
<path style=" stroke:none;fill-rule:nonzero;fill:rgb(32.54902%,32.156863%,92.941176%);fill-opacity:1;" d="M 104.382812 37.222656 C 105.609375 40.972656 103.558594 45.003906 99.789062 46.230469 L 77.730469 53.386719 C 73.976562 54.609375 69.941406 52.558594 68.71875 48.789062 C 67.496094 45.039062 69.542969 41.007812 73.316406 39.78125 L 95.371094 32.625 C 99.125 31.417969 103.160156 33.46875 104.382812 37.222656 Z M 104.382812 37.222656 "/>
<path style=" stroke:none;fill-rule:nonzero;fill:rgb(96.862745%,76.862745%,17.254902%);fill-opacity:1;" d="M 37.300781 48.808594 C 36.078125 52.558594 32.042969 54.609375 28.289062 53.402344 L 6.234375 46.246094 C 2.480469 45.023438 0.429688 40.988281 1.636719 37.238281 C 2.859375 33.484375 6.894531 31.4375 10.648438 32.644531 L 32.703125 39.800781 C 36.476562 41.023438 38.523438 45.054688 37.300781 48.808594 Z M 37.300781 48.808594 "/>
</g>
</svg>
