<?xml version="1.0" encoding="UTF-8"?>
<svg xmlns="http://www.w3.org/2000/svg" xmlns:xlink="http://www.w3.org/1999/xlink" width="692px" height="150px" viewBox="0 0 687 150" version="1.1">
<g id="surface1">
<path style=" stroke:none;fill-rule:evenodd;fill:rgb(0%,23.529412%,71.372549%);fill-opacity:1;" d="M 355.136719 39.078125 L 356.632812 39.078125 L 356.632812 129.015625 C 356.582031 140.40625 347.371094 149.621094 335.984375 149.667969 L 333.476562 149.667969 L 333.476562 60.695312 C 333.523438 48.777344 343.171875 39.078125 355.136719 39.078125 Z M 355.136719 39.078125 "/>
<path style=" stroke:none;fill-rule:evenodd;fill:rgb(0%,23.529412%,71.372549%);fill-opacity:1;" d="M 238.769531 0.332031 L 240.265625 0.332031 L 240.265625 85.398438 L 280.308594 45.300781 C 288.703125 36.90625 302.261719 36.90625 310.65625 45.300781 C 310.75 45.398438 310.800781 45.445312 310.894531 45.542969 L 311.957031 46.652344 L 266.414062 92.25 C 265.691406 92.925781 264.96875 93.601562 264.195312 94.179688 C 265.257812 94.902344 266.222656 95.722656 267.089844 96.640625 L 311.957031 141.5625 L 310.222656 143.347656 C 302.308594 151.453125 289.332031 151.648438 281.226562 143.78125 C 281.128906 143.734375 281.082031 143.636719 280.984375 143.539062 L 240.265625 102.71875 L 240.265625 128.726562 C 240.316406 140.210938 231.101562 149.570312 219.617188 149.667969 L 217.15625 149.667969 L 217.15625 22.238281 C 217.0625 10.222656 226.710938 0.429688 238.769531 0.332031 Z M 238.769531 0.332031 "/>
<path style=" stroke:none;fill-rule:evenodd;fill:rgb(0%,23.529412%,71.372549%);fill-opacity:1;" d="M 0.0585938 127.085938 L 0.0585938 125.542969 L 0.300781 108.269531 C 0.203125 106.050781 0.300781 103.878906 0.683594 101.707031 L 0.683594 100.550781 L 0.925781 100.550781 C 3.242188 91.285156 11.539062 84.722656 21.09375 84.53125 L 69.289062 84.53125 C 71.460938 83.757812 73.003906 81.777344 73.195312 79.464844 L 73.195312 65.855469 C 72.90625 64.214844 71.652344 62.914062 69.964844 62.574219 L 21.625 62.574219 C 9.707031 62.480469 0.105469 52.730469 0.203125 40.8125 C 0.203125 40.765625 0.203125 40.71875 0.203125 40.667969 L 0.203125 39.125 L 76.523438 39.125 C 88.488281 40.089844 97.414062 50.609375 96.449219 62.574219 C 96.449219 62.71875 96.449219 62.863281 96.402344 63.007812 L 96.402344 148.945312 L 93.941406 148.945312 C 88.25 148.945312 82.796875 146.53125 78.9375 142.335938 C 74.835938 147.015625 68.902344 149.71875 62.679688 149.667969 L 21.429688 149.28125 C 11.589844 149.089844 3.097656 142.382812 0.636719 132.878906 L 0.539062 132.878906 L 0.539062 132.492188 C 0.203125 130.65625 0.0078125 128.871094 0.0585938 127.085938 Z M 73.195312 100.113281 C 69.191406 104.890625 63.304688 107.691406 57.082031 107.640625 L 28.328125 107.546875 C 26.253906 107.402344 24.421875 108.992188 24.277344 111.066406 C 24.277344 111.210938 24.277344 111.308594 24.277344 111.453125 L 24.179688 123.128906 C 24.179688 126.847656 26.929688 126.410156 28.714844 126.410156 L 69.53125 126.410156 C 71.507812 126.363281 73.148438 124.769531 73.195312 122.792969 Z M 73.195312 100.113281 "/>
<path style=" stroke:none;fill-rule:nonzero;fill:rgb(0%,23.529412%,71.372549%);fill-opacity:1;" d="M 358.511719 15.53125 C 358.511719 23.097656 352.378906 29.234375 344.8125 29.234375 C 337.246094 29.234375 331.109375 23.097656 331.109375 15.53125 C 331.109375 7.960938 337.246094 1.828125 344.8125 1.828125 C 352.378906 1.828125 358.511719 7.960938 358.511719 15.53125 Z M 358.511719 15.53125 "/>
<path style=" stroke:none;fill-rule:evenodd;fill:rgb(0%,23.529412%,71.372549%);fill-opacity:1;" d="M 122.792969 120.1875 L 167.949219 62.429688 L 133.210938 62.429688 C 121.34375 62.238281 111.839844 52.492188 111.984375 40.621094 L 111.984375 39.125 L 188.597656 39.125 C 207.027344 39.125 208.761719 50.65625 198.292969 64.023438 L 149.617188 126.265625 L 184.59375 126.121094 C 196.125 126.363281 205.386719 135.722656 205.484375 147.257812 L 205.484375 149.71875 L 129.882812 149.71875 C 120.234375 149.71875 115.84375 147.015625 113.914062 143.636719 C 110.007812 136.785156 115.988281 128.921875 122.792969 120.1875 Z M 122.792969 120.1875 "/>
<path style=" stroke:none;fill-rule:evenodd;fill:rgb(0%,23.529412%,71.372549%);fill-opacity:1;" d="M 481.199219 74.832031 L 428.613281 74.832031 C 420.316406 74.832031 413.558594 81.585938 413.558594 89.886719 L 413.558594 134.664062 C 413.558594 142.960938 420.316406 149.71875 428.613281 149.71875 L 481.199219 149.71875 C 481.199219 142.574219 475.410156 136.785156 468.269531 136.738281 L 434.355469 136.738281 C 430.445312 136.738281 427.308594 133.554688 427.308594 129.691406 L 427.308594 95.578125 C 427.308594 91.671875 430.445312 88.535156 434.355469 88.535156 L 468.269531 88.535156 C 475.410156 88.535156 481.199219 82.746094 481.199219 75.601562 Z M 481.199219 74.832031 "/>
<path style=" stroke:none;fill-rule:nonzero;fill:rgb(0%,23.529412%,71.372549%);fill-opacity:1;" d="M 549.996094 88.945312 C 552.601562 88.945312 554.773438 91.066406 554.773438 93.722656 L 554.773438 130.777344 C 554.773438 133.382812 552.648438 135.554688 549.996094 135.554688 L 510.773438 135.554688 C 508.167969 135.554688 505.996094 133.433594 505.996094 130.777344 L 505.996094 93.722656 C 505.996094 91.117188 508.121094 88.945312 510.773438 88.945312 L 549.996094 88.945312 M 549.996094 74.855469 L 510.773438 74.855469 C 500.351562 74.855469 491.910156 83.300781 491.910156 93.722656 L 491.910156 130.777344 C 491.910156 141.199219 500.351562 149.644531 510.773438 149.644531 L 549.996094 149.644531 C 560.417969 149.644531 568.859375 141.199219 568.90625 130.777344 L 568.90625 93.722656 C 568.90625 83.300781 560.464844 74.855469 549.996094 74.855469 Z M 549.996094 74.855469 "/>
<path style=" stroke:none;fill-rule:nonzero;fill:rgb(0%,23.529412%,71.372549%);fill-opacity:1;" d="M 586.46875 93.359375 L 586.46875 149.667969 L 588.640625 149.667969 C 595.683594 149.667969 601.425781 143.925781 601.425781 136.882812 L 601.425781 94.519531 C 601.425781 91.1875 604.125 88.484375 607.453125 88.484375 L 624.4375 88.484375 C 627.765625 88.484375 630.46875 91.1875 630.46875 94.519531 L 630.46875 136.882812 C 630.46875 143.925781 636.160156 149.667969 643.253906 149.667969 L 646.292969 149.667969 L 646.292969 94.179688 C 646.292969 90.851562 648.992188 88.148438 652.320312 88.148438 L 667.179688 88.148438 C 670.511719 88.148438 673.210938 90.851562 673.210938 94.179688 L 673.210938 136.882812 C 673.210938 143.925781 678.953125 149.667969 685.996094 149.667969 L 686.914062 149.667969 L 686.914062 93.359375 C 686.914062 83.128906 678.613281 74.832031 668.386719 74.832031 L 646.339844 74.832031 C 644.601562 74.832031 642.960938 75.457031 641.707031 76.566406 L 639.007812 78.933594 L 636.304688 76.566406 C 635.003906 75.457031 633.363281 74.832031 631.671875 74.832031 L 604.945312 74.832031 C 594.71875 74.832031 586.46875 83.128906 586.46875 93.359375 Z M 586.46875 93.359375 "/>
<path style=" stroke:none;fill-rule:nonzero;fill:rgb(0%,23.529412%,71.372549%);fill-opacity:1;" d="M 396 139.488281 C 396 145.03125 391.507812 149.523438 385.964844 149.523438 C 380.421875 149.523438 375.929688 145.03125 375.929688 139.488281 C 375.929688 133.945312 380.421875 129.453125 385.964844 129.453125 C 391.507812 129.453125 396 133.945312 396 139.488281 Z M 396 139.488281 "/>
</g>
</svg>
