<?xml version="1.0" encoding="UTF-8"?>
<svg xmlns="http://www.w3.org/2000/svg" xmlns:xlink="http://www.w3.org/1999/xlink" width="570px" height="150px" viewBox="0 0 560 150" version="1.1">
<defs>
<linearGradient id="linear0" gradientUnits="userSpaceOnUse" x1="59.4342" y1="686.2369" x2="142.3968" y2="686.2369" gradientTransform="matrix(3.932584,0,0,3.93628,0,-2678.286763)">
<stop offset="0" style="stop-color:rgb(0%,0%,86.666667%);stop-opacity:1;"/>
<stop offset="0.1067" style="stop-color:rgb(0.392157%,4.313725%,87.45098%);stop-opacity:1;"/>
<stop offset="0.2943" style="stop-color:rgb(1.568627%,15.686275%,89.411765%);stop-opacity:1;"/>
<stop offset="0.5408" style="stop-color:rgb(3.529412%,34.509804%,92.54902%);stop-opacity:1;"/>
<stop offset="0.8335" style="stop-color:rgb(5.882353%,60.392157%,97.254902%);stop-opacity:1;"/>
<stop offset="1" style="stop-color:rgb(7.45098%,76.078431%,100%);stop-opacity:1;"/>
</linearGradient>
</defs>
<g id="surface1">
<path style=" stroke:none;fill-rule:nonzero;fill:url(#linear0);" d="M 547.847656 0.800781 L 521.144531 0.800781 C 519.574219 0.800781 517.882812 0.878906 516.308594 1.078125 L 239.847656 29.734375 C 235.875 30.085938 233.714844 32.054688 233.714844 35.953125 L 233.714844 38.90625 C 233.714844 42.25 236.503906 45.042969 239.847656 45.042969 L 547.847656 45.042969 C 554.535156 45.042969 560 39.574219 560 32.882812 L 560 12.964844 C 560 6.273438 554.535156 0.800781 547.847656 0.800781 Z M 547.847656 0.800781 "/>
<path style=" stroke:none;fill-rule:nonzero;fill:rgb(0%,10.588235%,75.686275%);fill-opacity:1;" d="M 58.59375 147.78125 L 51.554688 147.78125 C 49.90625 147.78125 48.488281 146.402344 48.488281 144.710938 L 48.488281 141.367188 C 41.175781 145.617188 33.464844 148.882812 24.933594 148.882812 C 11.953125 148.882812 0 143.214844 0 124.125 L 0 122.273438 C 0 105.742188 9.636719 97.515625 36.886719 97.515625 L 48.214844 97.515625 L 48.214844 91.375 C 48.214844 78.464844 43.769531 74.015625 31.816406 74.015625 C 21.90625 74.015625 14.472656 74.683594 8.375 75.234375 C 8.101562 75.234375 7.90625 75.234375 7.628906 75.234375 C 6.253906 75.234375 4.835938 74.765625 4.835938 72.835938 L 4.835938 67.441406 C 4.835938 65.789062 5.9375 64.84375 8.101562 64.570312 C 14.394531 63.464844 21.433594 62.601562 31.855469 62.601562 C 53.167969 62.601562 61.703125 73.347656 61.703125 91.375 L 61.703125 144.828125 C 61.664062 146.484375 60.363281 147.78125 58.59375 147.78125 Z M 48.214844 107.042969 L 36.886719 107.042969 C 18.324219 107.042969 13.449219 111.214844 13.449219 122.078125 L 13.449219 123.929688 C 13.449219 134.988281 18.640625 137.863281 27.527344 137.863281 C 34.566406 137.863281 40.859375 135.738281 48.214844 131.722656 Z M 48.214844 107.042969 "/>
<path style=" stroke:none;fill-rule:nonzero;fill:rgb(0%,10.588235%,75.686275%);fill-opacity:1;" d="M 135.164062 147.78125 L 88.914062 147.78125 C 82.347656 147.78125 79.554688 143.609375 79.554688 139.320312 L 79.554688 136.445312 C 79.554688 132.195312 80.5 129.871094 83.09375 126.527344 L 122.578125 77.324219 C 122.855469 76.851562 123.246094 76.378906 123.246094 75.945312 C 123.246094 75.277344 122.972656 74.84375 121.675781 74.84375 L 84.511719 74.84375 C 82.859375 74.84375 81.445312 73.464844 81.445312 71.773438 L 81.445312 66.578125 C 81.445312 64.921875 82.820312 63.507812 84.511719 63.507812 L 129.460938 63.507812 C 135.753906 63.507812 137.996094 66.378906 137.996094 71.023438 L 137.996094 74.722656 C 137.996094 77.992188 136.894531 80.195312 134.453125 83.1875 L 94.226562 133.570312 C 93.554688 134.242188 93.476562 134.792969 93.476562 135.226562 C 93.476562 135.972656 93.675781 136.445312 94.695312 136.445312 L 135.125 136.445312 C 136.773438 136.445312 138.191406 137.824219 138.191406 139.515625 L 138.191406 144.710938 C 138.230469 146.484375 136.855469 147.78125 135.164062 147.78125 Z M 135.164062 147.78125 "/>
<path style=" stroke:none;fill-rule:nonzero;fill:rgb(0%,10.588235%,75.686275%);fill-opacity:1;" d="M 244.292969 147.78125 L 236.976562 147.78125 C 235.324219 147.78125 233.910156 146.402344 233.910156 144.710938 L 233.910156 63.074219 C 233.910156 61.417969 235.285156 60.003906 236.976562 60.003906 L 244.292969 60.003906 C 245.945312 60.003906 247.359375 61.378906 247.359375 63.074219 L 247.359375 144.75 C 247.359375 146.484375 245.984375 147.78125 244.292969 147.78125 Z M 244.292969 147.78125 "/>
<path style=" stroke:none;fill-rule:nonzero;fill:rgb(0%,10.588235%,75.686275%);fill-opacity:1;" d="M 345.832031 63.546875 L 326.5625 133.140625 C 322.746094 146.796875 313.386719 149.199219 304.421875 149.199219 C 295.414062 149.199219 286.253906 146.796875 282.359375 133.140625 L 263.246094 63.546875 C 263.050781 63.269531 263.050781 62.875 263.050781 62.601562 C 263.050781 61.027344 264.152344 60.003906 265.449219 60.003906 L 285.664062 60.003906 C 287.234375 60.003906 288.453125 61.378906 288.925781 63.269531 L 302.101562 123.296875 C 302.574219 125.621094 303.320312 126.566406 304.421875 126.566406 C 305.523438 126.566406 306.386719 125.621094 306.820312 123.296875 L 319.996094 63.269531 C 320.464844 61.417969 321.644531 60.003906 323.257812 60.003906 L 343.472656 60.003906 C 344.847656 60.003906 346.066406 61.105469 346.066406 62.601562 C 345.988281 62.996094 345.988281 63.269531 345.832031 63.546875 Z M 345.832031 63.546875 "/>
<path style=" stroke:none;fill-rule:nonzero;fill:rgb(0%,10.588235%,75.686275%);fill-opacity:1;" d="M 422.949219 147.78125 L 405.804688 147.78125 C 404.152344 147.78125 402.734375 146.402344 402.734375 144.710938 L 402.734375 142.308594 C 396.796875 146.5625 390.703125 149.160156 381.421875 149.160156 C 368.089844 149.160156 355.269531 142.742188 355.269531 122.785156 L 355.269531 121.410156 C 355.269531 103.5 366.753906 95.507812 392.90625 95.507812 L 401.164062 95.507812 L 401.164062 90.035156 C 401.164062 81.296875 396.914062 79.449219 389.679688 79.449219 C 379.847656 79.449219 368.996094 80.117188 364.273438 80.550781 L 363.527344 80.550781 C 361.953125 80.550781 360.734375 79.800781 360.734375 77.753906 L 360.734375 65.316406 C 360.734375 63.664062 361.835938 62.441406 363.605469 61.972656 C 369.269531 60.59375 380.003906 58.703125 390.113281 58.703125 C 412.175781 58.703125 425.898438 67.601562 425.898438 89.957031 L 425.898438 144.632812 C 426.015625 146.484375 424.640625 147.78125 422.949219 147.78125 Z M 401.714844 110.308594 L 392.984375 110.308594 C 382.246094 110.308594 379.535156 114.007812 379.535156 121.527344 L 379.535156 122.90625 C 379.535156 129.320312 382.796875 130.621094 389.167969 130.621094 C 393.808594 130.621094 398.054688 129.046875 401.675781 127.273438 L 401.675781 110.308594 Z M 401.714844 110.308594 "/>
<path style=" stroke:none;fill-rule:nonzero;fill:rgb(0%,10.588235%,75.686275%);fill-opacity:1;" d="M 556.734375 147.78125 L 538.175781 147.78125 C 536.523438 147.78125 535.105469 146.207031 535.105469 144.515625 L 535.105469 92.398438 C 535.105469 82.558594 532.785156 79.683594 525.746094 79.683594 C 523.152344 79.683594 518.511719 80.351562 513.988281 82.480469 C 514.265625 85.550781 514.460938 89.050781 514.460938 92.398438 L 514.460938 144.632812 C 514.460938 146.285156 513.085938 147.898438 511.394531 147.898438 L 492.832031 147.898438 C 491.179688 147.898438 489.566406 146.324219 489.566406 144.632812 L 489.566406 92.398438 C 489.566406 82.558594 487.71875 79.683594 480.679688 79.683594 C 477.808594 79.683594 473.835938 81.257812 469.078125 83.660156 L 469.078125 144.632812 C 469.078125 146.285156 467.703125 147.898438 466.011719 147.898438 L 447.449219 147.898438 C 445.796875 147.898438 444.183594 146.324219 444.183594 144.632812 L 444.183594 63.074219 C 444.183594 61.417969 445.5625 60.003906 447.253906 60.003906 L 464.675781 60.003906 C 466.324219 60.003906 467.742188 61.378906 467.742188 63.074219 L 467.742188 66.417969 C 474.152344 62.167969 481.546875 58.703125 490.355469 58.703125 C 498.496094 58.703125 504.15625 61.027344 508.445312 66.222656 C 517.332031 61.222656 523.464844 58.703125 533.375 58.703125 C 553.589844 58.703125 559.726562 72.164062 559.726562 92.28125 L 559.726562 144.632812 C 560 146.324219 558.425781 147.78125 556.734375 147.78125 Z M 556.734375 147.78125 "/>
<path style=" stroke:none;fill-rule:nonzero;fill:rgb(0%,10.588235%,75.686275%);fill-opacity:1;" d="M 169.652344 108.183594 L 169.652344 144.828125 C 169.652344 146.484375 168.273438 147.898438 166.585938 147.898438 L 159.269531 147.898438 C 157.617188 147.898438 156.203125 146.523438 156.203125 144.828125 L 156.203125 35.675781 C 156.203125 34.023438 157.578125 32.605469 159.269531 32.605469 L 166.585938 32.605469 C 168.234375 32.605469 169.652344 33.984375 169.652344 35.675781 Z M 169.652344 108.183594 "/>
<path style=" stroke:none;fill-rule:nonzero;fill:rgb(0%,10.588235%,75.686275%);fill-opacity:1;" d="M 218.257812 143.804688 L 185.34375 103.890625 L 218.257812 63.976562 C 219.554688 62.402344 218.453125 60.003906 216.410156 60.003906 L 207.601562 60.003906 C 206.105469 60.003906 204.730469 60.671875 203.785156 61.851562 L 169.101562 104.011719 L 203.785156 146.128906 C 204.730469 147.230469 206.105469 147.980469 207.601562 147.980469 L 216.410156 147.980469 C 218.414062 147.78125 219.554688 145.460938 218.257812 143.804688 Z M 218.257812 143.804688 "/>
</g>
</svg>
