<?xml version="1.0" encoding="UTF-8"?>
<svg xmlns="http://www.w3.org/2000/svg" xmlns:xlink="http://www.w3.org/1999/xlink" width="300px" height="150px" viewBox="0 0 546 150" version="1.1">
<g id="surface1">
<path style=" stroke:none;fill-rule:nonzero;fill:rgb(94.901961%,64.313725%,13.333333%);fill-opacity:1;" d="M 169.167969 79.160156 L 169.089844 79.046875 C 164.414062 70.492188 153.753906 67.273438 145.089844 71.757812 L 139.988281 74.40625 C 135.734375 76.707031 130.441406 75.171875 128.101562 70.914062 L 94.746094 9.550781 C 90.027344 0.882812 79.140625 -2.300781 70.472656 2.414062 C 61.808594 7.132812 58.625 17.988281 63.34375 26.65625 L 104.40625 102.097656 C 111.960938 115.902344 129.292969 121.003906 143.132812 113.449219 L 161.84375 103.476562 C 170.546875 98.835938 173.882812 88.019531 169.246094 79.316406 C 169.246094 79.277344 169.207031 79.238281 169.167969 79.160156 Z M 169.167969 79.160156 "/>
<path style=" stroke:none;fill-rule:nonzero;fill:rgb(94.901961%,64.313725%,13.333333%);fill-opacity:1;" d="M 61.117188 84.222656 C 43.019531 84.222656 28.335938 98.875 28.335938 116.976562 C 28.335938 135.082031 43.019531 149.730469 61.117188 149.730469 C 79.214844 149.730469 93.902344 135.082031 93.902344 116.976562 C 93.941406 98.875 79.253906 84.222656 61.117188 84.222656 Z M 61.117188 127.910156 C 55.097656 127.910156 50.191406 123.039062 50.191406 116.976562 C 50.191406 110.957031 55.097656 106.046875 61.117188 106.046875 C 67.136719 106.046875 72.046875 110.917969 72.046875 116.976562 C 72.085938 123 67.175781 127.910156 61.117188 127.910156 Z M 61.117188 127.910156 "/>
<path style=" stroke:none;fill-rule:nonzero;fill:rgb(94.901961%,64.313725%,13.333333%);fill-opacity:1;" d="M 47.507812 23.089844 C 48.773438 23.089844 49.84375 24.125 49.84375 25.429688 L 49.84375 39.042969 C 49.84375 40.308594 48.808594 41.382812 47.507812 41.382812 L 2.339844 41.382812 C 1.035156 41.34375 0 40.308594 0 39.003906 L 0 25.390625 C 0 24.125 1.035156 23.050781 2.339844 23.050781 L 47.507812 23.050781 Z M 47.507812 23.089844 "/>
<path style=" stroke:none;fill-rule:nonzero;fill:rgb(94.901961%,64.313725%,13.333333%);fill-opacity:1;" d="M 64.761719 54.960938 C 66.027344 54.960938 67.101562 55.996094 67.101562 57.300781 L 67.101562 70.914062 C 67.101562 72.179688 66.066406 73.253906 64.761719 73.253906 L 31.519531 73.253906 C 30.253906 73.253906 29.179688 72.21875 29.179688 70.914062 L 29.179688 57.300781 C 29.179688 56.035156 30.214844 54.960938 31.519531 54.960938 Z M 64.761719 54.960938 "/>
<path style=" stroke:none;fill-rule:nonzero;fill:rgb(94.901961%,64.313725%,13.333333%);fill-opacity:1;" d="M 415.441406 37.050781 C 416.054688 37.050781 416.554688 37.546875 416.554688 38.160156 L 416.554688 100.449219 C 416.554688 101.0625 416.054688 101.558594 415.441406 101.558594 L 408.808594 101.558594 C 408.195312 101.558594 407.699219 101.0625 407.699219 100.449219 L 407.699219 38.160156 C 407.699219 37.546875 408.195312 37.050781 408.808594 37.050781 Z M 415.441406 37.050781 "/>
<path style=" stroke:none;fill-rule:nonzero;fill:rgb(94.901961%,64.313725%,13.333333%);fill-opacity:1;" d="M 466.898438 52.351562 C 453.632812 52.3125 442.859375 63.015625 442.820312 76.246094 C 442.820312 76.285156 442.820312 76.324219 442.820312 76.324219 L 442.820312 97.148438 C 442.820312 99.566406 444.773438 101.519531 447.191406 101.519531 L 447.304688 101.519531 C 449.722656 101.519531 451.675781 99.566406 451.675781 97.148438 L 451.675781 76.207031 C 451.675781 67.886719 458.425781 61.097656 466.785156 61.097656 C 475.144531 61.097656 481.890625 67.847656 481.890625 76.167969 L 481.890625 97.109375 C 481.890625 99.527344 483.847656 101.484375 486.261719 101.484375 L 486.378906 101.484375 C 488.792969 101.484375 490.75 99.527344 490.75 97.109375 L 490.75 76.285156 C 490.785156 63.128906 480.128906 52.429688 466.898438 52.351562 Z M 466.898438 52.351562 "/>
<path style=" stroke:none;fill-rule:nonzero;fill:rgb(94.901961%,64.313725%,13.333333%);fill-opacity:1;" d="M 433.273438 65.585938 C 433.886719 65.585938 434.382812 66.082031 434.382812 66.695312 L 434.382812 100.410156 C 434.382812 101.023438 433.886719 101.519531 433.273438 101.519531 L 426.640625 101.519531 C 426.027344 101.519531 425.527344 101.023438 425.527344 100.410156 L 425.527344 66.695312 C 425.527344 66.082031 426.027344 65.585938 426.640625 65.585938 Z M 433.273438 65.585938 "/>
<path style=" stroke:none;fill-rule:nonzero;fill:rgb(94.901961%,64.313725%,13.333333%);fill-opacity:1;" d="M 521.34375 101.445312 C 527.210938 101.445312 532.925781 99.335938 537.371094 95.5 C 539.214844 93.925781 539.40625 91.164062 537.832031 89.324219 C 537.601562 89.054688 537.335938 88.828125 537.066406 88.597656 C 535.417969 87.445312 533.195312 87.523438 531.699219 88.828125 C 525.066406 94.542969 515.019531 93.773438 509.304688 87.101562 C 507.847656 85.375 506.738281 83.378906 506.125 81.234375 L 545.578125 81.234375 C 548.03125 67.847656 539.175781 55.035156 525.792969 52.582031 C 524.414062 52.3125 522.996094 52.199219 521.574219 52.199219 C 508.003906 52.082031 496.730469 63.246094 496.730469 76.820312 C 496.691406 90.4375 507.734375 101.445312 521.34375 101.445312 Z M 521.34375 60.980469 C 528.402344 60.980469 534.613281 65.621094 536.566406 72.410156 L 506.125 72.410156 C 508.078125 65.621094 514.289062 60.980469 521.34375 60.980469 Z M 521.34375 60.980469 "/>
<path style=" stroke:none;fill-rule:nonzero;fill:rgb(94.901961%,64.313725%,13.333333%);fill-opacity:1;" d="M 435.035156 57.53125 C 435.035156 60.328125 432.773438 62.59375 429.976562 62.59375 C 427.175781 62.59375 424.914062 60.328125 424.914062 57.53125 C 424.914062 54.730469 427.175781 52.46875 429.976562 52.46875 C 432.734375 52.46875 435.035156 54.730469 435.035156 57.53125 Z M 435.035156 57.53125 "/>
<path style=" stroke:none;fill-rule:nonzero;fill:rgb(7.058824%,10.980392%,29.803922%);fill-opacity:1;" d="M 282.085938 101.367188 L 283.238281 101.367188 C 286.613281 101.367188 289.371094 98.683594 289.449219 95.347656 C 289.527344 91.933594 286.839844 89.09375 283.429688 88.980469 C 283.390625 88.980469 283.3125 88.980469 283.277344 88.980469 L 282.164062 88.980469 C 275.414062 88.941406 270.007812 83.417969 270.046875 76.707031 C 270.085938 70.035156 275.492188 64.664062 282.164062 64.625 C 288.914062 64.625 294.355469 70.070312 294.355469 76.820312 L 294.355469 95.269531 C 294.355469 98.644531 297.117188 101.40625 300.492188 101.40625 C 303.902344 101.40625 306.664062 98.644531 306.664062 95.269531 C 306.664062 95.269531 306.664062 95.230469 306.664062 95.230469 L 306.625 88.980469 L 306.589844 76.820312 C 306.511719 63.28125 295.546875 52.351562 281.972656 52.351562 C 268.550781 52.351562 257.703125 63.207031 257.703125 76.589844 C 257.703125 76.628906 257.703125 76.667969 257.703125 76.707031 L 257.703125 77.089844 C 257.777344 90.476562 268.667969 101.328125 282.085938 101.367188 Z M 282.085938 101.367188 "/>
<path style=" stroke:none;fill-rule:nonzero;fill:rgb(7.058824%,10.980392%,29.803922%);fill-opacity:1;" d="M 229.980469 101.40625 C 243.476562 101.328125 254.328125 90.359375 254.25 76.859375 L 254.25 76.667969 C 254.171875 63.246094 243.285156 52.390625 229.863281 52.351562 C 225.492188 52.351562 221.238281 53.503906 217.480469 55.6875 L 217.480469 43.109375 C 217.480469 39.734375 214.757812 37.011719 211.382812 37.011719 C 208.007812 37.011719 205.285156 39.734375 205.285156 43.109375 L 205.285156 75.171875 L 205.441406 75.171875 C 205.402344 75.746094 205.402344 76.285156 205.402344 76.859375 L 205.402344 77.050781 C 205.476562 90.550781 216.445312 101.40625 229.941406 101.367188 C 229.941406 101.40625 229.941406 101.40625 229.980469 101.40625 Z M 217.59375 76.9375 C 217.59375 70.1875 223.078125 64.742188 229.789062 64.742188 C 236.535156 64.742188 241.980469 70.1875 241.980469 76.9375 C 241.980469 83.6875 236.535156 89.132812 229.789062 89.132812 C 223.078125 89.132812 217.59375 83.6875 217.59375 76.9375 Z M 217.59375 76.9375 "/>
<path style=" stroke:none;fill-rule:nonzero;fill:rgb(7.058824%,10.980392%,29.803922%);fill-opacity:1;" d="M 397.574219 76.859375 L 397.574219 76.667969 C 397.5 63.246094 386.609375 52.390625 373.191406 52.351562 C 359.691406 52.3125 348.726562 63.246094 348.6875 76.707031 C 348.6875 76.746094 348.6875 76.820312 348.6875 76.859375 L 348.6875 77.050781 C 348.765625 90.550781 359.730469 101.40625 373.226562 101.367188 C 373.265625 101.367188 373.265625 101.367188 373.265625 101.367188 C 386.800781 101.328125 397.652344 90.320312 397.574219 76.859375 Z M 385.34375 76.9375 C 385.34375 83.6875 379.859375 89.132812 373.152344 89.132812 C 366.402344 89.132812 360.957031 83.6875 360.957031 76.9375 C 360.957031 70.1875 366.402344 64.742188 373.152344 64.742188 C 379.859375 64.742188 385.34375 70.1875 385.34375 76.9375 Z M 385.34375 76.9375 "/>
<path style=" stroke:none;fill-rule:nonzero;fill:rgb(7.058824%,10.980392%,29.803922%);fill-opacity:1;" d="M 319.433594 101.328125 C 322.808594 101.328125 325.53125 98.605469 325.53125 95.230469 L 325.53125 76.363281 C 325.53125 69.765625 330.898438 64.433594 337.492188 64.433594 L 342.820312 64.433594 C 346.195312 64.433594 348.917969 61.710938 348.917969 58.335938 C 348.917969 54.960938 346.195312 52.238281 342.820312 52.238281 L 337.414062 52.238281 C 324.109375 52.238281 313.296875 63.015625 313.296875 76.324219 L 313.296875 95.269531 C 313.335938 98.605469 316.058594 101.328125 319.433594 101.328125 Z M 319.433594 101.328125 "/>
</g>
</svg>
