<?xml version="1.0" encoding="UTF-8"?>
<svg xmlns="http://www.w3.org/2000/svg" xmlns:xlink="http://www.w3.org/1999/xlink" width="634px" height="150px" viewBox="0 0 632 150" version="1.1">
<defs>
<linearGradient id="linear0" gradientUnits="userSpaceOnUse" x1="36.3796" y1="17.4487" x2="0.8611" y2="15.5872" gradientTransform="matrix(4.675594,0,0,4.681605,0,0.0475096)">
<stop offset="0" style="stop-color:rgb(8.235294%,53.333333%,79.215686%);stop-opacity:1;"/>
<stop offset="0.0923" style="stop-color:rgb(8.627451%,56.470588%,81.568627%);stop-opacity:1;"/>
<stop offset="0.2791" style="stop-color:rgb(9.411765%,60.784314%,84.313725%);stop-opacity:1;"/>
<stop offset="0.5" style="stop-color:rgb(9.803922%,61.960784%,85.098039%);stop-opacity:1;"/>
<stop offset="1" style="stop-color:rgb(28.627451%,74.509804%,93.333333%);stop-opacity:1;"/>
</linearGradient>
<linearGradient id="linear1" gradientUnits="userSpaceOnUse" x1="492.3877" y1="-482.8907" x2="486.5639" y2="-488.7145" gradientTransform="matrix(4.675594,0.0245745,-0.0245429,4.681605,-2258.849916,2398.089004)">
<stop offset="0.0903" style="stop-color:rgb(9.803922%,61.960784%,85.098039%);stop-opacity:1;"/>
<stop offset="0.3279" style="stop-color:rgb(16.470588%,66.27451%,87.843137%);stop-opacity:1;"/>
<stop offset="0.7169" style="stop-color:rgb(25.490196%,72.156863%,91.764706%);stop-opacity:1;"/>
<stop offset="0.9641" style="stop-color:rgb(28.627451%,74.509804%,93.333333%);stop-opacity:1;"/>
</linearGradient>
<linearGradient id="linear2" gradientUnits="userSpaceOnUse" x1="497.4088" y1="-491.2765" x2="511.6392" y2="-486.3222" gradientTransform="matrix(4.675594,0.0245745,-0.0245429,4.681605,-2258.849916,2398.089004)">
<stop offset="0.0903" style="stop-color:rgb(9.803922%,61.960784%,85.098039%);stop-opacity:1;"/>
<stop offset="0.3279" style="stop-color:rgb(16.470588%,66.27451%,87.843137%);stop-opacity:1;"/>
<stop offset="0.7169" style="stop-color:rgb(25.490196%,72.156863%,91.764706%);stop-opacity:1;"/>
<stop offset="0.9641" style="stop-color:rgb(28.627451%,74.509804%,93.333333%);stop-opacity:1;"/>
</linearGradient>
<linearGradient id="linear3" gradientUnits="userSpaceOnUse" x1="34.4128" y1="32.7938" x2="14.508" y2="2.1431" gradientTransform="matrix(4.675594,0,0,4.681605,0,0.0475096)">
<stop offset="0" style="stop-color:rgb(0%,54.509804%,82.352941%);stop-opacity:1;"/>
<stop offset="0.084" style="stop-color:rgb(0%,57.254902%,84.705882%);stop-opacity:1;"/>
<stop offset="0.2746" style="stop-color:rgb(0%,61.568627%,87.843137%);stop-opacity:1;"/>
<stop offset="0.5" style="stop-color:rgb(0%,62.745098%,89.019608%);stop-opacity:1;"/>
<stop offset="1" style="stop-color:rgb(27.843137%,75.294118%,94.117647%);stop-opacity:1;"/>
</linearGradient>
</defs>
<g id="surface1">
<path style=" stroke:none;fill-rule:nonzero;fill:url(#linear0);" d="M 166.542969 149.953125 L 111.933594 111.9375 L 83.273438 60.019531 L 54.5625 111.9375 L 0 149.953125 L 83.273438 0.046875 "/>
<path style=" stroke:none;fill-rule:nonzero;fill:url(#linear1);" d="M 83.273438 121.675781 L 0 149.953125 L 54.5625 111.9375 Z M 83.273438 121.675781 "/>
<path style=" stroke:none;fill-rule:nonzero;fill:url(#linear2);" d="M 166.496094 149.953125 L 54.332031 111.890625 L 83.273438 102.246094 L 111.980469 111.9375 C 111.886719 111.890625 166.496094 149.953125 166.496094 149.953125 Z M 166.496094 149.953125 "/>
<path style=" stroke:none;fill-rule:nonzero;fill:url(#linear3);" d="M 166.496094 149.953125 L 111.933594 111.9375 L 83.273438 60.019531 L 83.273438 0.046875 Z M 166.496094 149.953125 "/>
<path style=" stroke:none;fill-rule:nonzero;fill:rgb(11.372549%,11.372549%,10.588235%);fill-opacity:1;" d="M 389.007812 129.632812 L 399.34375 129.632812 L 399.34375 132.488281 L 392.421875 132.488281 L 392.421875 138.0625 L 398.875 138.0625 L 398.875 140.871094 L 392.421875 140.871094 L 392.421875 149.25 L 389.007812 149.25 Z M 389.007812 129.632812 "/>
<path style=" stroke:none;fill-rule:nonzero;fill:rgb(11.372549%,11.372549%,10.588235%);fill-opacity:1;" d="M 407.945312 131.179688 C 407.945312 132.257812 407.199219 133.050781 405.980469 133.050781 C 404.859375 133.050781 404.113281 132.210938 404.113281 131.179688 C 404.113281 130.101562 404.90625 129.261719 406.027344 129.261719 C 407.199219 129.304688 407.945312 130.101562 407.945312 131.179688 Z M 404.34375 149.25 L 404.34375 135.066406 L 407.804688 135.066406 L 407.804688 149.25 Z M 404.34375 149.25 "/>
<path style=" stroke:none;fill-rule:nonzero;fill:rgb(11.372549%,11.372549%,10.588235%);fill-opacity:1;" d="M 413.648438 139.230469 C 413.648438 137.59375 413.601562 136.328125 413.554688 135.066406 L 416.546875 135.066406 L 416.734375 137.078125 L 416.828125 137.078125 C 417.484375 135.953125 418.886719 134.785156 420.992188 134.785156 C 423.421875 134.785156 425.621094 136.46875 425.621094 140.589844 L 425.621094 149.25 L 422.160156 149.25 L 422.160156 140.964844 C 422.160156 139.136719 421.550781 137.640625 419.773438 137.640625 C 418.558594 137.640625 417.671875 138.53125 417.296875 139.652344 C 417.203125 139.933594 417.15625 140.402344 417.15625 140.824219 L 417.15625 149.296875 L 413.695312 149.296875 L 413.695312 139.230469 Z M 413.648438 139.230469 "/>
<path style=" stroke:none;fill-rule:nonzero;fill:rgb(11.372549%,11.372549%,10.588235%);fill-opacity:1;" d="M 438.757812 149.25 L 438.523438 147.707031 L 438.429688 147.707031 C 437.636719 148.828125 436.28125 149.53125 434.597656 149.53125 C 431.976562 149.53125 430.386719 147.566406 430.386719 145.316406 C 430.386719 141.710938 433.519531 139.980469 438.148438 139.980469 L 438.148438 139.699219 C 438.148438 138.621094 437.730469 137.21875 435.484375 137.21875 C 434.222656 137.21875 432.914062 137.640625 432.023438 138.203125 L 431.371094 135.953125 C 432.304688 135.347656 434.035156 134.785156 436.140625 134.785156 C 440.394531 134.785156 441.609375 137.546875 441.609375 140.636719 L 441.609375 145.925781 C 441.609375 147.144531 441.65625 148.40625 441.796875 149.296875 L 438.757812 149.296875 Z M 438.289062 142.273438 C 436.140625 142.273438 433.800781 142.742188 433.800781 144.988281 C 433.800781 146.441406 434.691406 147.050781 435.671875 147.050781 C 436.886719 147.050781 437.871094 146.253906 438.148438 145.175781 C 438.242188 144.941406 438.242188 144.664062 438.242188 144.429688 L 438.242188 142.273438 Z M 438.289062 142.273438 "/>
<path style=" stroke:none;fill-rule:nonzero;fill:rgb(11.372549%,11.372549%,10.588235%);fill-opacity:1;" d="M 447.5 139.230469 C 447.5 137.59375 447.453125 136.328125 447.40625 135.066406 L 450.398438 135.066406 L 450.585938 137.078125 L 450.679688 137.078125 C 451.335938 135.953125 452.738281 134.785156 454.839844 134.785156 C 457.273438 134.785156 459.46875 136.46875 459.46875 140.589844 L 459.46875 149.25 L 456.011719 149.25 L 456.011719 140.964844 C 456.011719 139.136719 455.402344 137.640625 453.625 137.640625 C 452.410156 137.640625 451.523438 138.53125 451.148438 139.652344 C 451.054688 139.933594 451.007812 140.402344 451.007812 140.824219 L 451.007812 149.296875 L 447.546875 149.296875 L 447.546875 139.230469 Z M 447.5 139.230469 "/>
<path style=" stroke:none;fill-rule:nonzero;fill:rgb(11.372549%,11.372549%,10.588235%);fill-opacity:1;" d="M 474.714844 148.875 C 474.058594 149.203125 472.75 149.53125 471.207031 149.53125 C 467.09375 149.53125 464.425781 146.769531 464.425781 142.320312 C 464.425781 138.0625 467.136719 134.832031 471.765625 134.832031 C 472.9375 134.832031 474.105469 135.113281 474.804688 135.394531 L 474.199219 138.015625 C 473.683594 137.78125 472.9375 137.546875 471.859375 137.546875 C 469.335938 137.546875 467.886719 139.605469 467.886719 142.179688 C 467.886719 145.082031 469.570312 146.769531 471.859375 146.769531 C 472.890625 146.769531 473.636719 146.535156 474.292969 146.253906 Z M 474.714844 148.875 "/>
<path style=" stroke:none;fill-rule:nonzero;fill:rgb(11.372549%,11.372549%,10.588235%);fill-opacity:1;" d="M 483.035156 131.179688 C 483.035156 132.257812 482.289062 133.050781 481.070312 133.050781 C 479.949219 133.050781 479.203125 132.210938 479.203125 131.179688 C 479.203125 130.101562 479.996094 129.261719 481.117188 129.261719 C 482.289062 129.304688 483.035156 130.101562 483.035156 131.179688 Z M 479.433594 149.25 L 479.433594 135.066406 L 482.894531 135.066406 L 482.894531 149.25 Z M 479.433594 149.25 "/>
<path style=" stroke:none;fill-rule:nonzero;fill:rgb(11.372549%,11.372549%,10.588235%);fill-opacity:1;" d="M 496.128906 149.25 L 495.894531 147.707031 L 495.800781 147.707031 C 495.003906 148.828125 493.648438 149.53125 491.964844 149.53125 C 489.347656 149.53125 487.757812 147.566406 487.757812 145.316406 C 487.757812 141.710938 490.890625 139.980469 495.519531 139.980469 L 495.519531 139.699219 C 495.519531 138.621094 495.097656 137.21875 492.855469 137.21875 C 491.59375 137.21875 490.28125 137.640625 489.394531 138.203125 L 488.738281 135.953125 C 489.675781 135.347656 491.40625 134.785156 493.507812 134.785156 C 497.765625 134.785156 498.980469 137.546875 498.980469 140.636719 L 498.980469 145.925781 C 498.980469 147.144531 499.027344 148.40625 499.167969 149.296875 L 496.128906 149.296875 Z M 495.707031 142.273438 C 493.554688 142.273438 491.21875 142.742188 491.21875 144.988281 C 491.21875 146.441406 492.105469 147.050781 493.089844 147.050781 C 494.304688 147.050781 495.285156 146.253906 495.566406 145.175781 C 495.660156 144.941406 495.660156 144.664062 495.660156 144.429688 L 495.660156 142.273438 Z M 495.707031 142.273438 "/>
<path style=" stroke:none;fill-rule:nonzero;fill:rgb(11.372549%,11.372549%,10.588235%);fill-opacity:1;" d="M 504.871094 128.746094 L 508.332031 128.746094 L 508.332031 149.25 L 504.871094 149.25 Z M 504.871094 128.746094 "/>
<path style=" stroke:none;fill-rule:nonzero;fill:rgb(11.372549%,11.372549%,10.588235%);fill-opacity:1;" d="M 522.171875 145.503906 C 523.199219 146.113281 524.789062 146.628906 526.378906 146.628906 C 528.527344 146.628906 529.746094 145.550781 529.746094 143.960938 C 529.746094 142.460938 528.761719 141.574219 526.566406 140.589844 C 523.667969 139.371094 521.75 137.546875 521.75 134.972656 C 521.75 131.789062 524.273438 129.398438 528.34375 129.398438 C 530.210938 129.398438 531.613281 129.820312 532.503906 130.289062 L 531.707031 133.097656 C 531.054688 132.722656 529.839844 132.257812 528.25 132.257812 C 526.144531 132.257812 525.210938 133.472656 525.210938 134.644531 C 525.210938 136.140625 526.238281 136.84375 528.667969 137.921875 C 531.800781 139.324219 533.25 141.105469 533.25 143.679688 C 533.25 146.957031 530.820312 149.53125 526.238281 149.53125 C 524.367188 149.53125 522.402344 149.015625 521.46875 148.40625 Z M 522.171875 145.503906 "/>
<path style=" stroke:none;fill-rule:nonzero;fill:rgb(11.372549%,11.372549%,10.588235%);fill-opacity:1;" d="M 541.011719 143.117188 C 541.105469 145.878906 542.929688 146.910156 545.035156 146.910156 C 546.484375 146.910156 547.605469 146.675781 548.539062 146.300781 L 549.054688 148.6875 C 547.933594 149.15625 546.34375 149.53125 544.519531 149.53125 C 540.21875 149.53125 537.738281 146.769531 537.738281 142.367188 C 537.738281 138.203125 540.078125 134.785156 544.144531 134.785156 C 548.261719 134.785156 549.757812 138.25 549.757812 141.574219 C 549.757812 142.273438 549.710938 142.789062 549.664062 143.117188 Z M 546.53125 140.683594 C 546.53125 139.089844 545.921875 137.171875 543.910156 137.171875 C 541.949219 137.171875 541.152344 139.183594 541.011719 140.683594 Z M 546.53125 140.683594 "/>
<path style=" stroke:none;fill-rule:nonzero;fill:rgb(11.372549%,11.372549%,10.588235%);fill-opacity:1;" d="M 554.757812 139.464844 C 554.757812 137.734375 554.710938 136.328125 554.664062 135.066406 L 557.65625 135.066406 L 557.796875 137.59375 L 557.890625 137.59375 C 558.546875 135.765625 560.042969 134.785156 561.445312 134.785156 C 561.773438 134.785156 561.960938 134.785156 562.238281 134.832031 L 562.238281 138.109375 C 561.960938 138.0625 561.679688 138.015625 561.304688 138.015625 C 559.808594 138.015625 558.640625 139.042969 558.3125 140.636719 C 558.265625 140.964844 558.21875 141.386719 558.21875 141.804688 L 558.21875 149.203125 L 554.757812 149.203125 Z M 554.757812 139.464844 "/>
<path style=" stroke:none;fill-rule:nonzero;fill:rgb(11.372549%,11.372549%,10.588235%);fill-opacity:1;" d="M 569.722656 135.066406 L 571.730469 142.226562 C 572.058594 143.445312 572.339844 144.617188 572.574219 145.832031 L 572.667969 145.832031 C 572.902344 144.617188 573.179688 143.492188 573.507812 142.226562 L 575.472656 135.066406 L 579.027344 135.066406 L 574.117188 149.25 L 570.796875 149.25 L 565.980469 135.066406 Z M 569.722656 135.066406 "/>
<path style=" stroke:none;fill-rule:nonzero;fill:rgb(11.372549%,11.372549%,10.588235%);fill-opacity:1;" d="M 587.066406 131.179688 C 587.066406 132.257812 586.320312 133.050781 585.105469 133.050781 C 583.980469 133.050781 583.234375 132.210938 583.234375 131.179688 C 583.234375 130.101562 584.027344 129.261719 585.152344 129.261719 C 586.320312 129.304688 587.066406 130.101562 587.066406 131.179688 Z M 583.46875 149.25 L 583.46875 135.066406 L 586.925781 135.066406 L 586.925781 149.25 Z M 583.46875 149.25 "/>
<path style=" stroke:none;fill-rule:nonzero;fill:rgb(11.372549%,11.372549%,10.588235%);fill-opacity:1;" d="M 602.308594 148.875 C 601.65625 149.203125 600.347656 149.53125 598.804688 149.53125 C 594.6875 149.53125 592.023438 146.769531 592.023438 142.320312 C 592.023438 138.0625 594.734375 134.832031 599.363281 134.832031 C 600.535156 134.832031 601.703125 135.113281 602.402344 135.394531 L 601.796875 138.015625 C 601.28125 137.78125 600.535156 137.546875 599.457031 137.546875 C 596.933594 137.546875 595.484375 139.605469 595.484375 142.179688 C 595.484375 145.082031 597.167969 146.769531 599.457031 146.769531 C 600.488281 146.769531 601.234375 146.535156 601.890625 146.253906 Z M 602.308594 148.875 "/>
<path style=" stroke:none;fill-rule:nonzero;fill:rgb(11.372549%,11.372549%,10.588235%);fill-opacity:1;" d="M 609.230469 143.117188 C 609.324219 145.878906 611.148438 146.910156 613.25 146.910156 C 614.699219 146.910156 615.824219 146.675781 616.757812 146.300781 L 617.273438 148.6875 C 616.148438 149.15625 614.558594 149.53125 612.738281 149.53125 C 608.433594 149.53125 605.957031 146.769531 605.957031 142.367188 C 605.957031 138.203125 608.292969 134.785156 612.363281 134.785156 C 616.476562 134.785156 617.972656 138.25 617.972656 141.574219 C 617.972656 142.273438 617.925781 142.789062 617.878906 143.117188 Z M 614.746094 140.683594 C 614.746094 139.089844 614.140625 137.171875 612.128906 137.171875 C 610.164062 137.171875 609.371094 139.183594 609.230469 140.683594 Z M 614.746094 140.683594 "/>
<path style=" stroke:none;fill-rule:nonzero;fill:rgb(11.372549%,11.372549%,10.588235%);fill-opacity:1;" d="M 622.789062 146.066406 C 623.492188 146.488281 624.894531 147.003906 626.0625 147.003906 C 627.511719 147.003906 628.210938 146.347656 628.210938 145.410156 C 628.210938 144.476562 627.699219 143.960938 626.0625 143.257812 C 623.492188 142.226562 622.460938 140.730469 622.460938 139.136719 C 622.460938 136.65625 624.425781 134.785156 627.511719 134.785156 C 628.960938 134.785156 630.175781 135.160156 630.972656 135.578125 L 630.269531 138.015625 C 629.707031 137.6875 628.679688 137.265625 627.605469 137.265625 C 626.390625 137.265625 625.734375 137.921875 625.734375 138.761719 C 625.734375 139.605469 626.296875 140.074219 627.980469 140.777344 C 630.363281 141.757812 631.484375 143.070312 631.484375 145.082031 C 631.484375 147.753906 629.476562 149.484375 626.0625 149.484375 C 624.519531 149.484375 623.070312 149.109375 622.132812 148.546875 Z M 622.789062 146.066406 "/>
<path style=" stroke:none;fill-rule:nonzero;fill:rgb(11.372549%,11.372549%,10.588235%);fill-opacity:1;" d="M 560.605469 111.796875 L 543.957031 111.796875 L 516.839844 66.480469 L 490.1875 111.796875 L 473.496094 111.796875 L 516.839844 37.96875 Z M 560.605469 111.796875 "/>
<path style=" stroke:none;fill-rule:nonzero;fill:rgb(11.372549%,11.372549%,10.588235%);fill-opacity:1;" d="M 273.710938 37.921875 L 290.355469 37.921875 L 290.355469 111.796875 L 273.710938 111.796875 Z M 273.710938 37.921875 "/>
<path style=" stroke:none;fill-rule:nonzero;fill:rgb(11.372549%,11.372549%,10.588235%);fill-opacity:1;" d="M 377.085938 37.921875 L 377.085938 55.195312 L 348.097656 55.195312 L 348.097656 111.796875 L 331.453125 111.796875 L 331.453125 55.195312 L 302.464844 55.195312 L 302.464844 37.921875 Z M 377.085938 37.921875 "/>
<path style=" stroke:none;fill-rule:nonzero;fill:rgb(11.372549%,11.372549%,10.588235%);fill-opacity:1;" d="M 250.84375 69.945312 C 252.109375 67.136719 252.808594 64 252.808594 60.675781 C 252.808594 48.128906 242.664062 37.921875 230.085938 37.921875 L 188.378906 37.921875 L 188.378906 111.75 L 239.015625 111.75 C 251.5 111.75 261.597656 101.636719 261.597656 89.136719 C 261.597656 81.039062 257.296875 73.921875 250.84375 69.945312 Z M 230.085938 54.683594 C 231.722656 54.683594 233.21875 55.335938 234.292969 56.414062 C 235.371094 57.492188 236.023438 58.988281 236.023438 60.628906 C 236.023438 63.90625 233.359375 66.574219 230.085938 66.574219 L 205.117188 66.621094 L 205.117188 54.636719 L 230.085938 54.636719 Z M 239.109375 94.992188 L 205.117188 94.992188 L 205.117188 83.472656 L 239.109375 83.472656 C 240.699219 83.472656 242.148438 84.128906 243.175781 85.160156 C 244.207031 86.1875 244.859375 87.640625 244.859375 89.230469 C 244.859375 92.414062 242.289062 94.992188 239.109375 94.992188 Z M 239.109375 94.992188 "/>
<path style=" stroke:none;fill-rule:nonzero;fill:rgb(11.372549%,11.372549%,10.588235%);fill-opacity:1;" d="M 632 111.75 L 615.308594 111.796875 L 606.84375 97.707031 L 615.214844 83.472656 Z M 632 111.75 "/>
<path style=" stroke:none;fill-rule:nonzero;fill:rgb(11.372549%,11.372549%,10.588235%);fill-opacity:1;" d="M 632 37.96875 L 588.703125 111.796875 L 572.058594 111.796875 L 593.425781 75.140625 L 571.3125 37.96875 L 588.375 38.015625 L 601.984375 60.816406 L 615.402344 37.96875 Z M 632 37.96875 "/>
<path style=" stroke:none;fill-rule:nonzero;fill:rgb(11.372549%,11.372549%,10.588235%);fill-opacity:1;" d="M 462.324219 111.75 L 445.675781 111.75 L 445.675781 83.144531 L 462.324219 54.867188 Z M 462.324219 111.75 "/>
<path style=" stroke:none;fill-rule:nonzero;fill:rgb(11.372549%,11.372549%,10.588235%);fill-opacity:1;" d="M 462.324219 37.921875 L 425.667969 100.65625 L 405.746094 66.433594 L 405.746094 111.796875 L 389.101562 111.796875 L 389.101562 37.921875 L 405.234375 37.921875 L 425.667969 72.191406 L 445.863281 37.921875 Z M 462.324219 37.921875 "/>
<path style=" stroke:none;fill-rule:nonzero;fill:rgb(0%,61.960784%,88.627451%);fill-opacity:1;" d="M 516.746094 84.082031 L 532.738281 111.515625 L 516.746094 106.554688 L 500.710938 111.515625 Z M 516.746094 84.082031 "/>
</g>
</svg>
