<?xml version="1.0" encoding="UTF-8"?>
<svg xmlns="http://www.w3.org/2000/svg" xmlns:xlink="http://www.w3.org/1999/xlink" width="1452px" height="150px" viewBox="0 0 1420 150" version="1.1">
<g id="surface1">
<path style=" stroke:none;fill-rule:nonzero;fill:rgb(13.72549%,16.078431%,20%);fill-opacity:1;" d="M 1128.820312 135.230469 L 1128.820312 147.296875 L 1114.960938 147.296875 L 1114.960938 135.128906 Z M 863.269531 2.703125 L 863.269531 71.609375 L 947.929688 71.609375 L 947.929688 2.703125 L 962.390625 2.703125 L 962.390625 147.097656 L 947.929688 147.097656 L 947.929688 85.96875 L 863.269531 85.96875 L 863.269531 147.097656 L 848.808594 147.097656 L 848.808594 2.703125 Z M 690.554688 2.703125 L 690.554688 147.097656 L 676.09375 147.097656 L 676.09375 85.96875 L 591.433594 85.96875 L 591.433594 147.097656 L 576.976562 146.796875 L 576.976562 45.882812 C 576.976562 17.0625 591.433594 2.703125 620.253906 2.703125 Z M 1098.503906 2.703125 L 1098.503906 147.097656 L 1083.945312 147.097656 L 1083.945312 85.96875 L 999.285156 85.96875 L 999.285156 147.097656 L 984.824219 146.796875 L 984.824219 45.882812 C 984.824219 17.164062 999.285156 2.703125 1028.203125 2.703125 Z M 826.472656 2.703125 L 826.472656 17.0625 L 756.269531 17.0625 C 735.230469 17.0625 727.351562 25.339844 727.351562 45.882812 L 727.351562 104.019531 C 727.351562 124.460938 735.128906 132.738281 756.269531 132.738281 L 812.011719 132.738281 L 812.011719 85.96875 L 783.09375 85.96875 L 783.09375 71.609375 L 826.472656 71.609375 L 826.472656 147.097656 L 756.269531 147.097656 C 733.136719 147.097656 712.890625 137.722656 712.890625 104.019531 L 712.890625 45.882812 C 712.890625 17.0625 727.351562 2.703125 756.269531 2.703125 Z M 1204.707031 71.609375 L 1204.707031 79.089844 L 1168.011719 79.089844 C 1156.941406 79.089844 1152.953125 83.476562 1152.953125 94.046875 L 1152.953125 124.558594 C 1152.953125 135.230469 1157.039062 139.519531 1168.011719 139.519531 L 1204.707031 139.519531 L 1204.707031 147.097656 L 1168.011719 147.097656 C 1155.945312 147.097656 1145.375 142.210938 1145.375 124.558594 L 1145.375 94.144531 C 1145.375 79.089844 1152.953125 71.511719 1168.011719 71.511719 Z M 1293.855469 71.609375 L 1293.855469 124.660156 C 1293.855469 142.308594 1283.285156 147.195312 1271.121094 147.195312 L 1242.300781 147.195312 C 1230.234375 147.195312 1219.566406 142.308594 1219.566406 124.660156 L 1219.566406 94.144531 C 1219.566406 79.089844 1227.144531 71.511719 1242.300781 71.511719 Z M 1381.90625 71.609375 L 1420.101562 71.609375 L 1420.101562 147.097656 L 1412.519531 147.097656 L 1412.519531 79.1875 L 1383.402344 79.1875 C 1372.335938 79.1875 1368.34375 83.476562 1368.34375 94.144531 L 1368.34375 147.097656 L 1360.765625 147.097656 L 1360.765625 79.1875 L 1331.550781 79.1875 C 1320.480469 79.1875 1316.492188 83.476562 1316.492188 94.144531 L 1316.492188 147.097656 L 1308.914062 146.996094 L 1308.914062 94.246094 C 1308.914062 79.1875 1316.492188 71.609375 1331.550781 71.609375 L 1368.34375 71.609375 L 1368.34375 75.699219 C 1372.832031 72.804688 1378.117188 71.410156 1383.402344 71.609375 Z M 1266.234375 79.089844 L 1242.101562 79.089844 C 1231.03125 79.089844 1227.042969 83.476562 1227.042969 94.046875 L 1227.042969 124.558594 C 1227.042969 135.230469 1231.132812 139.519531 1242.101562 139.519531 L 1270.921875 139.519531 C 1281.988281 139.519531 1285.976562 135.128906 1285.976562 124.558594 L 1285.976562 79.1875 L 1266.035156 79.1875 Z M 676.09375 17.0625 L 620.253906 17.0625 C 599.210938 17.0625 591.335938 25.339844 591.335938 45.882812 L 591.335938 71.609375 L 675.996094 71.609375 Z M 1083.847656 17.0625 L 1027.90625 17.0625 C 1006.765625 17.0625 998.984375 25.339844 998.984375 45.882812 L 998.984375 71.609375 L 1083.746094 71.609375 L 1083.746094 17.0625 Z M 1083.847656 17.0625 "/>
<path style=" stroke:none;fill-rule:evenodd;fill:rgb(88.627451%,31.372549%,59.607843%);fill-opacity:1;" d="M 510.261719 2.703125 C 537.886719 2.703125 554.339844 17.261719 554.636719 45.78125 L 554.636719 85.96875 L 455.019531 85.96875 L 455.019531 147.097656 L 432.78125 147.097656 L 432.78125 2.703125 Z M 166.53125 2.703125 L 166.53125 63.832031 L 244.011719 63.832031 L 244.011719 2.703125 L 266.25 2.703125 L 266.25 147.097656 L 244.011719 147.097656 L 244.011719 85.96875 L 166.53125 85.96875 L 166.53125 147.097656 L 144.292969 147.097656 L 144.292969 2.703125 Z M 121.957031 2.703125 L 121.957031 24.839844 L 44.476562 24.839844 C 30.714844 24.839844 22.238281 33.816406 22.238281 46.980469 L 22.238281 102.921875 C 22.238281 116.085938 30.8125 125.058594 44.476562 125.058594 L 121.957031 125.058594 L 121.957031 147.195312 L 44.476562 147.195312 C 16.554688 147.097656 0 132.238281 0 102.921875 L 0 46.980469 C 0 17.660156 16.554688 2.703125 44.476562 2.703125 Z M 410.445312 2.703125 L 410.445312 147.097656 L 388.207031 147.097656 L 388.207031 85.96875 L 310.726562 85.96875 L 310.726562 147.097656 L 288.488281 147.097656 L 288.488281 45.78125 C 288.984375 17.261719 305.441406 2.703125 332.960938 2.703125 Z M 510.164062 24.742188 L 454.917969 24.742188 L 455.019531 63.832031 L 532.398438 63.832031 L 532.398438 46.878906 C 532.398438 33.816406 523.925781 24.742188 510.164062 24.742188 Z M 388.304688 24.742188 L 333.0625 24.742188 C 319.398438 24.742188 310.824219 33.714844 310.824219 46.878906 L 310.824219 63.832031 L 388.304688 63.832031 Z M 388.304688 24.742188 "/>
</g>
</svg>
