<?xml version="1.0" encoding="UTF-8"?>
<svg xmlns="http://www.w3.org/2000/svg" xmlns:xlink="http://www.w3.org/1999/xlink" width="625px" height="150px" viewBox="0 0 626 150" version="1.1">
<g id="surface1">
<path style=" stroke:none;fill-rule:nonzero;fill:rgb(26.666667%,78.431373%,96.078431%);fill-opacity:1;" d="M 146.472656 76.773438 C 144.195312 58.894531 127.601562 46.273438 109.472656 48.511719 C 106.714844 48.859375 104 49.5625 101.371094 50.570312 C 99.050781 51.578125 96.816406 52.761719 94.671875 54.074219 C 94.671875 54.074219 95.066406 52.980469 95.242188 52.542969 C 98.742188 43.910156 100.015625 34.617188 99.050781 25.371094 C 98.4375 18.492188 92.21875 13.367188 85.214844 13.980469 C 83.417969 14.152344 81.621094 14.722656 80.046875 15.601562 C 75.667969 17.921875 73.039062 22.480469 73.171875 27.386719 C 73.347656 30.367188 73.257812 33.390625 72.910156 36.371094 C 71.246094 47.019531 62.09375 54.996094 51.144531 55.300781 C 40.550781 55.695312 31.089844 48.859375 28.246094 38.78125 C 27.367188 34.882812 27.105469 30.894531 27.367188 26.90625 C 27.5 20.507812 22.683594 15.03125 16.246094 14.242188 C 9.328125 13.144531 2.804688 17.792969 1.710938 24.582031 C 1.710938 24.628906 1.710938 24.628906 1.710938 24.671875 C 0.964844 30.015625 1.097656 35.496094 2.148438 40.796875 C 5.867188 59.332031 16.773438 71.910156 34.769531 78.308594 C 35.644531 78.617188 37.089844 79.097656 37.089844 79.097656 L 37.089844 81.507812 C 36.914062 89.4375 36.957031 97.371094 37.089844 105.347656 C 37.089844 108.019531 37.308594 110.734375 37.789062 113.367188 C 41.601562 134.574219 60.296875 150.042969 82.148438 150 C 89.765625 150.042969 97.253906 148.070312 103.824219 144.347656 C 116.347656 137.511719 124.753906 125.066406 126.285156 111.042969 C 140.125 105.433594 148.445312 91.367188 146.472656 76.773438 Z M 12.699219 39.042969 C 12.304688 36.589844 12.128906 34.050781 12.21875 31.507812 C 12.21875 30.148438 12.21875 28.789062 12.21875 27.433594 C 12.21875 25.679688 13.09375 24.628906 14.496094 24.628906 C 15.941406 24.671875 16.640625 25.679688 16.726562 27.386719 C 16.816406 30.675781 16.597656 33.917969 16.992188 37.160156 C 19.617188 55.300781 36.652344 67.878906 55.042969 65.292969 C 69.535156 63.234375 81.054688 52.191406 83.460938 37.992188 C 83.898438 34.398438 84.03125 30.761719 83.855469 27.125 C 83.722656 25.984375 84.46875 24.933594 85.605469 24.671875 C 86.527344 24.410156 87.492188 24.714844 88.015625 25.503906 C 88.277344 25.8125 88.453125 26.25 88.453125 26.6875 C 88.714844 34.179688 88.453125 41.628906 84.863281 48.554688 C 78.601562 60.867188 68.617188 68.40625 54.605469 69.984375 C 34.507812 72.347656 16.027344 58.71875 12.699219 39.042969 Z M 99.355469 112.53125 C 95.636719 122.085938 84.820312 126.820312 75.140625 123.179688 C 68.707031 120.769531 64.105469 115.03125 63.230469 108.28125 C 63.144531 107.449219 63.101562 106.574219 63.144531 105.695312 C 63.144531 96.890625 63.144531 88.082031 63.144531 79.183594 C 70.148438 77.300781 76.71875 74.015625 82.410156 69.5 C 81.972656 71.253906 81.449219 73.179688 81.097656 74.976562 C 78.382812 88.914062 84.117188 102.496094 100.015625 110.78125 Z M 99.355469 112.53125 "/>
<path style=" stroke:none;fill-rule:nonzero;fill:rgb(1.176471%,22.352941%,75.686275%);fill-opacity:1;" d="M 35.863281 0 C 39.585938 -0.0429688 42.652344 2.9375 42.695312 6.617188 C 42.695312 6.660156 42.695312 6.75 42.695312 6.792969 C 42.652344 10.5625 39.542969 13.539062 35.734375 13.539062 C 31.921875 13.496094 28.902344 10.429688 28.902344 6.660156 C 28.945312 2.980469 32.011719 -0.0429688 35.820312 0 C 35.820312 0 35.863281 0 35.863281 0 Z M 35.863281 0 "/>
<path style=" stroke:none;fill-rule:nonzero;fill:rgb(1.176471%,22.352941%,75.686275%);fill-opacity:1;" d="M 64.414062 0 C 68.136719 0 71.199219 2.980469 71.199219 6.660156 C 71.199219 6.703125 71.199219 6.792969 71.199219 6.835938 C 71.15625 10.5625 68.003906 13.585938 64.238281 13.539062 C 60.429688 13.496094 57.40625 10.386719 57.453125 6.660156 C 57.453125 2.9375 60.515625 -0.0429688 64.28125 0 C 64.328125 0 64.371094 0 64.414062 0 Z M 64.414062 0 "/>
<path style=" stroke:none;fill-rule:nonzero;fill:rgb(1.176471%,22.352941%,75.686275%);fill-opacity:1;" d="M 12.21875 31.507812 C 12.21875 30.148438 12.21875 28.789062 12.21875 27.433594 C 12.21875 25.679688 13.09375 24.628906 14.496094 24.628906 C 15.941406 24.671875 16.640625 25.679688 16.726562 27.386719 C 16.816406 30.675781 16.597656 33.917969 16.992188 37.160156 C 19.617188 55.300781 36.652344 67.878906 55.042969 65.292969 C 69.535156 63.234375 81.054688 52.191406 83.460938 37.992188 C 83.898438 34.398438 84.03125 30.761719 83.855469 27.125 C 83.722656 25.984375 84.46875 24.933594 85.605469 24.671875 C 86.527344 24.410156 87.492188 24.714844 88.015625 25.503906 C 88.277344 25.8125 88.453125 26.25 88.453125 26.6875 C 88.714844 34.179688 88.453125 41.628906 84.863281 48.554688 C 78.601562 60.867188 68.617188 68.40625 54.605469 69.984375 C 34.507812 72.347656 16.027344 58.71875 12.699219 39.042969 C 12.304688 36.589844 12.128906 34.050781 12.21875 31.507812 Z M 12.21875 31.507812 "/>
<path style=" stroke:none;fill-rule:nonzero;fill:rgb(1.176471%,22.352941%,75.686275%);fill-opacity:1;" d="M 111.96875 57.84375 C 99.183594 58.808594 89.59375 69.851562 90.597656 82.472656 C 91.476562 93.25 99.839844 101.972656 110.742188 103.417969 C 110.742188 103.417969 110.742188 107.757812 110.742188 107.929688 C 109.515625 123.882812 95.371094 135.847656 79.125 134.617188 C 76.28125 134.398438 73.476562 133.785156 70.808594 132.777344 C 59.203125 128.132812 51.628906 116.957031 51.714844 104.601562 C 51.714844 98.203125 51.714844 91.804688 51.714844 85.40625 C 51.714844 84.179688 51.453125 83.171875 50.140625 82.820312 C 48.476562 82.382812 47.25 83.390625 47.25 85.230469 C 47.25 89 47.25 92.8125 47.25 97.414062 C 47.25 102.015625 46.898438 106.96875 47.863281 112.183594 C 51.320312 130.367188 69.054688 142.332031 87.492188 138.957031 C 103.253906 136.066406 114.8125 122.699219 115.207031 106.921875 L 115.207031 103.417969 C 127.117188 102.410156 136.226562 92.507812 136.140625 80.71875 C 136.140625 68.054688 125.71875 57.800781 112.886719 57.84375 C 112.582031 57.84375 112.273438 57.84375 111.96875 57.84375 Z M 115.296875 99.429688 L 115.296875 86.765625 C 118.667969 85.539062 120.332031 81.859375 119.105469 78.527344 C 117.835938 75.242188 114.113281 73.53125 110.742188 74.804688 C 107.371094 76.03125 105.707031 79.710938 106.933594 83.042969 C 107.589844 84.75 108.992188 86.152344 110.742188 86.765625 L 110.742188 99.253906 C 100.320312 97.765625 93.09375 88.257812 94.628906 78 C 96.117188 67.746094 105.792969 60.648438 116.214844 62.09375 C 126.636719 63.585938 133.863281 73.09375 132.328125 83.347656 C 131.058594 91.894531 124.054688 98.511719 115.296875 99.34375 Z M 115.296875 99.429688 "/>
<path style=" stroke:none;fill-rule:nonzero;fill:rgb(1.176471%,22.352941%,75.686275%);fill-opacity:1;" d="M 200.289062 54.425781 C 200.289062 55.695312 200.15625 56.703125 200.15625 57.667969 C 200.15625 65.730469 200.15625 73.792969 200.15625 81.859375 C 200.421875 84.835938 198.40625 87.554688 195.472656 88.167969 C 192.1875 89.042969 188.816406 87.117188 187.898438 83.875 C 187.632812 82.996094 187.546875 82.078125 187.546875 81.15625 C 187.546875 68.929688 187.546875 56.660156 187.546875 44.390625 C 187.546875 43.734375 187.679688 43.078125 187.722656 42.332031 C 188.421875 42.332031 188.992188 42.15625 189.515625 42.15625 C 196.347656 42.15625 203.179688 42.070312 209.964844 42.15625 C 225.160156 42.507812 238.296875 52.671875 242.152344 67.179688 C 245.304688 77.914062 242.5 89.484375 234.839844 97.722656 C 228.664062 104.863281 219.644531 109.070312 210.097656 109.203125 C 204.710938 109.378906 199.371094 109.203125 193.984375 109.203125 C 191.53125 109.378906 189.210938 108.019531 188.160156 105.828125 C 186.582031 102.890625 187.679688 99.300781 190.65625 97.722656 C 191.488281 97.28125 192.449219 97.019531 193.414062 97.019531 C 197.574219 96.84375 201.777344 97.019531 205.9375 97.019531 C 208.347656 97.0625 210.710938 96.933594 213.074219 96.496094 C 222.007812 94.433594 228.136719 89.042969 230.019531 80.015625 C 232.035156 71.824219 228.75 63.277344 221.703125 58.5 C 218.375 55.960938 214.300781 54.511719 210.097656 54.382812 C 206.902344 54.339844 203.835938 54.425781 200.289062 54.425781 Z M 200.289062 54.425781 "/>
<path style=" stroke:none;fill-rule:nonzero;fill:rgb(1.176471%,22.352941%,75.686275%);fill-opacity:1;" d="M 599.199219 59.160156 C 613.257812 59.113281 624.730469 70.332031 624.730469 84.222656 C 624.730469 98.117188 613.386719 109.378906 599.289062 109.378906 C 598.9375 109.378906 598.632812 109.378906 598.28125 109.378906 C 584.09375 109.070312 572.707031 97.675781 572.664062 83.699219 C 573.320312 69.761719 585.101562 58.894531 599.199219 59.160156 Z M 611.988281 84.398438 C 612.117188 77.34375 606.425781 71.472656 599.242188 71.339844 C 599.070312 71.339844 598.9375 71.339844 598.761719 71.339844 C 592.632812 71.339844 585.40625 76.46875 585.40625 84.179688 C 585.625 91.28125 591.449219 97.019531 598.675781 97.152344 C 605.855469 97.328125 611.855469 91.675781 611.988281 84.574219 C 611.941406 84.53125 611.988281 84.488281 611.988281 84.398438 Z M 611.988281 84.398438 "/>
<path style=" stroke:none;fill-rule:nonzero;fill:rgb(1.176471%,22.352941%,75.686275%);fill-opacity:1;" d="M 418.398438 109.246094 C 404.078125 109.113281 392.605469 97.589844 392.738281 83.480469 C 392.738281 83.480469 392.738281 83.4375 392.738281 83.4375 C 393.527344 69.675781 405.128906 58.941406 419.144531 59.070312 C 432.628906 59.246094 445.066406 70.113281 444.804688 84.707031 C 444.363281 98.640625 432.585938 109.597656 418.398438 109.246094 Z M 405.394531 84.269531 C 405.394531 91.5 411.347656 97.371094 418.703125 97.371094 C 426.0625 97.371094 432.015625 91.5 432.015625 84.269531 C 432.015625 77.039062 426.0625 71.164062 418.703125 71.164062 C 411.347656 71.164062 405.394531 77.039062 405.394531 84.269531 Z M 405.394531 84.269531 "/>
<path style=" stroke:none;fill-rule:nonzero;fill:rgb(1.176471%,22.352941%,75.686275%);fill-opacity:1;" d="M 275.429688 109.332031 C 261.375 108.894531 250.339844 97.328125 250.734375 83.480469 C 251.171875 69.632812 262.90625 58.71875 276.960938 59.160156 C 290.84375 59.554688 301.835938 70.859375 301.660156 84.574219 C 301.441406 98.464844 289.878906 109.554688 275.78125 109.332031 C 275.691406 109.332031 275.5625 109.332031 275.429688 109.332031 Z M 289.179688 84.398438 C 289.003906 77.300781 283.222656 71.558594 276 71.339844 C 268.773438 70.992188 262.644531 76.511719 262.292969 83.609375 C 261.941406 90.753906 267.546875 96.800781 274.773438 97.109375 C 275.078125 97.109375 275.386719 97.109375 275.691406 97.109375 C 282.875 97.109375 288.785156 91.5 289.179688 84.398438 Z M 289.179688 84.398438 "/>
<path style=" stroke:none;fill-rule:nonzero;fill:rgb(1.176471%,22.352941%,75.686275%);fill-opacity:1;" d="M 512.0625 71.910156 C 510.089844 71.164062 507.945312 70.992188 505.929688 71.472656 C 498.835938 72.785156 494.195312 79.492188 495.507812 86.460938 C 496.515625 91.894531 500.984375 96.101562 506.542969 96.84375 C 510.484375 97.503906 514.46875 96.320312 517.402344 93.644531 C 518.71875 92.332031 520.511719 91.585938 522.394531 91.542969 C 524.761719 91.410156 526.992188 92.726562 528 94.828125 C 529.226562 96.933594 528.921875 99.605469 527.300781 101.402344 C 526.292969 102.542969 525.152344 103.550781 523.882812 104.425781 C 512.0625 112.753906 495.640625 110.078125 487.144531 98.464844 C 486.664062 97.808594 486.183594 97.109375 485.789062 96.363281 C 479.832031 85.933594 482.242188 72.785156 491.570312 65.074219 C 499.101562 58.632812 509.785156 57.054688 518.890625 61.128906 C 521.738281 62.226562 524.367188 63.933594 526.554688 66.039062 C 529.140625 68.1875 529.488281 72 527.34375 74.539062 C 527.167969 74.757812 526.949219 74.976562 526.730469 75.152344 C 522.527344 79.316406 518.234375 83.390625 513.988281 87.46875 C 511.359375 89.65625 507.464844 89.570312 504.925781 87.292969 C 502.648438 84.707031 502.820312 80.851562 505.273438 78.484375 C 507.070312 76.992188 508.601562 75.371094 510.265625 73.792969 C 510.792969 73.3125 511.230469 72.742188 512.0625 71.910156 Z M 512.0625 71.910156 "/>
<path style=" stroke:none;fill-rule:nonzero;fill:rgb(1.176471%,22.352941%,75.686275%);fill-opacity:1;" d="M 334.414062 109.683594 C 322.722656 109.597656 311.863281 101.488281 309.101562 90.710938 C 305.554688 77.214844 313.746094 63.453125 327.449219 59.949219 C 330.207031 59.246094 333.097656 58.984375 335.945312 59.203125 C 340.28125 59.464844 344.484375 60.78125 348.160156 63.015625 C 349.78125 63.847656 350.875 65.382812 351.269531 67.132812 C 351.882812 69.5 350.964844 71.953125 348.949219 73.402344 C 346.847656 74.804688 344.132812 74.976562 341.898438 73.792969 C 340.234375 72.960938 338.527344 72.261719 336.734375 71.691406 C 329.683594 70.289062 322.808594 74.847656 321.40625 81.769531 C 320.007812 88.738281 324.605469 95.488281 331.652344 96.890625 C 334.9375 97.546875 338.308594 96.933594 341.15625 95.179688 C 342.03125 94.652344 342.953125 94.214844 343.871094 93.863281 C 346.671875 92.988281 349.695312 94.171875 351.140625 96.714844 C 352.671875 99.300781 352.015625 102.585938 349.5625 104.425781 C 347.636719 105.828125 345.535156 106.96875 343.300781 107.757812 C 340.410156 108.5 337.433594 109.160156 334.414062 109.683594 Z M 334.414062 109.683594 "/>
<path style=" stroke:none;fill-rule:nonzero;fill:rgb(1.176471%,22.352941%,75.686275%);fill-opacity:1;" d="M 551.339844 58.5 C 554.929688 58.5 558.039062 58.5 561.148438 58.5 C 562.332031 58.457031 563.554688 58.589844 564.738281 58.808594 C 568.066406 59.464844 570.210938 62.664062 569.511719 65.949219 C 568.941406 68.710938 566.492188 70.726562 563.601562 70.769531 C 560.097656 70.769531 556.59375 70.769531 553.136719 70.769531 C 552.695312 70.769531 552.304688 70.859375 551.558594 70.945312 C 551.558594 71.824219 551.382812 72.699219 551.382812 73.574219 C 551.382812 77.871094 551.515625 82.121094 551.382812 86.414062 C 551.164062 92.332031 554.972656 96.757812 560.886719 96.976562 C 561.980469 97.019531 563.074219 97.328125 564.039062 97.808594 C 566.402344 99.167969 567.542969 101.929688 566.796875 104.558594 C 566.183594 107.1875 563.820312 109.070312 561.0625 109.070312 C 550.59375 109.421875 541.398438 102.324219 539.296875 92.242188 C 538.949219 90.492188 538.816406 88.738281 538.816406 86.941406 C 538.816406 73.925781 538.816406 60.910156 538.816406 47.898438 C 538.816406 47.328125 538.816406 46.714844 538.816406 46.144531 C 538.992188 42.945312 541.664062 40.402344 544.902344 40.359375 C 548.273438 40.226562 551.121094 42.769531 551.296875 46.101562 C 551.296875 46.230469 551.296875 46.363281 551.296875 46.496094 C 551.296875 49.429688 551.296875 52.367188 551.296875 55.300781 Z M 551.339844 58.5 "/>
<path style=" stroke:none;fill-rule:nonzero;fill:rgb(1.176471%,22.352941%,75.686275%);fill-opacity:1;" d="M 370.363281 70.816406 C 370.449219 77.386719 369.882812 83.609375 370.667969 89.746094 C 371.238281 93.558594 374.390625 96.496094 378.289062 96.800781 C 379.515625 96.890625 380.695312 97.109375 381.878906 97.414062 C 384.679688 98.335938 386.390625 101.09375 385.863281 103.988281 C 385.425781 106.96875 382.886719 109.160156 379.863281 109.289062 C 371.238281 109.554688 363.3125 104.6875 359.722656 96.976562 C 358.410156 94.214844 357.75 91.191406 357.75 88.167969 C 357.75 74.496094 357.75 60.824219 357.75 47.152344 C 357.488281 44.480469 359.023438 41.9375 361.5625 40.886719 C 364.84375 39.570312 368.566406 41.105469 369.925781 44.347656 C 370.230469 45.09375 370.40625 45.878906 370.40625 46.714844 C 370.539062 49.648438 370.40625 52.585938 370.40625 55.519531 C 370.40625 56.441406 370.492188 57.273438 370.539062 58.5 C 372.945312 58.5 375.136719 58.5 377.324219 58.5 C 379.382812 58.5 381.398438 58.589844 383.410156 58.808594 C 386.519531 59.203125 388.753906 61.917969 388.535156 64.988281 C 388.402344 68.140625 385.777344 70.683594 382.578125 70.726562 C 379.515625 70.816406 376.449219 70.726562 373.382812 70.726562 Z M 370.363281 70.816406 "/>
<path style=" stroke:none;fill-rule:nonzero;fill:rgb(1.176471%,22.352941%,75.686275%);fill-opacity:1;" d="M 463.324219 62.007812 C 466.566406 60.605469 470.070312 59.902344 473.617188 59.902344 C 475.324219 59.859375 476.988281 60.605469 478.125 61.875 C 479.746094 63.320312 480.359375 65.601562 479.613281 67.660156 C 478.871094 70.027344 476.769531 71.734375 474.226562 72 C 471.382812 72.042969 468.667969 73.179688 466.695312 75.195312 C 465.121094 76.730469 464.199219 78.835938 464.246094 81.027344 C 464.246094 87.90625 464.246094 94.785156 464.246094 101.664062 C 464.246094 102.671875 464.15625 103.679688 463.9375 104.644531 C 463.238281 107.539062 460.433594 109.464844 457.414062 109.113281 C 454.4375 108.851562 452.027344 106.574219 451.632812 103.636719 C 451.589844 102.980469 451.589844 102.277344 451.632812 101.621094 L 451.632812 66.914062 C 451.414062 65.164062 451.941406 63.367188 452.992188 61.964844 C 455.003906 59.246094 458.902344 58.632812 461.703125 60.648438 C 461.878906 60.78125 462.097656 60.957031 462.230469 61.085938 C 462.535156 61.304688 462.800781 61.65625 463.324219 62.007812 Z M 463.324219 62.007812 "/>
</g>
</svg>
