<?xml version="1.0" encoding="UTF-8"?>
<svg xmlns="http://www.w3.org/2000/svg" xmlns:xlink="http://www.w3.org/1999/xlink" width="174px" height="150px" viewBox="0 0 173 150" version="1.1">
<g id="surface1">
<path style=" stroke:none;fill-rule:nonzero;fill:rgb(22.745098%,40.392157%,69.019608%);fill-opacity:1;" d="M 127.183594 41.964844 C 123.367188 41.964844 119.707031 41.964844 116.046875 41.964844 C 112.230469 41.964844 108.414062 41.964844 104.601562 41.964844 C 104.101562 41.964844 103.816406 41.804688 103.527344 41.414062 C 101.984375 39.445312 100.46875 37.449219 98.796875 35.585938 C 95.085938 31.414062 90.5625 28.265625 85.546875 25.878906 C 82.070312 24.25 78.410156 23.121094 74.621094 22.335938 C 70.726562 21.546875 66.78125 21.496094 62.859375 21.679688 C 58.46875 21.890625 54.234375 22.9375 50.105469 24.488281 C 46.054688 26.035156 42.316406 28.109375 38.890625 30.757812 C 35.964844 33.015625 33.375 35.585938 31.050781 38.472656 C 28.226562 41.964844 26.03125 45.792969 24.359375 49.941406 C 23.15625 52.90625 22.375 56.003906 21.796875 59.152344 C 21.144531 62.796875 21.117188 66.472656 21.355469 70.09375 C 21.5625 73.085938 22.242188 76.074219 22.921875 79.015625 C 23.652344 82.136719 24.960938 85.078125 26.476562 87.910156 C 27.941406 90.664062 29.613281 93.289062 31.730469 95.597656 C 33.246094 97.25 34.683594 99.011719 36.410156 100.425781 C 38.789062 102.394531 41.324219 104.207031 43.960938 105.832031 C 47.753906 108.167969 51.933594 109.664062 56.300781 110.609375 C 57.945312 110.949219 59.617188 111.34375 61.316406 111.421875 C 65.160156 111.578125 68.976562 111.578125 72.816406 111.632812 C 72.972656 111.632812 73.105469 111.65625 73.3125 111.65625 C 73.3125 118.636719 73.3125 125.589844 73.3125 132.625 C 70.933594 132.625 68.609375 132.675781 66.257812 132.625 C 60.742188 132.464844 55.226562 132.203125 49.871094 130.707031 C 27.417969 124.488281 12.023438 110.425781 3.84375 88.539062 C 0.992188 80.929688 -0.339844 72.953125 0.078125 64.84375 C 1.386719 39.601562 12.988281 20.605469 34.945312 8.167969 C 42.785156 3.730469 51.308594 1.394531 60.273438 0.582031 C 88.265625 -1.960938 115.523438 13.992188 126.816406 40.941406 C 126.945312 41.253906 127.023438 41.542969 127.183594 41.964844 Z M 127.183594 41.964844 "/>
<path style=" stroke:none;fill-rule:nonzero;fill:rgb(32.941176%,24.705882%,59.607843%);fill-opacity:1;" d="M 113.746094 63.140625 C 112.832031 61.328125 111.945312 59.542969 110.976562 57.628906 C 111.394531 57.601562 111.683594 57.578125 111.96875 57.578125 C 118.816406 57.578125 125.691406 57.578125 132.539062 57.550781 C 133.167969 57.550781 133.480469 57.734375 133.769531 58.285156 C 136.328125 63.21875 138.945312 68.125 141.53125 73.03125 C 141.660156 73.292969 141.820312 73.558594 142 73.871094 C 143.675781 70.722656 145.292969 67.625 146.914062 64.53125 C 148.039062 62.378906 149.164062 60.253906 150.3125 58.128906 C 150.445312 57.863281 150.808594 57.578125 151.070312 57.578125 C 158.3125 57.550781 165.550781 57.550781 173 57.550781 C 172.816406 57.945312 172.660156 58.257812 172.53125 58.546875 C 166.335938 70.566406 160.167969 82.609375 153.945312 94.601562 C 153.554688 95.363281 153.582031 95.914062 153.972656 96.648438 C 160.167969 108.351562 166.335938 120.082031 172.53125 131.808594 C 172.660156 132.074219 172.789062 132.335938 172.972656 132.703125 C 172.660156 132.730469 172.449219 132.78125 172.242188 132.78125 C 164.976562 132.78125 157.683594 132.78125 150.417969 132.808594 C 149.867188 132.808594 149.582031 132.648438 149.320312 132.152344 C 147.046875 127.691406 144.746094 123.230469 142.445312 118.769531 C 142.316406 118.507812 142.160156 118.242188 141.976562 117.875 C 141.503906 118.769531 141.0625 119.609375 140.640625 120.449219 C 138.628906 124.359375 136.617188 128.242188 134.632812 132.152344 C 134.421875 132.542969 134.265625 132.808594 133.714844 132.808594 C 126.292969 132.78125 118.871094 132.78125 111.449219 132.753906 C 111.34375 132.753906 111.238281 132.730469 111.003906 132.703125 C 111.160156 132.359375 111.265625 132.097656 111.394531 131.835938 C 117.589844 120.082031 123.785156 108.324219 130.003906 96.597656 C 130.398438 95.859375 130.421875 95.308594 130.03125 94.550781 C 127.496094 89.695312 125.039062 84.839844 122.554688 79.984375 C 123.367188 78.386719 124.125 76.785156 124.960938 75.183594 C 126.738281 71.773438 128.542969 68.359375 130.320312 64.949219 C 130.605469 64.371094 130.894531 63.796875 131.257812 63.035156 C 125.273438 63.140625 119.523438 63.140625 113.746094 63.140625 Z M 113.746094 63.140625 "/>
<path style=" stroke:none;fill-rule:nonzero;fill:rgb(22.745098%,40.392157%,69.019608%);fill-opacity:1;" d="M 113.746094 63.140625 C 119.523438 63.140625 125.273438 63.140625 131.234375 63.140625 C 130.867188 63.898438 130.578125 64.476562 130.292969 65.054688 C 128.515625 68.464844 126.710938 71.878906 124.933594 75.289062 C 124.125 76.863281 123.339844 78.488281 122.53125 80.089844 C 122.320312 80.40625 122.085938 80.71875 121.902344 81.0625 C 113.042969 97.960938 104.207031 114.859375 95.347656 131.757812 C 95.214844 131.992188 95.085938 132.203125 94.824219 132.414062 C 94.824219 132.097656 94.824219 131.785156 94.824219 131.496094 C 94.824219 116.589844 94.824219 101.6875 94.824219 86.78125 C 94.824219 85.96875 94.617188 85.523438 93.859375 85.128906 C 80.292969 77.992188 66.753906 70.855469 53.214844 63.691406 C 52.980469 63.558594 52.769531 63.453125 52.300781 63.191406 C 52.902344 63.191406 53.214844 63.191406 53.527344 63.191406 C 73.183594 63.191406 92.8125 63.191406 112.46875 63.191406 C 112.910156 63.140625 113.328125 63.140625 113.746094 63.140625 Z M 113.746094 63.140625 "/>
<path style=" stroke:none;fill-rule:nonzero;fill:rgb(26.27451%,37.254902%,66.666667%);fill-opacity:1;" d="M 119.550781 139.601562 C 118.53125 141.753906 117.511719 143.878906 116.519531 146.03125 C 116.152344 146.792969 115.839844 147.554688 115.445312 148.289062 C 115.289062 148.550781 115.003906 148.917969 114.765625 148.917969 C 114.53125 148.917969 114.191406 148.578125 114.0625 148.316406 C 112.726562 145.507812 111.394531 142.699219 110.089844 139.890625 C 110.035156 139.789062 109.984375 139.683594 109.828125 139.394531 C 109.800781 139.789062 109.75 139.996094 109.75 140.207031 C 109.75 143.015625 109.75 145.824219 109.75 148.65625 C 109.75 149.128906 109.722656 149.523438 109.042969 149.285156 C 109.042969 145.507812 109.042969 141.730469 109.042969 137.949219 C 109.722656 137.6875 110.0625 137.949219 110.351562 138.582031 C 111.605469 141.386719 112.910156 144.167969 114.21875 146.949219 C 114.375 147.265625 114.53125 147.582031 114.765625 148.054688 C 115.785156 145.847656 116.753906 143.800781 117.71875 141.753906 C 118.21875 140.707031 118.6875 139.628906 119.183594 138.582031 C 119.523438 137.84375 119.523438 137.84375 120.4375 137.898438 C 120.464844 138.054688 120.492188 138.238281 120.492188 138.394531 C 120.492188 141.808594 120.492188 145.21875 120.492188 148.628906 C 120.492188 149.078125 120.515625 149.523438 119.757812 149.285156 C 119.757812 146.085938 119.757812 142.855469 119.757812 139.628906 C 119.65625 139.628906 119.601562 139.628906 119.550781 139.601562 Z M 119.550781 139.601562 "/>
<path style=" stroke:none;fill-rule:nonzero;fill:rgb(29.411765%,42.352941%,69.803922%);fill-opacity:1;" d="M 106.324219 143.328125 C 106.402344 145.535156 105.617188 147.214844 104 148.5 C 102.402344 149.730469 100.574219 150.019531 98.691406 149.261719 C 96.210938 148.261719 94.695312 145.480469 95.085938 142.777344 C 95.503906 139.972656 97.515625 137.949219 100.234375 137.609375 C 102.324219 137.347656 104.730469 138.738281 105.617188 140.730469 C 105.699219 140.914062 105.59375 141.179688 105.566406 141.386719 C 105.382812 141.257812 105.121094 141.179688 105.019531 140.996094 C 104.207031 139.601562 103.082031 138.632812 101.464844 138.394531 C 98.980469 138.027344 96.785156 139.550781 96.054688 142.042969 C 95.296875 144.640625 96.496094 147.398438 98.851562 148.472656 C 101.882812 149.863281 105.488281 147.527344 105.539062 144.0625 C 103.921875 144.0625 102.300781 144.0625 100.679688 144.0625 C 100.628906 143.984375 100.546875 143.878906 100.496094 143.800781 C 100.679688 143.644531 100.863281 143.328125 101.046875 143.328125 C 102.742188 143.304688 104.46875 143.328125 106.324219 143.328125 Z M 106.324219 143.328125 "/>
<path style=" stroke:none;fill-rule:nonzero;fill:rgb(33.333333%,28.235294%,61.176471%);fill-opacity:1;" d="M 163.144531 142.804688 C 163.144531 140.96875 163.144531 139.183594 163.144531 137.425781 C 163.226562 137.375 163.304688 137.320312 163.382812 137.242188 C 163.566406 137.425781 163.878906 137.609375 163.878906 137.792969 C 163.90625 141.625 163.90625 145.453125 163.90625 149.445312 C 162.726562 149.101562 163.511719 148.105469 163.066406 147.554688 C 162.230469 148.734375 161.132812 149.445312 159.644531 149.417969 C 158.519531 149.390625 157.554688 148.996094 156.742188 148.210938 C 155.148438 146.636719 155.070312 144.117188 156.558594 142.464844 C 158.285156 140.523438 160.53125 140.625 163.144531 142.804688 Z M 159.695312 148.683594 C 161.628906 148.683594 163.144531 147.132812 163.144531 145.21875 C 163.144531 143.355469 161.578125 141.832031 159.722656 141.808594 C 157.789062 141.808594 156.296875 143.304688 156.324219 145.296875 C 156.324219 147.238281 157.761719 148.683594 159.695312 148.683594 Z M 159.695312 148.683594 "/>
<path style=" stroke:none;fill-rule:nonzero;fill:rgb(30.588235%,36.078431%,65.882353%);fill-opacity:1;" d="M 130.527344 142.777344 C 130.527344 142.175781 130.527344 141.703125 130.527344 141.230469 C 130.605469 141.179688 130.683594 141.125 130.789062 141.046875 C 130.945312 141.230469 131.257812 141.414062 131.257812 141.597656 C 131.285156 144.011719 131.285156 146.453125 131.257812 148.867188 C 131.257812 149.078125 131.023438 149.261719 130.894531 149.46875 C 130.816406 149.417969 130.710938 149.390625 130.632812 149.339844 C 130.605469 148.8125 130.554688 148.261719 130.527344 147.660156 C 127.964844 149.8125 125.769531 149.96875 124.019531 148.15625 C 122.503906 146.582031 122.425781 144.144531 123.890625 142.464844 C 125.507812 140.574219 127.652344 140.625 130.527344 142.777344 Z M 127.023438 141.808594 C 125.144531 141.808594 123.628906 143.304688 123.628906 145.191406 C 123.628906 147.160156 125.089844 148.65625 127.023438 148.65625 C 128.933594 148.65625 130.421875 147.1875 130.421875 145.269531 C 130.449219 143.328125 128.960938 141.808594 127.023438 141.808594 Z M 127.023438 141.808594 "/>
<path style=" stroke:none;fill-rule:nonzero;fill:rgb(32.156863%,29.803922%,62.352941%);fill-opacity:1;" d="M 154.207031 149.496094 C 153.945312 149.285156 153.683594 149.078125 153.421875 148.839844 C 153.371094 148.8125 153.371094 148.734375 153.34375 148.683594 C 152.953125 147.789062 152.796875 146.558594 152.117188 146.085938 C 151.464844 145.640625 150.285156 145.953125 149.320312 145.953125 C 148.40625 145.953125 147.253906 145.664062 146.628906 146.109375 C 146 146.558594 145.84375 147.710938 145.503906 148.578125 C 145.320312 149.050781 145.191406 149.601562 144.378906 149.285156 C 144.796875 148.238281 145.214844 147.1875 145.632812 146.109375 C 146.628906 143.59375 147.648438 141.074219 148.667969 138.554688 C 148.796875 138.265625 149.109375 137.949219 149.398438 137.898438 C 149.582031 137.871094 149.949219 138.238281 150.050781 138.5 C 151.515625 142.070312 152.925781 145.664062 154.363281 149.261719 C 154.363281 149.363281 154.285156 149.445312 154.207031 149.496094 Z M 146.890625 145.167969 C 148.640625 145.167969 150.234375 145.167969 151.960938 145.167969 C 151.125 143.09375 150.3125 141.074219 149.425781 138.816406 C 148.507812 141.097656 147.726562 143.09375 146.890625 145.167969 Z M 146.890625 145.167969 "/>
<path style=" stroke:none;fill-rule:nonzero;fill:rgb(36.078431%,29.019608%,61.568627%);fill-opacity:1;" d="M 166.441406 148.15625 C 166.675781 148.15625 166.988281 148.078125 167.171875 148.183594 C 168.347656 148.789062 169.574219 149.023438 170.882812 148.683594 C 171.5625 148.5 172.085938 148.15625 172.136719 147.371094 C 172.191406 146.53125 171.667969 146.191406 171.011719 145.980469 C 170.152344 145.71875 169.289062 145.535156 168.425781 145.269531 C 167.222656 144.902344 166.726562 144.273438 166.753906 143.25 C 166.78125 142.253906 167.40625 141.441406 168.53125 141.203125 C 169.941406 140.890625 171.300781 141.074219 172.554688 141.808594 C 172.554688 141.914062 172.582031 141.992188 172.582031 142.097656 C 172.320312 142.121094 172.085938 142.175781 171.824219 142.148438 C 170.832031 142.070312 169.835938 141.859375 168.84375 141.859375 C 168.113281 141.859375 167.589844 142.386719 167.511719 143.171875 C 167.433594 144.011719 167.957031 144.433594 168.660156 144.640625 C 169.574219 144.902344 170.515625 145.0625 171.40625 145.375 C 172.554688 145.769531 172.949219 146.347656 172.921875 147.316406 C 172.894531 148.316406 172.347656 148.972656 171.25 149.261719 C 169.523438 149.707031 167.902344 149.445312 166.414062 148.445312 C 166.441406 148.367188 166.441406 148.261719 166.441406 148.15625 Z M 166.441406 148.15625 "/>
<path style=" stroke:none;fill-rule:nonzero;fill:rgb(30.588235%,32.941176%,63.921569%);fill-opacity:1;" d="M 133.035156 140.96875 C 133.375 141.179688 133.769531 141.335938 134.03125 141.625 C 134.839844 142.570312 135.570312 143.59375 136.328125 144.5625 C 137.664062 143.511719 138.082031 141.648438 139.703125 141.019531 C 139.78125 141.097656 139.859375 141.152344 139.9375 141.230469 C 138.917969 142.570312 137.925781 143.878906 136.851562 145.269531 C 137.871094 146.609375 138.867188 147.921875 139.882812 149.234375 C 139.832031 149.3125 139.78125 149.390625 139.726562 149.46875 C 139.386719 149.285156 138.96875 149.179688 138.734375 148.890625 C 137.925781 147.949219 137.21875 146.925781 136.433594 145.925781 C 135.441406 147.109375 134.5 148.261719 133.535156 149.363281 C 133.453125 149.445312 133.167969 149.363281 132.828125 149.339844 C 133.714844 148.15625 134.5 147.03125 135.390625 146.007812 C 135.910156 145.402344 135.808594 145.035156 135.363281 144.511719 C 134.5 143.460938 133.691406 142.359375 132.855469 141.257812 C 132.90625 141.152344 132.984375 141.046875 133.035156 140.96875 Z M 133.035156 140.96875 "/>
</g>
</svg>
