<?xml version="1.0" encoding="UTF-8"?>
<svg xmlns="http://www.w3.org/2000/svg" xmlns:xlink="http://www.w3.org/1999/xlink" width="300px" height="150px" viewBox="0 0 852 150" version="1.1">
<g id="surface1">
<path style=" stroke:none;fill-rule:nonzero;fill:rgb(25.882353%,25.490196%,26.27451%);fill-opacity:1;" d="M 277.738281 25.757812 L 294.25 25.757812 L 294.25 59.085938 C 302.867188 48.074219 311.421875 36.769531 320.039062 25.757812 L 340.320312 25.757812 C 330.328125 38.800781 320.398438 51.546875 310.40625 64.589844 C 320.398438 77.632812 330.328125 90.375 339.960938 103.421875 L 319.679688 103.421875 C 313.15625 94.804688 306.277344 86.25 300.113281 77.632812 C 298.082031 80.027344 295.984375 82.777344 294.25 85.53125 L 294.25 103.421875 L 277.738281 103.421875 C 277.738281 77.632812 278.097656 51.90625 277.738281 25.757812 "/>
<path style=" stroke:none;fill-rule:nonzero;fill:rgb(25.882353%,25.490196%,26.27451%);fill-opacity:1;" d="M 345.40625 25.757812 L 361.921875 25.757812 L 361.921875 103.421875 L 345.40625 103.421875 L 345.40625 25.757812 "/>
<path style=" stroke:none;fill-rule:nonzero;fill:rgb(25.882353%,25.490196%,26.27451%);fill-opacity:1;" d="M 395.246094 25.757812 L 411.402344 25.757812 L 411.402344 103.421875 L 395.246094 103.421875 L 395.246094 72.488281 L 370.175781 72.488281 C 367.785156 67.699219 365.03125 62.496094 362.636719 57.707031 L 395.304688 57.707031 C 395.246094 47.058594 395.605469 36.410156 395.246094 25.757812 "/>
<path style=" stroke:none;fill-rule:nonzero;fill:rgb(25.882353%,25.490196%,26.27451%);fill-opacity:1;" d="M 446.761719 26.777344 C 458.128906 24.382812 470.453125 27.136719 479.070312 35.03125 C 495.882812 48.792969 496.960938 76.972656 482.183594 92.410156 C 469.496094 106.472656 445.445312 107.847656 430.964844 95.820312 C 414.453125 83.136719 412.058594 56.992188 424.804688 40.835938 C 429.949219 33.355469 437.847656 28.511719 446.761719 26.777344 M 449.871094 40.894531 C 434.734375 44.664062 428.574219 64.289062 435.8125 77.332031 C 440.300781 87.324219 453.703125 92.769531 463.632812 87.625 C 477.394531 81.101562 480.804688 61.179688 471.890625 49.511719 C 466.683594 42.273438 457.769531 38.800781 449.871094 40.894531 "/>
<path style=" stroke:none;fill-rule:nonzero;fill:rgb(25.882353%,25.490196%,26.27451%);fill-opacity:1;" d="M 497.617188 25.757812 L 533.039062 25.757812 C 550.210938 26.117188 566.003906 39.160156 569.117188 55.972656 C 572.886719 72.128906 565.347656 90.019531 550.929688 98.214844 C 543.03125 103 533.757812 104.078125 524.484375 103.359375 C 522.089844 98.871094 519.695312 94.445312 517.242188 89.597656 C 526.15625 89.238281 536.148438 91.335938 544.046875 85.46875 C 557.808594 76.195312 557.808594 53.160156 544.40625 43.886719 C 535.492188 37.367188 524.125 40.117188 513.832031 39.398438 L 513.832031 103.300781 L 498.035156 103.300781 C 497.617188 103.777344 497.617188 51.90625 497.617188 25.757812 "/>
<path style=" stroke:none;fill-rule:nonzero;fill:rgb(25.882353%,25.490196%,26.27451%);fill-opacity:1;" d="M 575.28125 25.757812 L 610.699219 25.757812 C 619.972656 25.757812 628.886719 30.902344 633.734375 38.800781 C 639.597656 48.074219 639.238281 61.117188 632.359375 70.09375 C 629.246094 74.222656 624.820312 77.332031 619.972656 79.367188 C 626.496094 87.265625 639.539062 103.777344 639.539062 103.777344 L 618.898438 103.777344 C 618.898438 103.777344 606.871094 88.640625 601.007812 81.101562 L 591.015625 81.101562 L 591.015625 104.136719 L 575.21875 104.136719 L 575.21875 25.757812 M 591.074219 39.878906 L 591.074219 64.949219 L 610.640625 64.949219 C 615.785156 64.949219 620.273438 61.179688 621.648438 56.332031 C 623.683594 49.8125 619.613281 41.914062 613.03125 40.179688 C 605.496094 39.519531 598.316406 40.179688 591.074219 39.878906 "/>
<path style=" stroke:none;fill-rule:nonzero;fill:rgb(25.882353%,25.490196%,26.27451%);fill-opacity:1;" d="M 671.488281 27.136719 C 683.515625 24.023438 696.917969 27.136719 706.191406 35.390625 C 721.628906 49.152344 723.003906 75.238281 709.300781 90.734375 C 697.636719 104.796875 675.257812 107.546875 660.179688 97.617188 C 644.027344 87.324219 638.519531 64.289062 646.777344 47.476562 C 651.566406 37.425781 660.839844 29.886719 671.488281 27.136719 M 674.601562 41.253906 C 657.785156 47.117188 654.316406 71.46875 666.703125 83.195312 C 673.582031 90.4375 686.265625 91.09375 694.164062 84.574219 C 705.171875 75.65625 705.832031 57.109375 696.199219 46.757812 C 690.753906 41.253906 681.78125 38.800781 674.601562 41.253906 "/>
<path style=" stroke:none;fill-rule:nonzero;fill:rgb(94.509804%,36.470588%,16.470588%);fill-opacity:1;" d="M 758.066406 26.476562 L 775.234375 26.476562 C 767.339844 42.632812 759.441406 58.785156 751.84375 75.238281 L 793.425781 75.238281 L 793.425781 89.300781 L 783.433594 89.300781 L 783.433594 104.078125 L 767.996094 104.078125 L 767.996094 89.300781 L 733.652344 89.300781 L 733.652344 75.238281 C 733.714844 75.238281 750.527344 41.253906 758.066406 26.476562 "/>
<path style=" stroke:none;fill-rule:nonzero;fill:rgb(94.509804%,36.470588%,16.470588%);fill-opacity:1;" d="M 806.886719 25.757812 L 851.878906 25.757812 L 851.878906 39.878906 L 804.792969 39.878906 L 806.886719 25.757812 "/>
<path style=" stroke:none;fill-rule:nonzero;fill:rgb(94.509804%,36.470588%,16.470588%);fill-opacity:1;" d="M 803.777344 48.792969 C 809.640625 46.402344 815.441406 43.648438 821.664062 40.894531 C 821.304688 44.304688 821.007812 47.417969 820.648438 50.886719 C 828.1875 50.886719 836.085938 51.546875 841.949219 56.75 C 851.941406 64.289062 854.992188 79.425781 848.828125 90.078125 C 841.949219 102.761719 824.777344 107.25 812.09375 100.726562 C 805.929688 97.617188 800.722656 92.472656 798.332031 85.949219 C 803.117188 84.214844 808.324219 82.179688 813.109375 80.445312 C 815.144531 86.308594 821.367188 90.734375 827.527344 88.703125 C 834.769531 86.964844 837.820312 77.691406 834.410156 71.53125 C 831.65625 67.402344 826.871094 66.023438 822.382812 65.367188 C 815.503906 64.351562 808.324219 65.367188 801.441406 65.007812 C 802.039062 59.804688 802.757812 54.296875 803.777344 48.792969 "/>
<path style=" stroke:none;fill-rule:nonzero;fill:rgb(94.509804%,36.470588%,16.470588%);fill-opacity:1;" d="M 768.054688 59.085938 L 783.492188 59.085938 L 783.492188 73.863281 C 778.347656 71.46875 773.203125 68.71875 768.355469 66.324219 C 768.054688 63.929688 768.054688 61.476562 768.054688 59.085938 "/>
<path style=" stroke:none;fill-rule:nonzero;fill:rgb(94.509804%,36.470588%,16.470588%);fill-opacity:1;" d="M 83.945312 13.074219 C 100.097656 5.175781 118.285156 1.046875 136.535156 1.707031 C 149.9375 2.363281 163.996094 -0.328125 176.742188 5.476562 C 188.410156 10.261719 196.308594 20.914062 205.28125 29.527344 L 221.796875 29.527344 C 221.136719 31.921875 220.417969 34.316406 220.058594 37.066406 L 160.289062 37.066406 C 159.929688 39.101562 159.929688 41.195312 159.628906 42.929688 C 193.675781 42.273438 228.019531 42.570312 262.003906 42.929688 C 261.34375 45.324219 260.625 47.71875 260.265625 50.171875 L 159.511719 50.171875 C 158.851562 61.539062 154.722656 72.847656 146.828125 81.460938 L 173.273438 81.460938 C 173.273438 73.921875 176.023438 66.023438 181.886719 61.179688 C 190.503906 53.9375 204.5625 53.9375 212.820312 61.835938 C 218.324219 66.625 220.71875 74.222656 220.71875 81.402344 L 237.230469 81.402344 C 236.574219 83.796875 235.855469 86.1875 235.199219 88.941406 C 229.691406 88.941406 224.1875 87.921875 219.042969 88.941406 C 214.914062 94.085938 210.785156 100.308594 203.605469 101.625 C 192.238281 105.035156 179.914062 98.871094 175.066406 88.582031 C 140.363281 88.222656 105.664062 88.582031 70.960938 88.582031 C 66.832031 87.921875 66.171875 92.351562 63.71875 94.746094 C 56.480469 104.378906 42.0625 105.035156 32.429688 98.515625 C 28.660156 96.121094 26.265625 91.632812 23.15625 88.523438 C 17.292969 87.863281 11.488281 88.882812 5.984375 87.144531 C 0.121094 84.753906 -1.257812 77.152344 1.195312 71.710938 C 3.949219 63.8125 5.984375 55.554688 10.46875 48.675781 C 16.335938 39.398438 27.640625 34.253906 38.292969 33.894531 C 42.71875 33.65625 47.863281 34.375 51.992188 31.980469 C 60.910156 26.835938 69.882812 21.332031 78.796875 16.1875 L 78.796875 24.800781 C 74.667969 27.554688 70.183594 29.945312 65.753906 33.058594 C 94.292969 32.039062 122.476562 31.023438 150.953125 29.648438 C 150.296875 22.765625 149.21875 15.886719 148.203125 9.363281 C 135.816406 8.347656 123.132812 9.007812 110.746094 11.101562 C 101.113281 12.835938 92.558594 17.621094 83.585938 21.390625 C 83.945312 18.578125 83.945312 15.828125 83.945312 13.074219 Z M 156.101562 8.945312 C 157.117188 15.828125 157.835938 22.347656 158.851562 29.230469 L 194.929688 29.230469 C 188.769531 23.722656 183.265625 17.5625 175.664062 13.433594 C 169.863281 10.320312 162.980469 9.304688 156.101562 8.945312 Z M 55.761719 40.894531 C 47.507812 41.253906 38.949219 40.894531 31.050781 42.632812 C 30.335938 47.777344 30.695312 53.582031 26.925781 58.066406 C 23.515625 63.214844 16.933594 64.949219 11.128906 65.964844 C 10.46875 70.453125 5.984375 75.957031 8.734375 80.386719 C 12.863281 81.761719 17.351562 80.742188 21.777344 81.042969 C 22.4375 75.179688 23.515625 69.015625 27.28125 64.53125 C 34.523438 55.253906 48.941406 52.503906 58.574219 59.382812 C 66.113281 63.871094 69.585938 72.785156 69.941406 81.042969 C 87.832031 81.402344 105.363281 81.042969 123.191406 81.042969 C 129.714844 81.042969 136.234375 80.027344 141.382812 75.539062 C 148.621094 69.015625 151.015625 59.023438 152.390625 49.75 L 128.699219 49.75 L 130.730469 42.511719 L 153.050781 42.511719 C 153.050781 41.136719 152.691406 38.742188 152.691406 37.367188 C 120.023438 38.144531 88.070312 39.878906 55.761719 40.894531 Z M 13.820312 58.066406 C 19.324219 57.050781 22.734375 52.203125 23.453125 46.699219 C 18.964844 49.453125 15.914062 53.582031 13.820312 58.066406 Z M 39.96875 64.230469 C 33.445312 66.265625 29.316406 73.144531 29.675781 79.667969 C 29.675781 88.28125 37.214844 95.101562 45.472656 95.101562 C 55.464844 95.460938 64.019531 84.8125 61.265625 75.179688 C 59.171875 66.324219 48.882812 60.460938 39.96875 64.230469 Z M 193.195312 63.570312 C 188.050781 64.589844 183.921875 68.359375 181.828125 73.203125 C 178.058594 81.460938 183.203125 91.753906 191.460938 94.503906 C 201.09375 98.273438 212.761719 90.019531 212.761719 79.726562 C 213.835938 69.4375 203.1875 60.820312 193.195312 63.570312 Z M 193.195312 63.570312 "/>
<path style=" stroke:none;fill-rule:nonzero;fill:rgb(94.509804%,36.470588%,16.470588%);fill-opacity:1;" d="M 222.394531 61.835938 C 223.050781 59.804688 223.410156 57.707031 224.128906 55.675781 L 247.164062 55.675781 C 246.503906 57.707031 246.148438 59.804688 245.429688 61.835938 Z M 222.394531 61.835938 "/>
<path style=" stroke:none;fill-rule:nonzero;fill:rgb(0%,0%,0%);fill-opacity:1;" d="M 450.472656 142.789062 L 447.238281 142.789062 L 447.238281 124.179688 L 450.472656 124.179688 Z M 450.472656 142.789062 "/>
<path style=" stroke:none;fill-rule:nonzero;fill:rgb(0%,0%,0%);fill-opacity:1;" d="M 464.171875 138.003906 C 464.171875 137.164062 463.875 136.566406 463.335938 136.089844 C 462.738281 135.667969 461.71875 135.191406 460.222656 134.710938 C 458.726562 134.234375 457.53125 133.753906 456.632812 133.214844 C 454.957031 132.140625 454.121094 130.761719 454.121094 129.027344 C 454.121094 127.53125 454.71875 126.277344 455.976562 125.316406 C 457.171875 124.359375 458.789062 123.882812 460.761719 123.882812 C 462.078125 123.882812 463.214844 124.121094 464.230469 124.601562 C 465.25 125.078125 466.027344 125.738281 466.625 126.632812 C 467.222656 127.53125 467.464844 128.488281 467.464844 129.566406 L 464.230469 129.566406 C 464.230469 128.609375 463.933594 127.832031 463.335938 127.292969 C 462.738281 126.753906 461.839844 126.453125 460.703125 126.453125 C 459.625 126.453125 458.847656 126.695312 458.25 127.113281 C 457.652344 127.59375 457.351562 128.191406 457.351562 129.027344 C 457.351562 129.6875 457.652344 130.285156 458.308594 130.761719 C 458.96875 131.242188 459.984375 131.660156 461.421875 132.078125 C 462.855469 132.496094 464.054688 132.976562 464.890625 133.574219 C 465.789062 134.113281 466.386719 134.773438 466.804688 135.488281 C 467.222656 136.207031 467.402344 137.046875 467.402344 138.003906 C 467.402344 139.558594 466.804688 140.816406 465.609375 141.710938 C 464.410156 142.609375 462.796875 143.089844 460.761719 143.089844 C 459.386719 143.089844 458.1875 142.847656 457.050781 142.371094 C 455.914062 141.890625 455.019531 141.171875 454.421875 140.335938 C 453.761719 139.4375 453.460938 138.421875 453.460938 137.285156 L 456.695312 137.285156 C 456.695312 138.363281 457.050781 139.199219 457.769531 139.738281 C 458.488281 140.335938 459.445312 140.636719 460.761719 140.636719 C 461.898438 140.636719 462.738281 140.394531 463.273438 139.976562 C 463.875 139.378906 464.171875 138.71875 464.171875 138.003906 Z M 464.171875 138.003906 "/>
<path style=" stroke:none;fill-rule:nonzero;fill:rgb(0%,0%,0%);fill-opacity:1;" d="M 485.113281 133.992188 C 485.113281 135.789062 484.8125 137.402344 484.15625 138.78125 C 483.496094 140.15625 482.601562 141.234375 481.464844 141.953125 C 480.265625 142.667969 478.949219 143.027344 477.453125 143.027344 C 475.960938 143.027344 474.582031 142.667969 473.386719 141.953125 C 472.191406 141.234375 471.292969 140.15625 470.632812 138.78125 C 469.976562 137.402344 469.675781 135.847656 469.675781 134.054688 L 469.675781 132.976562 C 469.675781 131.183594 469.976562 129.566406 470.632812 128.191406 C 471.292969 126.8125 472.191406 125.738281 473.328125 125.019531 C 474.523438 124.300781 475.839844 123.941406 477.335938 123.941406 C 478.832031 123.941406 480.207031 124.300781 481.34375 125.019531 C 482.539062 125.738281 483.4375 126.8125 484.035156 128.191406 C 484.695312 129.566406 484.992188 131.121094 484.992188 132.976562 Z M 481.882812 132.976562 C 481.882812 130.882812 481.523438 129.328125 480.746094 128.25 C 479.96875 127.171875 478.890625 126.574219 477.453125 126.574219 C 476.078125 126.574219 474.941406 127.113281 474.164062 128.191406 C 473.386719 129.265625 472.96875 130.824219 472.96875 132.855469 L 472.96875 133.933594 C 472.96875 135.96875 473.386719 137.582031 474.164062 138.660156 C 474.941406 139.796875 476.078125 140.335938 477.515625 140.335938 C 478.949219 140.335938 480.027344 139.796875 480.804688 138.71875 C 481.582031 137.644531 481.941406 136.027344 481.941406 133.933594 L 481.941406 132.976562 Z M 481.882812 132.976562 "/>
<path style=" stroke:none;fill-rule:nonzero;fill:rgb(0%,0%,0%);fill-opacity:1;" d="M 504.917969 135.011719 C 503.902344 136.089844 502.644531 136.625 501.269531 136.625 C 499.652344 136.625 498.335938 136.027344 497.378906 134.890625 C 496.421875 133.753906 495.941406 132.257812 495.941406 130.402344 C 495.941406 129.148438 496.183594 128.070312 496.660156 127.054688 C 497.140625 126.035156 497.859375 125.257812 498.753906 124.71875 C 499.652344 124.179688 500.730469 123.882812 501.925781 123.882812 C 503.78125 123.882812 505.277344 124.601562 506.355469 125.976562 C 507.429688 127.351562 508.027344 129.265625 508.027344 131.601562 L 508.027344 132.496094 C 508.027344 135.847656 507.25 138.421875 505.753906 140.15625 C 504.257812 141.953125 501.984375 142.789062 498.996094 142.847656 L 498.636719 142.847656 L 498.636719 140.277344 L 499.054688 140.277344 C 500.910156 140.214844 502.285156 139.796875 503.300781 138.960938 C 504.199219 138.121094 504.796875 136.804688 504.917969 135.011719 Z M 501.925781 134.234375 C 502.523438 134.234375 503.121094 134.054688 503.660156 133.695312 C 504.199219 133.335938 504.617188 132.855469 504.917969 132.199219 L 504.917969 131.003906 C 504.917969 129.625 504.617188 128.550781 504.078125 127.710938 C 503.542969 126.875 502.824219 126.453125 501.925781 126.453125 C 501.027344 126.453125 500.3125 126.8125 499.773438 127.53125 C 499.234375 128.25 498.996094 129.207031 498.996094 130.34375 C 498.996094 131.480469 499.234375 132.4375 499.773438 133.15625 C 500.3125 133.875 501.027344 134.234375 501.925781 134.234375 Z M 501.925781 134.234375 "/>
<path style=" stroke:none;fill-rule:nonzero;fill:rgb(0%,0%,0%);fill-opacity:1;" d="M 523.105469 134.949219 C 523.105469 137.644531 522.628906 139.617188 521.609375 140.992188 C 520.59375 142.371094 519.097656 143.027344 517.0625 143.027344 C 515.027344 143.027344 513.535156 142.371094 512.515625 141.054688 C 511.5 139.738281 510.960938 137.761719 510.960938 135.191406 L 510.960938 131.960938 C 510.960938 129.265625 511.4375 127.292969 512.457031 125.917969 C 513.472656 124.601562 514.96875 123.882812 517.0625 123.882812 C 519.097656 123.882812 520.59375 124.539062 521.609375 125.855469 C 522.628906 127.171875 523.105469 129.085938 523.167969 131.71875 L 523.167969 134.949219 Z M 519.996094 131.480469 C 519.996094 129.746094 519.757812 128.429688 519.277344 127.652344 C 518.796875 126.875 518.019531 126.453125 517.003906 126.453125 C 515.988281 126.453125 515.269531 126.8125 514.789062 127.59375 C 514.3125 128.371094 514.070312 129.566406 514.011719 131.183594 L 514.011719 135.371094 C 514.011719 137.105469 514.25 138.421875 514.730469 139.257812 C 515.207031 140.097656 515.988281 140.515625 517.003906 140.515625 C 518.019531 140.515625 518.738281 140.097656 519.21875 139.320312 C 519.695312 138.539062 519.933594 137.285156 519.996094 135.609375 Z M 519.996094 131.480469 "/>
<path style=" stroke:none;fill-rule:nonzero;fill:rgb(0%,0%,0%);fill-opacity:1;" d="M 537.945312 134.949219 C 537.945312 137.644531 537.464844 139.617188 536.449219 140.992188 C 535.433594 142.371094 533.9375 143.027344 531.902344 143.027344 C 529.867188 143.027344 528.371094 142.371094 527.355469 141.054688 C 526.335938 139.738281 525.800781 137.761719 525.800781 135.191406 L 525.800781 131.960938 C 525.800781 129.265625 526.277344 127.292969 527.292969 125.917969 C 528.3125 124.601562 529.808594 123.882812 531.902344 123.882812 C 533.9375 123.882812 535.433594 124.539062 536.449219 125.855469 C 537.464844 127.171875 537.945312 129.085938 538.003906 131.71875 Z M 534.832031 131.480469 C 534.832031 129.746094 534.59375 128.429688 534.117188 127.652344 C 533.636719 126.875 532.859375 126.453125 531.84375 126.453125 C 530.824219 126.453125 530.105469 126.8125 529.628906 127.59375 C 529.148438 128.371094 528.910156 129.566406 528.851562 131.183594 L 528.851562 135.371094 C 528.851562 137.105469 529.089844 138.421875 529.566406 139.257812 C 530.046875 140.097656 530.824219 140.515625 531.84375 140.515625 C 532.859375 140.515625 533.578125 140.097656 534.054688 139.320312 C 534.535156 138.539062 534.773438 137.285156 534.832031 135.609375 Z M 534.832031 131.480469 "/>
<path style=" stroke:none;fill-rule:nonzero;fill:rgb(0%,0%,0%);fill-opacity:1;" d="M 549.132812 142.789062 L 546.023438 142.789062 L 546.023438 127.832031 L 541.476562 129.386719 L 541.476562 126.753906 L 548.714844 124.0625 L 549.132812 124.0625 Z M 549.132812 142.789062 "/>
<path style=" stroke:none;fill-rule:nonzero;fill:rgb(0%,0%,0%);fill-opacity:1;" d="M 556.433594 146.976562 L 554.757812 146.019531 C 555.234375 145.242188 555.59375 144.585938 555.773438 143.984375 C 555.953125 143.386719 556.074219 142.847656 556.074219 142.25 L 556.074219 139.855469 L 558.886719 139.855469 L 558.886719 142.070312 C 558.886719 142.96875 558.644531 143.867188 558.226562 144.761719 C 557.6875 145.601562 557.152344 146.378906 556.433594 146.976562 Z M 557.390625 129.867188 C 557.988281 129.867188 558.40625 130.046875 558.707031 130.34375 C 559.003906 130.703125 559.183594 131.0625 559.183594 131.601562 C 559.183594 132.078125 559.003906 132.496094 558.707031 132.796875 C 558.40625 133.097656 557.929688 133.277344 557.390625 133.277344 C 556.851562 133.277344 556.371094 133.097656 556.074219 132.796875 C 555.773438 132.496094 555.59375 132.078125 555.59375 131.601562 C 555.59375 131.121094 555.773438 130.703125 556.074219 130.34375 C 556.371094 129.984375 556.792969 129.867188 557.390625 129.867188 Z M 557.390625 129.867188 "/>
<path style=" stroke:none;fill-rule:nonzero;fill:rgb(0%,0%,0%);fill-opacity:1;" d="M 574.320312 142.789062 L 561.816406 142.789062 L 561.816406 140.636719 L 568.039062 133.875 C 568.9375 132.855469 569.59375 132.078125 569.953125 131.359375 C 570.3125 130.703125 570.492188 130.046875 570.492188 129.328125 C 570.492188 128.429688 570.253906 127.710938 569.773438 127.171875 C 569.296875 126.632812 568.578125 126.335938 567.742188 126.335938 C 566.722656 126.335938 565.945312 126.632812 565.40625 127.234375 C 564.867188 127.832031 564.570312 128.667969 564.570312 129.746094 L 561.457031 129.746094 C 561.457031 128.609375 561.699219 127.59375 562.234375 126.695312 C 562.773438 125.796875 563.492188 125.078125 564.449219 124.601562 C 565.40625 124.121094 566.542969 123.824219 567.742188 123.824219 C 569.535156 123.824219 570.972656 124.300781 571.988281 125.199219 C 573.007812 126.097656 573.542969 127.351562 573.542969 128.96875 C 573.542969 129.925781 573.304688 130.882812 572.765625 131.898438 C 572.226562 132.917969 571.390625 134.054688 570.195312 135.371094 L 565.648438 140.277344 L 574.261719 140.277344 Z M 574.320312 142.789062 "/>
<path style=" stroke:none;fill-rule:nonzero;fill:rgb(0%,0%,0%);fill-opacity:1;" d="M 588.800781 134.949219 C 588.800781 137.644531 588.324219 139.617188 587.304688 140.992188 C 586.289062 142.371094 584.792969 143.027344 582.757812 143.027344 C 580.722656 143.027344 579.226562 142.371094 578.210938 141.054688 C 577.195312 139.738281 576.65625 137.761719 576.65625 135.191406 L 576.65625 131.960938 C 576.65625 129.265625 577.132812 127.292969 578.152344 125.917969 C 579.167969 124.601562 580.664062 123.882812 582.757812 123.882812 C 584.792969 123.882812 586.289062 124.539062 587.304688 125.855469 C 588.324219 127.171875 588.800781 129.085938 588.859375 131.71875 L 588.859375 134.949219 Z M 585.691406 131.480469 C 585.691406 129.746094 585.449219 128.429688 584.972656 127.652344 C 584.492188 126.875 583.714844 126.453125 582.699219 126.453125 C 581.679688 126.453125 580.964844 126.8125 580.484375 127.59375 C 580.007812 128.371094 579.765625 129.566406 579.707031 131.183594 L 579.707031 135.371094 C 579.707031 137.105469 579.945312 138.421875 580.425781 139.257812 C 580.902344 140.097656 581.679688 140.515625 582.699219 140.515625 C 583.714844 140.515625 584.433594 140.097656 584.914062 139.320312 C 585.390625 138.539062 585.628906 137.285156 585.691406 135.609375 Z M 585.691406 131.480469 "/>
<path style=" stroke:none;fill-rule:nonzero;fill:rgb(0%,0%,0%);fill-opacity:1;" d="M 599.929688 142.789062 L 596.820312 142.789062 L 596.820312 127.832031 L 592.273438 129.386719 L 592.273438 126.753906 L 599.511719 124.0625 L 599.929688 124.0625 Z M 599.929688 142.789062 "/>
<path style=" stroke:none;fill-rule:nonzero;fill:rgb(0%,0%,0%);fill-opacity:1;" d="M 607.230469 133.574219 L 608.246094 124.179688 L 618.238281 124.179688 L 618.238281 126.875 L 610.820312 126.875 L 610.28125 131.300781 C 611.117188 130.824219 612.136719 130.582031 613.210938 130.582031 C 615.007812 130.582031 616.382812 131.121094 617.339844 132.257812 C 618.296875 133.394531 618.835938 134.890625 618.835938 136.804688 C 618.835938 138.71875 618.296875 140.214844 617.222656 141.351562 C 616.144531 142.488281 614.648438 143.027344 612.734375 143.027344 C 611.058594 143.027344 609.621094 142.550781 608.484375 141.59375 C 607.347656 140.636719 606.75 139.378906 606.691406 137.761719 L 609.683594 137.761719 C 609.800781 138.660156 610.101562 139.378906 610.640625 139.855469 C 611.179688 140.335938 611.835938 140.574219 612.734375 140.574219 C 613.691406 140.574219 614.410156 140.214844 614.949219 139.558594 C 615.484375 138.898438 615.726562 137.941406 615.726562 136.746094 C 615.726562 135.609375 615.425781 134.710938 614.828125 134.054688 C 614.230469 133.394531 613.453125 133.035156 612.375 133.035156 C 611.835938 133.035156 611.359375 133.097656 610.9375 133.277344 C 610.519531 133.457031 610.101562 133.695312 609.683594 134.171875 Z M 607.230469 133.574219 "/>
<path style=" stroke:none;fill-rule:nonzero;fill:rgb(0%,0%,0%);fill-opacity:1;" d="M 644.207031 136.746094 C 644.027344 138.71875 643.308594 140.277344 641.992188 141.414062 C 640.734375 142.550781 639 143.089844 636.90625 143.089844 C 635.410156 143.089844 634.09375 142.730469 632.957031 142.011719 C 631.820312 141.292969 630.984375 140.335938 630.324219 139.019531 C 629.726562 137.703125 629.367188 136.207031 629.367188 134.53125 L 629.367188 132.796875 C 629.367188 131.0625 629.667969 129.507812 630.324219 128.128906 C 630.921875 126.8125 631.820312 125.738281 633.015625 125.019531 C 634.152344 124.300781 635.53125 123.941406 637.027344 123.941406 C 639.058594 123.941406 640.734375 124.480469 641.992188 125.617188 C 643.246094 126.753906 643.964844 128.308594 644.144531 130.34375 L 640.914062 130.34375 C 640.734375 129.027344 640.375 128.011719 639.71875 127.472656 C 639.058594 126.875 638.164062 126.574219 636.964844 126.574219 C 635.589844 126.574219 634.453125 127.113281 633.734375 128.128906 C 632.957031 129.148438 632.597656 130.644531 632.597656 132.617188 L 632.597656 134.234375 C 632.597656 136.265625 632.957031 137.761719 633.675781 138.839844 C 634.394531 139.917969 635.46875 140.394531 636.847656 140.394531 C 638.101562 140.394531 639.058594 140.097656 639.71875 139.558594 C 640.375 138.960938 640.734375 138.0625 640.914062 136.746094 Z M 644.207031 136.746094 "/>
<path style=" stroke:none;fill-rule:nonzero;fill:rgb(0%,0%,0%);fill-opacity:1;" d="M 652.882812 143.027344 C 650.90625 143.027344 649.289062 142.429688 648.09375 141.171875 C 646.898438 139.917969 646.238281 138.300781 646.238281 136.207031 L 646.238281 135.847656 C 646.238281 134.472656 646.480469 133.214844 647.015625 132.140625 C 647.554688 131.0625 648.273438 130.222656 649.230469 129.625 C 650.1875 129.027344 651.265625 128.730469 652.460938 128.730469 C 654.316406 128.730469 655.8125 129.328125 656.828125 130.523438 C 657.847656 131.71875 658.386719 133.394531 658.386719 135.609375 L 658.386719 136.867188 L 649.351562 136.867188 C 649.46875 138.003906 649.828125 138.898438 650.488281 139.558594 C 651.144531 140.214844 651.984375 140.574219 653 140.574219 C 654.4375 140.574219 655.574219 139.976562 656.472656 138.839844 L 658.144531 140.457031 C 657.609375 141.292969 656.828125 141.953125 655.933594 142.371094 C 655.09375 142.847656 654.078125 143.027344 652.882812 143.027344 Z M 652.523438 131.183594 C 651.683594 131.183594 650.964844 131.480469 650.488281 132.078125 C 649.949219 132.675781 649.648438 133.515625 649.46875 134.59375 L 655.394531 134.59375 L 655.394531 134.351562 C 655.335938 133.335938 655.035156 132.558594 654.554688 132.019531 C 654.078125 131.480469 653.417969 131.183594 652.523438 131.183594 Z M 652.523438 131.183594 "/>
<path style=" stroke:none;fill-rule:nonzero;fill:rgb(0%,0%,0%);fill-opacity:1;" d="M 668.078125 131.78125 C 667.660156 131.71875 667.242188 131.660156 666.820312 131.660156 C 665.386719 131.660156 664.429688 132.199219 663.949219 133.277344 L 663.949219 142.730469 L 660.839844 142.730469 L 660.839844 128.90625 L 663.828125 128.90625 L 663.890625 130.464844 C 664.609375 129.265625 665.683594 128.667969 667 128.667969 C 667.421875 128.667969 667.777344 128.730469 668.078125 128.847656 Z M 668.078125 131.78125 "/>
<path style=" stroke:none;fill-rule:nonzero;fill:rgb(0%,0%,0%);fill-opacity:1;" d="M 673.941406 125.617188 L 673.941406 128.96875 L 676.394531 128.96875 L 676.394531 131.242188 L 673.941406 131.242188 L 673.941406 138.960938 C 673.941406 139.5 674.0625 139.855469 674.242188 140.097656 C 674.480469 140.335938 674.839844 140.457031 675.378906 140.457031 C 675.738281 140.457031 676.09375 140.394531 676.453125 140.335938 L 676.453125 142.730469 C 675.738281 142.910156 675.078125 143.027344 674.421875 143.027344 C 672.027344 143.027344 670.832031 141.710938 670.832031 139.078125 L 670.832031 131.242188 L 668.558594 131.242188 L 668.558594 128.96875 L 670.832031 128.96875 L 670.832031 125.617188 Z M 673.941406 125.617188 "/>
<path style=" stroke:none;fill-rule:nonzero;fill:rgb(0%,0%,0%);fill-opacity:1;" d="M 678.789062 125.378906 C 678.789062 124.898438 678.96875 124.480469 679.265625 124.179688 C 679.566406 123.882812 679.984375 123.703125 680.582031 123.703125 C 681.121094 123.703125 681.539062 123.882812 681.898438 124.179688 C 682.199219 124.480469 682.378906 124.898438 682.378906 125.378906 C 682.378906 125.855469 682.199219 126.214844 681.898438 126.574219 C 681.601562 126.875 681.179688 127.054688 680.582031 127.054688 C 680.042969 127.054688 679.566406 126.875 679.265625 126.574219 C 678.96875 126.277344 678.789062 125.855469 678.789062 125.378906 Z M 682.078125 142.789062 L 678.96875 142.789062 L 678.96875 128.96875 L 682.078125 128.96875 Z M 682.078125 142.789062 "/>
<path style=" stroke:none;fill-rule:nonzero;fill:rgb(0%,0%,0%);fill-opacity:1;" d="M 686.566406 142.789062 L 686.566406 131.242188 L 684.472656 131.242188 L 684.472656 128.96875 L 686.566406 128.96875 L 686.566406 127.710938 C 686.566406 126.15625 686.984375 125.019531 687.824219 124.179688 C 688.660156 123.34375 689.855469 122.925781 691.414062 122.925781 C 691.949219 122.925781 692.550781 122.984375 693.148438 123.164062 L 693.085938 125.617188 C 692.730469 125.558594 692.371094 125.496094 691.890625 125.496094 C 690.394531 125.496094 689.675781 126.277344 689.675781 127.769531 L 689.675781 128.96875 L 692.488281 128.96875 L 692.488281 131.242188 L 689.675781 131.242188 L 689.675781 142.789062 Z M 686.566406 142.789062 "/>
<path style=" stroke:none;fill-rule:nonzero;fill:rgb(0%,0%,0%);fill-opacity:1;" d="M 694.703125 125.378906 C 694.703125 124.898438 694.882812 124.480469 695.183594 124.179688 C 695.480469 123.882812 695.898438 123.703125 696.496094 123.703125 C 697.035156 123.703125 697.457031 123.882812 697.8125 124.179688 C 698.113281 124.480469 698.292969 124.898438 698.292969 125.378906 C 698.292969 125.855469 698.113281 126.214844 697.8125 126.574219 C 697.515625 126.875 697.097656 127.054688 696.496094 127.054688 C 695.960938 127.054688 695.480469 126.875 695.183594 126.574219 C 694.882812 126.277344 694.703125 125.855469 694.703125 125.378906 Z M 698.054688 142.789062 L 694.941406 142.789062 L 694.941406 128.96875 L 698.054688 128.96875 Z M 698.054688 142.789062 "/>
<path style=" stroke:none;fill-rule:nonzero;fill:rgb(0%,0%,0%);fill-opacity:1;" d="M 707.507812 143.027344 C 705.53125 143.027344 703.917969 142.429688 702.71875 141.171875 C 701.523438 139.917969 700.867188 138.300781 700.867188 136.207031 L 700.867188 135.847656 C 700.867188 134.472656 701.105469 133.214844 701.644531 132.140625 C 702.183594 131.0625 702.898438 130.222656 703.855469 129.625 C 704.816406 129.027344 705.890625 128.730469 707.089844 128.730469 C 708.941406 128.730469 710.4375 129.328125 711.457031 130.523438 C 712.472656 131.71875 713.011719 133.394531 713.011719 135.609375 L 713.011719 136.867188 L 703.976562 136.867188 C 704.097656 138.003906 704.457031 138.898438 705.113281 139.558594 C 705.773438 140.214844 706.609375 140.574219 707.625 140.574219 C 709.0625 140.574219 710.199219 139.976562 711.097656 138.839844 L 712.773438 140.457031 C 712.234375 141.292969 711.457031 141.953125 710.558594 142.371094 C 709.660156 142.847656 708.644531 143.027344 707.507812 143.027344 Z M 707.148438 131.183594 C 706.308594 131.183594 705.59375 131.480469 705.113281 132.078125 C 704.574219 132.675781 704.277344 133.515625 704.097656 134.59375 L 710.019531 134.59375 L 710.019531 134.351562 C 709.960938 133.335938 709.660156 132.558594 709.183594 132.019531 C 708.644531 131.480469 707.984375 131.183594 707.148438 131.183594 Z M 707.148438 131.183594 "/>
<path style=" stroke:none;fill-rule:nonzero;fill:rgb(0%,0%,0%);fill-opacity:1;" d="M 714.867188 135.789062 C 714.867188 133.636719 715.34375 131.960938 716.363281 130.644531 C 717.320312 129.328125 718.695312 128.730469 720.3125 128.730469 C 721.746094 128.730469 722.945312 129.207031 723.839844 130.285156 L 723.839844 123.222656 L 726.953125 123.222656 L 726.953125 142.847656 L 724.140625 142.847656 L 723.960938 141.414062 C 723.003906 142.550781 721.808594 143.089844 720.25 143.089844 C 718.636719 143.089844 717.320312 142.429688 716.300781 141.113281 C 715.40625 139.796875 714.867188 138.003906 714.867188 135.789062 Z M 717.976562 136.027344 C 717.976562 137.402344 718.277344 138.539062 718.816406 139.320312 C 719.355469 140.097656 720.132812 140.515625 721.148438 140.515625 C 722.40625 140.515625 723.363281 139.976562 723.960938 138.839844 L 723.960938 132.917969 C 723.363281 131.78125 722.464844 131.242188 721.207031 131.242188 C 720.191406 131.242188 719.414062 131.660156 718.875 132.4375 C 718.277344 133.214844 717.976562 134.414062 717.976562 136.027344 Z M 717.976562 136.027344 "/>
<path style=" stroke:none;fill-rule:nonzero;fill:rgb(0%,0%,0%);fill-opacity:1;" d="M 752.980469 136.746094 C 752.800781 138.71875 752.082031 140.277344 750.765625 141.414062 C 749.507812 142.550781 747.773438 143.089844 745.679688 143.089844 C 744.183594 143.089844 742.867188 142.730469 741.730469 142.011719 C 740.59375 141.292969 739.757812 140.335938 739.097656 139.019531 C 738.5 137.703125 738.140625 136.207031 738.140625 134.53125 L 738.140625 132.796875 C 738.140625 131.0625 738.441406 129.507812 739.097656 128.128906 C 739.695312 126.8125 740.59375 125.738281 741.789062 125.019531 C 742.925781 124.300781 744.304688 123.941406 745.800781 123.941406 C 747.832031 123.941406 749.507812 124.480469 750.765625 125.617188 C 752.023438 126.753906 752.738281 128.308594 752.917969 130.34375 L 749.6875 130.34375 C 749.507812 129.027344 749.148438 128.011719 748.492188 127.472656 C 747.832031 126.875 746.9375 126.574219 745.738281 126.574219 C 744.363281 126.574219 743.226562 127.113281 742.507812 128.128906 C 741.730469 129.148438 741.371094 130.644531 741.371094 132.617188 L 741.371094 134.234375 C 741.371094 136.265625 741.730469 137.761719 742.449219 138.839844 C 743.167969 139.917969 744.242188 140.394531 745.621094 140.394531 C 746.875 140.394531 747.832031 140.097656 748.492188 139.558594 C 749.148438 138.960938 749.507812 138.0625 749.6875 136.746094 Z M 752.980469 136.746094 "/>
<path style=" stroke:none;fill-rule:nonzero;fill:rgb(0%,0%,0%);fill-opacity:1;" d="M 755.011719 135.789062 C 755.011719 134.414062 755.253906 133.214844 755.789062 132.140625 C 756.328125 131.0625 757.105469 130.222656 758.066406 129.625 C 759.023438 129.027344 760.160156 128.730469 761.414062 128.730469 C 763.269531 128.730469 764.765625 129.328125 765.960938 130.523438 C 767.097656 131.71875 767.757812 133.335938 767.816406 135.308594 L 767.816406 136.027344 C 767.816406 137.402344 767.578125 138.601562 767.039062 139.679688 C 766.5 140.753906 765.78125 141.59375 764.765625 142.191406 C 763.808594 142.789062 762.671875 143.089844 761.414062 143.089844 C 759.441406 143.089844 757.886719 142.429688 756.75 141.171875 C 755.550781 139.855469 755.011719 138.121094 755.011719 135.96875 Z M 758.125 136.027344 C 758.125 137.464844 758.421875 138.539062 759.023438 139.378906 C 759.621094 140.15625 760.398438 140.574219 761.476562 140.574219 C 762.550781 140.574219 763.328125 140.15625 763.929688 139.378906 C 764.527344 138.539062 764.824219 137.34375 764.824219 135.789062 C 764.824219 134.414062 764.527344 133.277344 763.929688 132.496094 C 763.328125 131.660156 762.492188 131.300781 761.476562 131.300781 C 760.457031 131.300781 759.679688 131.71875 759.082031 132.496094 C 758.421875 133.214844 758.125 134.414062 758.125 136.027344 Z M 758.125 136.027344 "/>
<path style=" stroke:none;fill-rule:nonzero;fill:rgb(0%,0%,0%);fill-opacity:1;" d="M 773.382812 128.96875 L 773.5 130.402344 C 774.457031 129.265625 775.773438 128.730469 777.511719 128.730469 C 779.363281 128.730469 780.621094 129.445312 781.277344 130.882812 C 782.296875 129.445312 783.671875 128.730469 785.527344 128.730469 C 787.023438 128.730469 788.160156 129.148438 788.9375 129.984375 C 789.714844 130.824219 790.074219 132.078125 790.074219 133.695312 L 790.074219 142.789062 L 786.964844 142.789062 L 786.964844 133.8125 C 786.964844 132.917969 786.785156 132.320312 786.363281 131.898438 C 786.007812 131.480469 785.347656 131.300781 784.449219 131.300781 C 783.730469 131.300781 783.132812 131.480469 782.714844 131.898438 C 782.296875 132.257812 781.9375 132.796875 781.757812 133.394531 L 781.757812 142.847656 L 778.648438 142.847656 L 778.648438 133.753906 C 778.585938 132.140625 777.75 131.300781 776.132812 131.300781 C 774.878906 131.300781 773.980469 131.78125 773.5 132.796875 L 773.5 142.789062 L 770.390625 142.789062 L 770.390625 128.96875 Z M 773.382812 128.96875 "/>
<path style=" stroke:none;fill-rule:nonzero;fill:rgb(0%,0%,0%);fill-opacity:1;" d="M 805.390625 136.027344 C 805.390625 138.183594 804.914062 139.855469 803.957031 141.113281 C 802.996094 142.371094 801.683594 143.027344 800.007812 143.027344 C 798.511719 143.027344 797.253906 142.550781 796.355469 141.53125 L 796.355469 148.113281 L 793.246094 148.113281 L 793.246094 128.96875 L 796.117188 128.96875 L 796.238281 130.34375 C 797.132812 129.207031 798.390625 128.667969 799.945312 128.667969 C 801.621094 128.667969 802.9375 129.328125 803.894531 130.582031 C 804.851562 131.839844 805.332031 133.574219 805.332031 135.847656 Z M 802.28125 135.789062 C 802.28125 134.414062 801.980469 133.335938 801.441406 132.496094 C 800.902344 131.71875 800.125 131.300781 799.050781 131.300781 C 797.792969 131.300781 796.894531 131.839844 796.296875 132.855469 L 796.296875 139.019531 C 796.835938 140.097656 797.792969 140.636719 799.050781 140.636719 C 800.066406 140.636719 800.84375 140.214844 801.382812 139.4375 C 801.980469 138.601562 802.28125 137.402344 802.28125 135.789062 Z M 802.28125 135.789062 "/>
<path style=" stroke:none;fill-rule:nonzero;fill:rgb(0%,0%,0%);fill-opacity:1;" d="M 816.222656 142.789062 C 816.101562 142.550781 815.980469 142.070312 815.863281 141.53125 C 814.90625 142.550781 813.648438 143.089844 812.210938 143.089844 C 810.835938 143.089844 809.699219 142.667969 808.800781 141.890625 C 807.902344 141.113281 807.484375 140.097656 807.484375 138.960938 C 807.484375 137.464844 808.023438 136.328125 809.101562 135.550781 C 810.179688 134.773438 811.734375 134.351562 813.769531 134.351562 L 815.683594 134.351562 L 815.683594 133.457031 C 815.683594 132.738281 815.503906 132.140625 815.085938 131.71875 C 814.664062 131.300781 814.066406 131.0625 813.230469 131.0625 C 812.511719 131.0625 811.972656 131.242188 811.492188 131.601562 C 811.015625 131.960938 810.835938 132.378906 810.835938 132.976562 L 807.726562 132.976562 C 807.726562 132.199219 807.964844 131.480469 808.503906 130.824219 C 808.980469 130.164062 809.699219 129.625 810.535156 129.265625 C 811.375 128.90625 812.390625 128.730469 813.410156 128.730469 C 815.023438 128.730469 816.339844 129.148438 817.296875 129.925781 C 818.253906 130.761719 818.734375 131.898438 818.792969 133.335938 L 818.792969 139.558594 C 818.792969 140.816406 818.972656 141.773438 819.332031 142.550781 L 819.332031 142.789062 Z M 812.808594 140.515625 C 813.410156 140.515625 814.007812 140.335938 814.546875 140.097656 C 815.085938 139.796875 815.503906 139.378906 815.742188 138.898438 L 815.742188 136.265625 L 814.066406 136.265625 C 812.929688 136.265625 812.03125 136.445312 811.492188 136.867188 C 810.894531 137.285156 810.597656 137.824219 810.597656 138.539062 C 810.597656 139.140625 810.777344 139.617188 811.195312 139.976562 C 811.613281 140.335938 812.210938 140.515625 812.808594 140.515625 Z M 812.808594 140.515625 "/>
<path style=" stroke:none;fill-rule:nonzero;fill:rgb(0%,0%,0%);fill-opacity:1;" d="M 825.015625 128.96875 L 825.074219 130.582031 C 826.09375 129.328125 827.46875 128.730469 829.085938 128.730469 C 831.957031 128.730469 833.453125 130.402344 833.453125 133.695312 L 833.453125 142.847656 L 830.339844 142.847656 L 830.339844 133.875 C 830.339844 132.976562 830.160156 132.320312 829.800781 131.898438 C 829.445312 131.480469 828.785156 131.242188 827.949219 131.242188 C 826.691406 131.242188 825.734375 131.78125 825.136719 132.917969 L 825.136719 142.730469 L 822.023438 142.730469 L 822.023438 128.90625 Z M 825.015625 128.96875 "/>
<path style=" stroke:none;fill-rule:nonzero;fill:rgb(0%,0%,0%);fill-opacity:1;" d="M 841.53125 138.363281 L 844.339844 128.96875 L 847.632812 128.96875 L 842.128906 144.882812 C 841.289062 147.214844 839.855469 148.351562 837.820312 148.351562 C 837.339844 148.351562 836.863281 148.292969 836.324219 148.113281 L 836.324219 145.722656 L 836.921875 145.78125 C 837.699219 145.78125 838.296875 145.660156 838.71875 145.363281 C 839.136719 145.0625 839.433594 144.585938 839.675781 143.925781 L 840.152344 142.730469 L 835.308594 128.96875 L 838.65625 128.96875 Z M 841.53125 138.363281 "/>
</g>
</svg>
