<?xml version="1.0" encoding="UTF-8"?>
<svg xmlns="http://www.w3.org/2000/svg" xmlns:xlink="http://www.w3.org/1999/xlink" width="395px" height="150px" viewBox="0 0 388 150" version="1.1">
<defs>
<clipPath id="clip1">
  <path d="M 20 14 L 132 14 L 132 136 L 20 136 Z M 20 14 "/>
</clipPath>
<clipPath id="clip2">
  <path d="M 120.585938 38.402344 L 87.996094 18.328125 C 84.300781 16.050781 80.097656 14.898438 75.890625 14.898438 C 71.6875 14.898438 67.515625 16.050781 63.785156 18.328125 L 31.199219 38.402344 C 24.347656 42.613281 20.210938 50.085938 20.210938 58.101562 L 20.210938 90.675781 C 20.210938 103.445312 30.554688 113.804688 43.304688 113.804688 L 54.5625 113.804688 C 61.648438 123.453125 69.515625 130.789062 73.414062 134.183594 C 74.839844 135.441406 76.976562 135.441406 78.398438 134.183594 C 82.300781 130.789062 90.167969 123.453125 97.253906 113.804688 L 108.511719 113.804688 C 121.261719 113.804688 131.605469 103.445312 131.605469 90.675781 L 131.605469 58.101562 C 131.605469 50.050781 127.433594 42.613281 120.585938 38.402344 Z M 84.910156 110.339844 C 82.773438 112.957031 80.636719 115.367188 78.636719 117.472656 C 77.144531 119.035156 74.636719 119.035156 73.144531 117.472656 C 71.144531 115.367188 69.007812 112.992188 66.871094 110.339844 C 60.054688 101.917969 51.949219 89.179688 51.984375 76.476562 C 51.984375 69.652344 54.832031 63.265625 59.886719 58.644531 C 63.953125 54.941406 69.210938 52.769531 74.671875 52.496094 C 81.484375 52.15625 87.964844 54.671875 92.777344 59.496094 C 97.289062 64.011719 99.796875 70.058594 99.796875 76.476562 C 99.832031 89.179688 91.726562 101.882812 84.910156 110.339844 Z M 119.703125 90.675781 C 119.703125 96.855469 114.683594 101.882812 108.511719 101.882812 L 104.78125 101.882812 C 108.886719 94.039062 111.734375 85.375 111.734375 76.445312 C 111.699219 56.640625 95.695312 40.574219 75.925781 40.574219 C 56.15625 40.574219 40.148438 56.640625 40.117188 76.445312 C 40.082031 85.410156 42.964844 94.070312 47.066406 101.882812 L 43.335938 101.882812 C 37.164062 101.882812 32.148438 96.855469 32.148438 90.675781 L 32.148438 58.101562 C 32.148438 54.230469 34.179688 50.5625 37.472656 48.558594 L 70.058594 28.484375 C 71.820312 27.398438 73.855469 26.820312 75.925781 26.820312 C 77.992188 26.820312 80.027344 27.398438 81.792969 28.484375 L 114.378906 48.558594 C 117.667969 50.59375 119.703125 54.265625 119.703125 58.101562 Z M 74.773438 68.191406 L 74.773438 75.695312 C 74.773438 76.410156 74.195312 76.988281 73.484375 76.988281 L 65.988281 76.988281 C 65.277344 76.988281 64.699219 76.410156 64.699219 75.695312 L 64.699219 68.191406 C 64.699219 67.476562 65.277344 66.898438 65.988281 66.898438 L 73.484375 66.898438 C 74.160156 66.863281 74.773438 67.441406 74.773438 68.191406 Z M 74.773438 80.585938 L 74.773438 88.09375 C 74.773438 88.808594 74.195312 89.382812 73.484375 89.382812 L 65.988281 89.382812 C 65.277344 89.382812 64.699219 88.808594 64.699219 88.09375 L 64.699219 80.585938 C 64.699219 79.875 65.277344 79.296875 65.988281 79.296875 L 73.484375 79.296875 C 74.160156 79.261719 74.773438 79.875 74.773438 80.585938 Z M 87.148438 80.585938 L 87.148438 88.09375 C 87.148438 88.808594 86.574219 89.382812 85.859375 89.382812 L 78.332031 89.382812 C 77.621094 89.382812 77.042969 88.808594 77.042969 88.09375 L 77.042969 80.585938 C 77.042969 79.875 77.621094 79.296875 78.332031 79.296875 L 85.828125 79.296875 C 86.574219 79.261719 87.148438 79.875 87.148438 80.585938 Z M 87.148438 68.191406 L 87.148438 75.695312 C 87.148438 76.410156 86.574219 76.988281 85.859375 76.988281 L 78.332031 76.988281 C 77.621094 76.988281 77.042969 76.410156 77.042969 75.695312 L 77.042969 68.191406 C 77.042969 67.476562 77.621094 66.898438 78.332031 66.898438 L 85.828125 66.898438 C 86.574219 66.863281 87.148438 67.441406 87.148438 68.191406 Z M 87.148438 68.191406 "/>
</clipPath>
<linearGradient id="linear0" gradientUnits="userSpaceOnUse" x1="6.2359" y1="33.5114" x2="42.4525" y2="7.2039" gradientTransform="matrix(3.391016,0,0,3.396577,0,1.005566)">
<stop offset="0" style="stop-color:rgb(51.372549%,76.078431%,30.588235%);stop-opacity:1;"/>
<stop offset="1" style="stop-color:rgb(15.294118%,66.27451%,87.843137%);stop-opacity:1;"/>
</linearGradient>
</defs>
<g id="surface1">
<path style=" stroke:none;fill-rule:nonzero;fill:rgb(25.098039%,25.882353%,59.607843%);fill-opacity:1;" d="M 205.121094 54.128906 C 204.375 48.898438 201.800781 45.128906 196.710938 43.292969 C 195.933594 43.019531 195.152344 42.75 194.371094 42.511719 C 190.066406 41.289062 185.625 40.746094 181.183594 40.710938 C 169.992188 40.574219 158.765625 40.609375 147.578125 40.574219 C 147.375 40.574219 147.203125 40.574219 147 40.574219 C 146.253906 40.507812 145.949219 40.882812 146.015625 41.59375 C 146.050781 41.96875 146.015625 42.375 146.015625 42.75 C 146.015625 65.878906 146.015625 89.042969 146.015625 112.175781 C 146.015625 112.785156 146.015625 113.398438 146.015625 113.90625 C 146.527344 114.144531 146.730469 113.976562 146.933594 113.804688 C 152.359375 109.867188 157.75 105.960938 163.175781 102.054688 C 163.855469 101.578125 164.023438 101.035156 163.988281 100.289062 C 163.957031 97.296875 163.957031 94.308594 163.988281 91.285156 C 163.988281 89.792969 164.023438 89.792969 165.449219 89.757812 C 166.226562 89.722656 166.972656 89.757812 167.753906 89.757812 C 173.417969 89.722656 179.078125 89.929688 184.707031 89.28125 C 188.949219 88.808594 193.152344 88.09375 197.050781 86.292969 C 200.75 84.59375 203.15625 81.777344 204.375 77.9375 C 205.121094 75.664062 205.359375 73.320312 205.394531 70.976562 C 205.425781 66.898438 205.394531 62.824219 205.425781 58.746094 C 205.425781 57.152344 205.359375 55.621094 205.121094 54.128906 Z M 187.929688 71.007812 C 187.863281 73.453125 186.574219 75.1875 184.300781 76.171875 C 182.539062 76.917969 180.640625 77.257812 178.742188 77.328125 C 174.230469 77.429688 169.71875 77.394531 165.210938 77.460938 C 164.160156 77.460938 163.957031 77.019531 163.957031 76.105469 C 163.988281 72.539062 163.957031 68.972656 163.957031 65.40625 C 163.957031 61.972656 163.957031 58.507812 163.957031 55.078125 C 163.957031 53.449219 163.988281 53.414062 165.480469 53.414062 C 170.433594 53.449219 175.417969 53.246094 180.367188 53.652344 C 181.894531 53.789062 183.421875 53.992188 184.84375 54.5 C 186.777344 55.179688 187.929688 56.609375 187.964844 58.644531 C 188.03125 62.722656 188.03125 66.863281 187.929688 71.007812 Z M 187.929688 71.007812 "/>
<path style=" stroke:none;fill-rule:nonzero;fill:rgb(25.098039%,25.882353%,59.607843%);fill-opacity:1;" d="M 386.882812 112.753906 C 380.167969 102.664062 373.453125 92.609375 366.773438 82.523438 C 365.824219 81.097656 365.890625 81.335938 366.839844 80.113281 C 367.007812 79.90625 367.144531 79.703125 367.316406 79.5 C 373.316406 71.960938 379.285156 64.453125 385.289062 56.914062 C 385.660156 56.4375 386.238281 56.0625 386.167969 55.25 C 383.355469 55.25 380.640625 55.25 377.929688 55.25 C 370.027344 55.28125 363.652344 58.40625 358.90625 64.792969 C 355.414062 69.515625 351.886719 74.167969 348.359375 78.890625 C 347.917969 79.5 347.445312 80.113281 346.96875 80.6875 C 346.800781 80.65625 346.664062 80.621094 346.492188 80.554688 C 346.492188 67.410156 346.492188 54.296875 346.492188 41.015625 C 346.085938 41.1875 345.917969 41.253906 345.78125 41.355469 C 341.273438 44.6875 336.761719 48.015625 332.285156 51.375 C 331.097656 52.261719 330.21875 53.449219 329.574219 54.773438 C 328.757812 56.472656 328.589844 58.304688 328.589844 60.175781 C 328.625 75.152344 328.589844 90.132812 328.589844 105.144531 C 328.589844 107.894531 328.589844 110.613281 328.589844 113.363281 C 328.589844 114.824219 328.625 114.859375 330.046875 114.859375 C 333.371094 114.859375 336.660156 114.859375 339.984375 114.859375 C 341.78125 114.859375 343.542969 114.789062 345.339844 114.894531 C 346.390625 114.925781 346.699219 114.519531 346.59375 113.566406 C 346.5625 113.195312 346.59375 112.785156 346.59375 112.414062 C 346.59375 102.972656 346.59375 93.527344 346.59375 84.085938 C 346.59375 83.472656 346.59375 82.863281 346.59375 82.015625 C 347.445312 82.589844 347.679688 83.269531 348.054688 83.8125 C 353.140625 91.695312 358.160156 99.574219 363.246094 107.453125 C 366.398438 112.3125 370.910156 114.757812 376.707031 114.859375 C 380.066406 114.925781 383.457031 114.894531 386.8125 114.859375 C 387.21875 114.859375 387.695312 115.097656 388.035156 114.484375 C 387.628906 113.941406 387.253906 113.332031 386.882812 112.753906 Z M 386.882812 112.753906 "/>
<path style=" stroke:none;fill-rule:nonzero;fill:rgb(25.098039%,25.882353%,59.607843%);fill-opacity:1;" d="M 325.910156 112.855469 C 325.910156 101.714844 325.910156 90.539062 325.910156 79.398438 C 325.910156 77.359375 325.84375 75.324219 325.46875 73.320312 C 324.554688 68.089844 321.773438 64.488281 316.550781 62.960938 C 313.601562 62.109375 310.582031 61.566406 307.566406 61.363281 C 299.496094 60.886719 291.425781 61.023438 283.351562 62.042969 C 282.097656 62.210938 282.066406 62.210938 282.03125 63.570312 C 281.996094 65.914062 281.996094 68.292969 282.03125 70.636719 C 282.03125 72.097656 282.066406 72.128906 283.523438 72.027344 C 287.117188 71.722656 290.746094 71.316406 294.339844 71.042969 C 298.105469 70.738281 301.835938 70.769531 305.53125 71.585938 C 308.039062 72.128906 309.363281 73.726562 309.734375 76.171875 C 310.007812 77.800781 309.9375 79.464844 309.972656 81.128906 C 309.972656 82.148438 309.601562 82.421875 308.617188 82.421875 C 304.785156 82.386719 300.988281 82.386719 297.15625 82.386719 C 294.476562 82.386719 291.796875 82.320312 289.152344 82.726562 C 281.996094 83.8125 279.726562 86.804688 278.640625 91.660156 C 277.417969 97.128906 277.554688 102.664062 278.84375 108.132812 C 279.726562 111.769531 282.03125 113.941406 285.625 114.894531 C 287.796875 115.4375 290 115.675781 292.238281 115.84375 C 295.425781 116.117188 298.613281 116.011719 301.765625 115.570312 C 305.054688 115.097656 307.9375 113.703125 310.242188 110.917969 C 310.242188 111.835938 310.277344 112.753906 310.242188 113.671875 C 310.210938 114.453125 310.449219 114.824219 311.296875 114.824219 C 315.804688 114.789062 320.347656 114.789062 324.859375 114.824219 C 325.605469 114.824219 325.875 114.519531 325.84375 113.804688 C 325.875 113.5 325.910156 113.195312 325.910156 112.855469 Z M 309.972656 101.644531 C 309.90625 104.195312 308.785156 105.347656 306.277344 105.652344 C 303.5625 106.027344 300.816406 106.09375 298.105469 105.925781 C 295.050781 105.757812 294.136719 104.804688 293.695312 101.78125 C 293.355469 99.4375 293.425781 97.09375 293.796875 94.75 C 294.203125 92.273438 295.425781 91.21875 297.902344 91.152344 C 299.664062 91.117188 301.460938 91.152344 303.226562 91.152344 C 305.054688 91.152344 306.921875 91.183594 308.753906 91.152344 C 309.632812 91.117188 310.007812 91.386719 310.007812 92.339844 C 309.972656 95.429688 310.039062 98.554688 309.972656 101.644531 Z M 309.972656 101.644531 "/>
<path style=" stroke:none;fill-rule:nonzero;fill:rgb(25.098039%,25.882353%,59.607843%);fill-opacity:1;" d="M 253.988281 102.15625 C 251.648438 102.664062 249.476562 103.105469 247.308594 103.582031 C 242.253906 104.703125 237.167969 105.347656 231.980469 104.976562 C 230.316406 104.839844 228.691406 104.636719 227.128906 104.058594 C 223.976562 102.9375 222.417969 100.761719 222.347656 97.433594 C 222.316406 95.839844 222.316406 94.242188 222.347656 92.644531 C 222.347656 91.183594 222.382812 91.152344 223.808594 91.152344 C 230.417969 91.152344 237.03125 91.152344 243.679688 91.152344 C 246.664062 91.152344 249.648438 91.152344 252.664062 91.152344 C 253.988281 91.152344 254.019531 91.117188 254.019531 89.757812 C 254.019531 86.394531 254.019531 83 254.019531 79.636719 C 254.019531 77.902344 253.917969 76.207031 253.683594 74.507812 C 252.902344 68.902344 250.054688 64.929688 244.660156 62.992188 C 243.710938 62.652344 242.730469 62.347656 241.746094 62.109375 C 236.625 60.851562 231.402344 60.75 226.179688 61.160156 C 222.550781 61.429688 218.992188 62.074219 215.601562 63.503906 C 209.902344 65.878906 206.917969 70.296875 206.613281 76.339844 C 206.207031 84.1875 206.378906 92.035156 206.546875 99.847656 C 206.683594 105.585938 209.597656 109.527344 214.753906 111.902344 C 218.210938 113.5 221.90625 114.144531 225.636719 114.519531 C 231.4375 115.128906 237.203125 114.894531 242.964844 114.078125 C 246.222656 113.601562 249.476562 112.992188 252.730469 112.414062 C 253.34375 112.3125 254.019531 112.277344 253.988281 111.328125 C 253.988281 108.304688 253.988281 105.3125 253.988281 102.15625 Z M 222.347656 75.289062 C 222.382812 73.113281 223.332031 71.585938 225.402344 70.941406 C 228.824219 69.921875 232.320312 69.820312 235.710938 70.875 C 237.980469 71.550781 238.964844 73.046875 239 75.457031 C 239.03125 77.496094 238.964844 79.535156 239.03125 81.574219 C 239.066406 82.558594 238.726562 82.929688 237.710938 82.898438 C 235.371094 82.828125 232.996094 82.898438 230.65625 82.863281 C 228.316406 82.863281 225.945312 82.828125 223.605469 82.863281 C 222.621094 82.898438 222.246094 82.558594 222.28125 81.539062 C 222.382812 79.5 222.316406 77.394531 222.347656 75.289062 Z M 222.347656 75.289062 "/>
<path style=" stroke:none;fill-rule:nonzero;fill:rgb(25.098039%,25.882353%,59.607843%);fill-opacity:1;" d="M 274.636719 42.75 C 274.636719 42.171875 274.636719 41.59375 274.636719 40.914062 C 274.300781 40.949219 274.128906 40.914062 274.0625 40.984375 C 269.449219 44.378906 264.804688 47.742188 260.261719 51.242188 C 257.921875 53.042969 256.769531 55.589844 256.769531 58.578125 C 256.734375 76.816406 256.769531 95.023438 256.769531 113.261719 C 256.769531 114.824219 256.800781 114.859375 258.328125 114.859375 C 262.972656 114.859375 267.617188 114.859375 272.265625 114.859375 C 274.910156 114.859375 274.636719 115.164062 274.636719 112.550781 C 274.636719 89.28125 274.636719 66.015625 274.636719 42.75 Z M 274.636719 42.75 "/>
<g clip-path="url(#clip1)" clip-rule="nonzero">
<g clip-path="url(#clip2)" clip-rule="nonzero">
<path style=" stroke:none;fill-rule:nonzero;fill:url(#linear0);" d="M 0 1.003906 L 151.78125 1.003906 L 151.78125 148.996094 L 0 148.996094 Z M 0 1.003906 "/>
</g>
</g>
</g>
</svg>
