<?xml version="1.0" encoding="UTF-8"?>
<svg xmlns="http://www.w3.org/2000/svg" xmlns:xlink="http://www.w3.org/1999/xlink" width="204px" height="150px" viewBox="0 0 205 150" version="1.1">
<defs>
<linearGradient id="linear0" gradientUnits="userSpaceOnUse" x1="37.576" y1="24.3596" x2="59.4921" y2="-10.452" gradientTransform="matrix(1.962889,0,0,1.965409,0.459213,0)">
<stop offset="0.1654" style="stop-color:rgb(82.352941%,12.54902%,15.294118%);stop-opacity:1;"/>
<stop offset="0.8363" style="stop-color:rgb(59.607843%,10.588235%,11.764706%);stop-opacity:1;"/>
</linearGradient>
<linearGradient id="linear1" gradientUnits="userSpaceOnUse" x1="24.9133" y1="39.9627" x2="73.1065" y2="27.1812" gradientTransform="matrix(1.962889,0,0,1.965409,0.459213,0)">
<stop offset="0.3155" style="stop-color:rgb(82.352941%,12.54902%,15.294118%);stop-opacity:1;"/>
<stop offset="0.8363" style="stop-color:rgb(59.607843%,10.588235%,11.764706%);stop-opacity:1;"/>
</linearGradient>
<clipPath id="clip1">
  <path d="M 49 34 L 144 34 L 144 90 L 49 90 Z M 49 34 "/>
</clipPath>
<clipPath id="clip2">
  <path d="M 136.371094 5.996094 L 106.886719 62.792969 C 105.652344 65.171875 104.082031 67.257812 102.097656 69.023438 C 97.957031 72.660156 91.144531 72.542969 87.003906 68.808594 C 84.058594 66.15625 82.410156 62.65625 80.644531 59.277344 L 56.65625 13.421875 C 54.929688 10.101562 57.363281 6.152344 61.09375 6.210938 C 65.941406 6.289062 70.359375 9.082031 72.476562 13.464844 L 94.699219 59.058594 L 120.351562 7.46875 C 122.707031 2.730469 127.613281 -0.175781 132.875 0.0195312 C 135.878906 0.117188 137.742188 3.320312 136.371094 5.996094 Z M 142.671875 77.222656 C 140.492188 72.503906 138.078125 67.90625 135.546875 63.363281 C 133.542969 59.433594 131.539062 55.484375 129.539062 51.550781 C 129.007812 50.511719 128.339844 49.546875 127.851562 48.449219 C 126.828125 46.148438 125.90625 43.769531 124.433594 41.6875 C 122.964844 39.621094 120.019531 39.660156 118.839844 41.84375 C 116.917969 45.363281 115.113281 48.957031 113.265625 52.515625 C 113.050781 52.890625 112.816406 53.242188 112.617188 53.617188 C 110.046875 58.332031 107.828125 63.246094 104.945312 67.785156 C 100.015625 75.609375 90.066406 75.355469 85.257812 68.945312 C 82.722656 65.585938 80.859375 61.871094 79.015625 58.175781 C 76.285156 52.691406 73.300781 47.347656 70.535156 41.882812 C 69.90625 40.625 68.867188 39.976562 67.472656 40.015625 C 66.15625 40.035156 65.195312 40.664062 64.585938 41.902344 C 63.191406 44.695312 61.722656 47.445312 60.289062 50.214844 C 55.792969 58.941406 51.316406 67.6875 46.824219 76.414062 C 45.390625 79.207031 45.253906 82.035156 46.625 84.867188 C 47.785156 87.265625 49.707031 88.875 52.417969 88.933594 C 54.929688 88.992188 56.851562 87.617188 58.070312 85.378906 C 59.445312 82.863281 60.777344 80.328125 62.09375 77.769531 C 65.609375 70.992188 69.082031 64.191406 72.574219 57.410156 C 72.851562 56.859375 73.007812 55.933594 73.597656 55.957031 C 74.304688 55.957031 74.441406 56.917969 74.714844 57.488281 C 79.191406 66.332031 83.644531 75.214844 88.121094 84.058594 C 88.574219 84.964844 89.101562 85.847656 89.691406 86.675781 C 92.28125 90.269531 97.425781 89.722656 99.410156 86.753906 C 100.585938 85.003906 101.507812 83.175781 102.429688 81.308594 C 106.023438 74.117188 109.890625 67.039062 113.285156 59.75 C 113.933594 58.371094 114.679688 57.035156 115.699219 55.640625 C 117.957031 60.023438 120.15625 64.25 122.335938 68.476562 C 125.199219 74.054688 128.046875 79.636719 130.953125 85.199219 C 132.128906 87.460938 134.015625 88.953125 136.644531 88.933594 C 139.332031 88.914062 141.179688 87.363281 142.433594 85.0625 C 143.867188 82.527344 143.867188 79.816406 142.671875 77.222656 Z M 142.671875 77.222656 "/>
</clipPath>
<linearGradient id="linear2" gradientUnits="userSpaceOnUse" x1="49.2351" y1="73.5181" x2="67.7057" y2="17.6156" gradientTransform="matrix(1.959356,-0.118514,0.118362,1.961871,-13.510472,11.665881)">
<stop offset="0.7074" style="stop-color:rgb(82.352941%,12.54902%,15.294118%);stop-opacity:1;"/>
<stop offset="1" style="stop-color:rgb(46.27451%,6.27451%,7.058824%);stop-opacity:1;"/>
</linearGradient>
</defs>
<g id="surface1">
<path style=" stroke:none;fill-rule:nonzero;fill:rgb(11.764706%,11.372549%,11.764706%);fill-opacity:1;" d="M 15.789062 133.765625 C 14.101562 132.800781 13.277344 131.230469 12.511719 129.5 C 8.78125 121.1875 4.992188 112.894531 1.226562 104.597656 C 0.96875 104.027344 0.675781 103.441406 0.558594 102.832031 C 0.222656 101.179688 1.046875 99.625 2.519531 98.976562 C 4.070312 98.289062 6.09375 98.761719 7.152344 100.136719 C 7.566406 100.667969 7.859375 101.296875 8.152344 101.925781 C 10.921875 108 13.667969 114.09375 16.417969 120.164062 C 16.613281 120.597656 16.847656 121.03125 17.144531 121.640625 C 19.285156 116.921875 21.363281 112.363281 23.425781 107.800781 C 24.40625 105.621094 25.40625 103.460938 26.390625 101.277344 C 26.9375 100.058594 27.820312 99.15625 29.136719 98.839844 C 30.609375 98.488281 31.984375 98.722656 32.984375 99.980469 C 33.984375 101.21875 33.945312 102.574219 33.316406 103.96875 C 30.667969 109.828125 28 115.683594 25.328125 121.539062 C 24.015625 124.429688 22.640625 127.28125 21.421875 130.1875 C 20.734375 131.839844 19.792969 133.097656 18.144531 133.785156 C 17.339844 133.765625 16.554688 133.765625 15.789062 133.765625 Z M 15.789062 133.765625 "/>
<path style=" stroke:none;fill-rule:nonzero;fill:rgb(11.764706%,11.372549%,11.764706%);fill-opacity:1;" d="M 80.484375 125.234375 C 80.484375 127.28125 80.484375 128.890625 80.484375 130.503906 C 80.484375 131.78125 79.859375 132.625 78.640625 133.019531 C 77.484375 133.390625 76.421875 133.078125 75.792969 132.09375 C 75.285156 131.269531 74.910156 131.566406 74.324219 131.859375 C 67.375 135.320312 59.464844 131.425781 57.972656 123.820312 C 56.8125 117.886719 60.621094 112.046875 66.609375 110.632812 C 72.417969 109.257812 78.484375 112.875 80.074219 118.652344 C 80.703125 120.972656 80.40625 123.328125 80.484375 125.234375 Z M 69.140625 127.929688 C 72.632812 127.929688 75.363281 125.214844 75.34375 121.757812 C 75.34375 118.296875 72.574219 115.546875 69.101562 115.566406 C 65.648438 115.566406 62.917969 118.296875 62.9375 121.777344 C 62.957031 125.316406 65.609375 127.929688 69.140625 127.929688 Z M 69.140625 127.929688 "/>
<path style=" stroke:none;fill-rule:nonzero;fill:rgb(11.764706%,11.372549%,11.764706%);fill-opacity:1;" d="M 43.917969 125.136719 C 44.054688 123.40625 43.703125 121.304688 44.191406 119.203125 C 45.429688 114.09375 49.824219 110.476562 55.027344 110.339844 C 56.773438 110.296875 57.363281 110.789062 57.421875 112.324219 C 57.539062 114.996094 57.226562 115.46875 55.300781 115.566406 C 51.671875 115.742188 49.257812 118.257812 49.21875 121.894531 C 49.199219 124.683594 49.238281 127.476562 49.199219 130.265625 C 49.179688 131.683594 48.472656 132.703125 47.058594 133.058594 C 45.878906 133.332031 44.976562 132.800781 44.289062 131.859375 C 43.9375 131.347656 43.917969 130.757812 43.917969 130.167969 C 43.917969 128.636719 43.917969 127.0625 43.917969 125.136719 Z M 43.917969 125.136719 "/>
<path style=" stroke:none;fill-rule:nonzero;fill:rgb(11.764706%,11.372549%,11.764706%);fill-opacity:1;" d="M 35.4375 121.738281 C 35.4375 118.945312 35.417969 116.15625 35.4375 113.363281 C 35.457031 111.578125 36.4375 110.4375 37.988281 110.398438 C 39.558594 110.359375 40.71875 111.554688 40.71875 113.363281 C 40.738281 118.945312 40.738281 124.527344 40.71875 130.109375 C 40.71875 131.9375 39.617188 133.175781 38.066406 133.175781 C 36.515625 133.175781 35.457031 131.957031 35.4375 130.109375 C 35.417969 127.320312 35.4375 124.527344 35.4375 121.738281 Z M 35.4375 121.738281 "/>
<path style=" stroke:none;fill-rule:nonzero;fill:rgb(11.764706%,11.372549%,11.764706%);fill-opacity:1;" d="M 38.027344 107.527344 C 36.597656 107.507812 35.4375 106.328125 35.4375 104.894531 C 35.4375 103.398438 36.65625 102.261719 38.167969 102.300781 C 39.597656 102.359375 40.757812 103.578125 40.699219 104.972656 C 40.660156 106.367188 39.402344 107.546875 38.027344 107.527344 Z M 38.027344 107.527344 "/>
<path style=" stroke:none;fill-rule:nonzero;fill:rgb(82.745098%,13.72549%,15.686275%);fill-opacity:1;" d="M 90.046875 133.765625 C 87.945312 132.449219 87.414062 131.015625 88.199219 128.558594 C 91.085938 119.535156 93.992188 110.515625 96.914062 101.492188 C 97.386719 100.019531 98.152344 98.800781 99.898438 98.703125 C 101.664062 98.605469 102.488281 99.804688 103.136719 101.179688 C 105.160156 105.542969 107.179688 109.925781 109.203125 114.308594 C 109.753906 114.191406 109.753906 113.660156 109.929688 113.324219 C 111.734375 109.453125 113.523438 105.5625 115.308594 101.671875 C 115.40625 101.453125 115.503906 101.21875 115.621094 101.003906 C 116.328125 99.707031 117.152344 98.566406 118.839844 98.703125 C 120.507812 98.839844 121.273438 100 121.746094 101.414062 C 122.707031 104.324219 123.628906 107.234375 124.574219 110.160156 C 126.535156 116.214844 128.5 122.289062 130.441406 128.339844 C 131.285156 130.933594 130.894531 132.152344 128.8125 133.765625 C 128.222656 133.765625 127.636719 133.765625 127.046875 133.765625 C 125.769531 132.960938 125.042969 131.800781 124.613281 130.347656 C 123.511719 126.671875 122.296875 123.035156 121.097656 119.378906 C 120.234375 116.746094 119.371094 114.113281 118.410156 111.222656 C 117.878906 112.34375 117.46875 113.167969 117.09375 114.011719 C 115.503906 117.453125 113.933594 120.910156 112.34375 124.351562 C 111.753906 125.628906 111.046875 126.789062 109.398438 126.808594 C 107.75 126.828125 106.984375 125.746094 106.414062 124.429688 C 106.335938 124.253906 106.257812 124.078125 106.179688 123.898438 C 104.433594 120.105469 102.6875 116.292969 100.917969 112.519531 C 100.761719 112.164062 100.761719 111.617188 100.195312 111.554688 C 98.132812 117.90625 96.070312 124.234375 94.050781 130.582031 C 93.597656 131.996094 92.929688 133.136719 91.558594 133.804688 C 91.027344 133.765625 90.535156 133.765625 90.046875 133.765625 Z M 90.046875 133.765625 "/>
<path style=" stroke:none;fill-rule:nonzero;fill:rgb(82.745098%,13.72549%,15.686275%);fill-opacity:1;" d="M 172.25 124.390625 C 174.214844 127.871094 177.984375 128.96875 180.984375 126.886719 C 182.222656 126.023438 183.402344 125.804688 184.773438 125.863281 C 185.894531 125.902344 187.011719 125.863281 188.210938 125.863281 C 188.050781 127.101562 187.347656 127.988281 186.660156 128.851562 C 183.578125 132.78125 178.199219 134.199219 173.46875 132.3125 C 168.816406 130.464844 165.929688 125.707031 166.382812 120.65625 C 166.8125 115.878906 170.5625 111.65625 175.3125 110.613281 C 183.085938 108.902344 190.191406 115.644531 188.996094 123.546875 C 188.835938 124.527344 188.269531 124.390625 187.640625 124.390625 C 183.046875 124.390625 178.453125 124.390625 173.859375 124.390625 C 173.390625 124.390625 172.898438 124.390625 172.25 124.390625 Z M 172.171875 119.242188 C 175.746094 119.242188 179.140625 119.242188 182.515625 119.242188 C 183.28125 119.242188 183.164062 118.867188 182.851562 118.414062 C 181.535156 116.527344 179.671875 115.507812 177.414062 115.644531 C 175.117188 115.761719 173.3125 116.882812 172.171875 119.242188 Z M 172.171875 119.242188 "/>
<path style=" stroke:none;fill-rule:nonzero;fill:rgb(82.745098%,13.72549%,15.686275%);fill-opacity:1;" d="M 164.417969 125.53125 C 164.417969 127.140625 164.457031 128.753906 164.398438 130.367188 C 164.339844 132.015625 163.242188 133.15625 161.808594 133.15625 C 160.375 133.15625 159.257812 132.015625 159.238281 130.367188 C 159.199219 127.574219 159.277344 124.785156 159.199219 121.992188 C 159.042969 116.980469 154.191406 114.03125 150.050781 116.429688 C 148.050781 117.589844 146.96875 119.359375 146.96875 121.71875 C 146.96875 124.546875 146.988281 127.398438 146.949219 130.226562 C 146.929688 131.839844 145.96875 133 144.574219 133.097656 C 143.257812 133.195312 142.335938 132.566406 141.828125 131.328125 C 141.769531 131.191406 141.6875 131.054688 141.6875 130.914062 C 141.789062 126.964844 141.21875 122.976562 141.984375 119.066406 C 142.984375 113.894531 148.304688 109.945312 153.464844 110.320312 C 159.414062 110.75 163.929688 115.015625 164.300781 120.65625 C 164.398438 122.269531 164.320312 123.878906 164.320312 125.492188 C 164.378906 125.53125 164.398438 125.53125 164.417969 125.53125 Z M 164.417969 125.53125 "/>
<path style=" stroke:none;fill-rule:nonzero;fill:rgb(82.745098%,13.72549%,15.686275%);fill-opacity:1;" d="M 191.015625 125.195312 C 191.152344 123.449219 190.820312 121.34375 191.292969 119.261719 C 192.390625 114.210938 197.199219 110.296875 202.363281 110.339844 C 204.03125 110.359375 204.5 110.828125 204.519531 112.539062 C 204.519531 112.972656 204.519531 113.421875 204.519531 113.855469 C 204.539062 114.996094 203.992188 115.527344 202.851562 115.605469 C 198.378906 115.941406 196.316406 118.179688 196.296875 122.679688 C 196.296875 125.117188 196.296875 127.574219 196.296875 130.011719 C 196.296875 131.9375 195.21875 133.195312 193.609375 133.175781 C 192.058594 133.15625 191.015625 131.9375 190.996094 130.089844 C 191.015625 128.578125 191.015625 127.0625 191.015625 125.195312 Z M 191.015625 125.195312 "/>
<path style=" stroke:none;fill-rule:nonzero;fill:rgb(82.745098%,13.72549%,15.686275%);fill-opacity:1;" d="M 134.5625 121.816406 C 134.5625 119.023438 134.542969 116.234375 134.5625 113.445312 C 134.582031 111.554688 135.605469 110.378906 137.15625 110.359375 C 138.667969 110.339844 139.84375 111.597656 139.84375 113.402344 C 139.882812 118.984375 139.882812 124.566406 139.84375 130.148438 C 139.824219 131.976562 138.667969 133.195312 137.117188 133.15625 C 135.585938 133.117188 134.5625 131.898438 134.542969 130.03125 C 134.5625 127.320312 134.5625 124.566406 134.5625 121.816406 Z M 134.5625 121.816406 "/>
<path style=" stroke:none;fill-rule:nonzero;fill:rgb(82.745098%,13.72549%,15.686275%);fill-opacity:1;" d="M 134.601562 104.855469 C 134.621094 103.359375 135.703125 102.300781 137.214844 102.300781 C 138.6875 102.300781 139.84375 103.417969 139.882812 104.855469 C 139.921875 106.269531 138.566406 107.585938 137.15625 107.546875 C 135.722656 107.507812 134.582031 106.289062 134.601562 104.855469 Z M 134.601562 104.855469 "/>
<path style=" stroke:none;fill-rule:nonzero;fill:url(#linear0);" d="M 132.875 0 C 127.59375 -0.195312 122.6875 2.710938 120.351562 7.449219 L 94.699219 59.039062 L 72.476562 13.445312 C 70.339844 9.082031 65.941406 6.269531 61.09375 6.191406 C 57.363281 6.132812 54.929688 10.101562 56.65625 13.402344 L 80.644531 59.238281 C 82.410156 62.636719 84.058594 66.117188 87.003906 68.769531 C 91.144531 72.503906 97.957031 72.621094 102.097656 68.984375 C 104.082031 67.238281 105.652344 65.132812 106.886719 62.753906 L 136.371094 5.957031 C 137.742188 3.320312 135.878906 0.117188 132.875 0 Z M 132.875 0 "/>
<path style=" stroke:none;fill-rule:nonzero;fill:url(#linear1);" d="M 142.671875 77.222656 C 140.492188 72.503906 138.078125 67.90625 135.546875 63.363281 C 133.542969 59.433594 131.539062 55.484375 129.539062 51.550781 C 129.007812 50.511719 128.339844 49.546875 127.851562 48.449219 C 126.828125 46.148438 125.90625 43.769531 124.433594 41.6875 C 122.964844 39.621094 120.019531 39.660156 118.839844 41.84375 C 116.917969 45.363281 115.113281 48.957031 113.265625 52.515625 C 113.050781 52.890625 112.816406 53.242188 112.617188 53.617188 C 110.046875 58.332031 107.828125 63.246094 104.945312 67.785156 C 100.015625 75.609375 90.066406 75.355469 85.257812 68.945312 C 82.722656 65.585938 80.859375 61.871094 79.015625 58.175781 C 76.285156 52.691406 73.300781 47.347656 70.535156 41.882812 C 69.90625 40.625 68.867188 39.976562 67.472656 40.015625 C 66.15625 40.035156 65.195312 40.664062 64.585938 41.902344 C 63.191406 44.695312 61.722656 47.445312 60.289062 50.214844 C 55.792969 58.941406 51.316406 67.6875 46.824219 76.414062 C 45.390625 79.207031 45.253906 82.035156 46.625 84.867188 C 47.785156 87.265625 49.707031 88.875 52.417969 88.933594 C 54.929688 88.992188 56.851562 87.617188 58.070312 85.378906 C 59.445312 82.863281 60.777344 80.328125 62.09375 77.769531 C 65.609375 70.992188 69.082031 64.191406 72.574219 57.410156 C 72.851562 56.859375 73.007812 55.933594 73.597656 55.957031 C 74.304688 55.957031 74.441406 56.917969 74.714844 57.488281 C 79.191406 66.332031 83.644531 75.214844 88.121094 84.058594 C 88.574219 84.964844 89.101562 85.847656 89.691406 86.675781 C 92.28125 90.269531 97.425781 89.722656 99.410156 86.753906 C 100.585938 85.003906 101.507812 83.175781 102.429688 81.308594 C 106.023438 74.117188 109.890625 67.039062 113.285156 59.75 C 113.933594 58.371094 114.679688 57.035156 115.699219 55.640625 C 117.957031 60.023438 120.15625 64.25 122.335938 68.476562 C 125.199219 74.054688 128.046875 79.636719 130.953125 85.199219 C 132.128906 87.460938 134.015625 88.953125 136.644531 88.933594 C 139.332031 88.914062 141.179688 87.363281 142.433594 85.0625 C 143.867188 82.527344 143.867188 79.816406 142.671875 77.222656 Z M 142.671875 77.222656 "/>
<g clip-path="url(#clip1)" clip-rule="nonzero">
<g clip-path="url(#clip2)" clip-rule="nonzero">
<path style=" stroke:none;fill-rule:nonzero;fill:url(#linear2);" d="M 164.734375 92.15625 C 164.734375 124.101562 138.871094 150 106.964844 150 C 75.0625 150 49.199219 124.101562 49.199219 92.15625 C 49.199219 60.210938 75.0625 34.316406 106.964844 34.316406 C 138.871094 34.316406 164.734375 60.210938 164.734375 92.15625 Z M 164.734375 92.15625 "/>
</g>
</g>
</g>
</svg>
