<?xml version="1.0" encoding="UTF-8"?>
<svg xmlns="http://www.w3.org/2000/svg" xmlns:xlink="http://www.w3.org/1999/xlink" width="529px" height="150px" viewBox="0 0 531 150" version="1.1">
<defs>
<linearGradient id="linear0" gradientUnits="userSpaceOnUse" x1="87.7136" y1="7.0153" x2="119.6539" y2="7.0153" gradientTransform="matrix(4.039243,0,0,4.03986,0.364078,0)">
<stop offset="0" style="stop-color:rgb(89.803922%,0%,49.411765%);stop-opacity:1;"/>
<stop offset="0.2471" style="stop-color:rgb(61.568627%,9.803922%,50.196078%);stop-opacity:1;"/>
<stop offset="0.5812" style="stop-color:rgb(40%,14.117647%,50.980392%);stop-opacity:1;"/>
</linearGradient>
<linearGradient id="linear1" gradientUnits="userSpaceOnUse" x1="0" y1="18.5663" x2="131.2826" y2="18.5663" gradientTransform="matrix(4.039243,0,0,4.03986,0.364078,0)">
<stop offset="0" style="stop-color:rgb(89.803922%,0%,49.411765%);stop-opacity:1;"/>
<stop offset="0.2471" style="stop-color:rgb(61.568627%,9.803922%,50.196078%);stop-opacity:1;"/>
<stop offset="0.5812" style="stop-color:rgb(40%,14.117647%,50.980392%);stop-opacity:1;"/>
</linearGradient>
<linearGradient id="linear2" gradientUnits="userSpaceOnUse" x1="28.9179" y1="22.656" x2="39.1143" y2="30.4976" gradientTransform="matrix(4.039243,0,0,4.03986,0.364078,0)">
<stop offset="0" style="stop-color:rgb(28.235294%,2.745098%,20.392157%);stop-opacity:1;"/>
<stop offset="0.2029" style="stop-color:rgb(36.470588%,5.098039%,29.019608%);stop-opacity:1;"/>
<stop offset="0.5236" style="stop-color:rgb(47.843137%,8.235294%,40.784314%);stop-opacity:1;"/>
<stop offset="0.8005" style="stop-color:rgb(54.509804%,9.803922%,47.843137%);stop-opacity:1;"/>
<stop offset="1" style="stop-color:rgb(56.862745%,10.588235%,50.196078%);stop-opacity:1;"/>
</linearGradient>
<linearGradient id="linear3" gradientUnits="userSpaceOnUse" x1="13.2145" y1="3.5438" x2="26.7717" y2="13.9701" gradientTransform="matrix(4.039243,0,0,4.03986,0.364078,0)">
<stop offset="0" style="stop-color:rgb(78.431373%,3.921569%,49.803922%);stop-opacity:1;"/>
<stop offset="1" style="stop-color:rgb(28.235294%,2.745098%,20.392157%);stop-opacity:1;"/>
</linearGradient>
</defs>
<g id="surface1">
<path style=" stroke:none;fill-rule:nonzero;fill:url(#linear0);" d="M 371.085938 22.21875 C 380.859375 15.796875 390.230469 13.371094 399.078125 13.371094 C 424.160156 13.371094 444.800781 33.003906 458.011719 36.722656 C 463.101562 38.054688 471.058594 37.894531 471.90625 37.933594 C 449.890625 44.074219 443.953125 33.734375 418.386719 22.988281 C 400.167969 15.472656 387.726562 17.453125 371.085938 22.21875 M 354.644531 37.976562 C 366.238281 27.390625 380.539062 22.90625 395.402344 28.441406 C 418.75 36.519531 437.007812 45.449219 453.042969 42.78125 C 432.5625 39.710938 416.527344 28.320312 393.867188 22.015625 C 391.039062 21.210938 388.132812 20.84375 385.261719 20.84375 C 372.582031 20.886719 360.261719 28.277344 354.644531 37.976562 M 422.707031 16.160156 C 439.632812 17.128906 444.480469 21.894531 459.382812 29.652344 C 467.664062 33.933594 476.226562 37.367188 483.660156 32.964844 C 477.238281 33.449219 473.882812 32.199219 462.089844 24.84375 C 452.960938 19.1875 443.308594 13.976562 433.332031 13.976562 C 429.855469 14.019531 426.300781 14.664062 422.707031 16.160156 "/>
<path style=" stroke:none;fill-rule:nonzero;fill:url(#linear1);" d="M 252.734375 87.625 C 252.734375 60.921875 273.941406 40.640625 301.570312 40.640625 C 329.199219 40.640625 350.40625 60.878906 350.40625 87.625 C 350.40625 114.125 329.199219 134.285156 301.488281 134.285156 C 273.859375 134.246094 252.734375 114.125 252.734375 87.625 Z M 326.53125 87.464844 C 326.53125 73.726562 315.707031 63.101562 301.570312 63.101562 C 287.433594 63.101562 276.609375 73.6875 276.609375 87.464844 C 276.609375 101.15625 287.433594 111.703125 301.570312 111.703125 C 315.707031 111.703125 326.53125 101.15625 326.53125 87.464844 Z M 354.6875 87.503906 C 354.6875 61.164062 375.972656 40.921875 403.683594 40.921875 C 415.152344 41.085938 427.472656 46.09375 436.5625 54.375 L 422.988281 71.828125 C 417.539062 66.859375 410.308594 63.585938 403.722656 63.585938 C 390.03125 63.585938 378.597656 74.011719 378.597656 87.664062 C 378.597656 101.480469 390.515625 111.621094 403.199219 111.621094 C 410.628906 111.621094 417.335938 108.105469 423.070312 102.9375 L 436.523438 120.871094 C 428.039062 128.589844 416.6875 133.960938 403.199219 133.960938 C 378.15625 134.003906 354.6875 115.417969 354.6875 87.503906 Z M 432.96875 87.625 C 432.96875 60.921875 454.171875 40.640625 481.800781 40.640625 C 509.46875 40.640625 530.636719 60.878906 530.636719 87.625 C 530.636719 114.125 509.429688 134.285156 481.71875 134.285156 C 454.09375 134.246094 432.96875 114.125 432.96875 87.625 Z M 506.765625 87.464844 C 506.765625 73.726562 495.9375 63.101562 481.800781 63.101562 C 467.664062 63.101562 456.839844 73.6875 456.839844 87.464844 C 456.839844 101.15625 467.664062 111.703125 481.800781 111.703125 C 495.9375 111.703125 506.765625 101.15625 506.765625 87.464844 Z M 231.894531 98.128906 C 233.429688 97.5625 234.882812 96.875 236.257812 96.109375 C 244.820312 92.027344 251.320312 82.859375 251.320312 71.949219 C 251.320312 71.910156 251.320312 71.828125 251.320312 71.789062 C 251.320312 71.746094 251.320312 71.667969 251.320312 71.625 C 251.121094 55.832031 237.46875 43.023438 218.363281 43.023438 L 184.59375 43.023438 L 184.714844 132.023438 L 208.34375 132.023438 L 208.34375 107.339844 C 261.136719 182.117188 326.976562 135.941406 326.976562 135.941406 C 259.359375 152.464844 231.894531 98.128906 231.894531 98.128906 Z M 208.222656 64.273438 L 217.878906 64.273438 C 222.84375 64.273438 227.492188 67.707031 227.492188 73.203125 C 227.492188 78.65625 222.925781 82.210938 217.878906 82.128906 L 208.222656 82.089844 Z M 149.898438 131.980469 L 149.898438 106.976562 C 149.695312 107.015625 129.5 96.511719 123.398438 71.667969 C 123.398438 71.667969 132.488281 33.492188 161.609375 26.136719 C 172.273438 23.429688 183.664062 31.957031 184.554688 32.722656 C 184.554688 32.722656 182.613281 24.199219 175.992188 18.746094 C 163.144531 8.160156 137.617188 2.34375 108.859375 45.164062 C 107.28125 42.335938 105.992188 40.035156 104.941406 38.175781 C 98.4375 26.664062 80.300781 0 53.199219 0 C 50.933594 0 48.632812 0.203125 46.332031 0.566406 C 36.273438 2.222656 27.46875 7.152344 20.15625 15.191406 C 14.257812 21.695312 9.613281 29.289062 6.34375 37.8125 C 3.351562 45.652344 1.414062 54.457031 0.648438 64.03125 C 0.445312 66.535156 0.363281 69.121094 0.363281 71.667969 C 0.363281 74.210938 0.445312 76.796875 0.648438 79.300781 C 1.414062 88.875 3.3125 97.683594 6.34375 105.519531 C 9.613281 114.046875 14.257812 121.640625 20.15625 128.144531 C 27.46875 136.183594 36.273438 141.070312 46.332031 142.769531 C 48.59375 143.132812 50.933594 143.335938 53.199219 143.335938 C 80.300781 143.335938 98.4375 116.671875 104.980469 105.199219 C 106.03125 103.339844 107.324219 100.996094 108.898438 98.210938 C 109.222656 98.855469 109.503906 99.460938 109.789062 100.027344 C 112.25 104.996094 116.371094 112.226562 122.066406 118.691406 C 130.46875 128.183594 139.597656 132.953125 149.289062 132.953125 C 149.492188 132.953125 149.734375 132.953125 149.9375 132.953125 L 149.9375 131.980469 Z M 84.339844 91.664062 C 81.835938 96.066406 77.675781 102.492188 72.0625 107.984375 C 65.679688 114.246094 59.335938 117.4375 53.199219 117.4375 C 52.148438 117.4375 51.097656 117.359375 50.046875 117.15625 C 45.199219 116.347656 41.121094 114.046875 37.484375 110.046875 C 30.050781 101.84375 25.890625 91.058594 24.761719 77.039062 C 24.597656 75.304688 24.519531 73.484375 24.519531 71.707031 L 24.519531 71.625 C 24.519531 69.847656 24.597656 68.03125 24.722656 66.292969 C 25.851562 52.277344 30.011719 41.488281 37.445312 33.289062 C 41.039062 29.328125 45.160156 26.984375 50.007812 26.179688 C 51.054688 26.015625 52.148438 25.894531 53.15625 25.894531 C 59.257812 25.894531 65.636719 29.085938 72.019531 35.347656 C 77.636719 40.84375 81.796875 47.265625 84.339844 51.667969 C 87.128906 56.558594 91.367188 64.394531 95.328125 71.667969 C 91.410156 78.980469 87.128906 86.777344 84.339844 91.664062 Z M 167.667969 66.820312 C 163.914062 66.820312 160.398438 65.890625 157.371094 64.273438 L 155.511719 64.273438 L 155.511719 132.023438 L 179.140625 132.023438 L 179.140625 64.273438 L 178.011719 64.273438 C 174.941406 65.890625 171.425781 66.820312 167.667969 66.820312 Z M 181.039062 46.09375 C 181.039062 38.742188 175.222656 33.046875 167.667969 33.046875 C 160.117188 33.046875 154.300781 38.742188 154.300781 46.09375 C 154.300781 53.449219 160.117188 59.0625 167.667969 59.0625 C 175.222656 59.0625 181.039062 53.40625 181.039062 46.09375 Z M 181.039062 46.09375 "/>
<path style=" stroke:none;fill-rule:nonzero;fill:url(#linear2);" d="M 123.398438 71.667969 C 123.398438 71.667969 117.339844 84.675781 109.101562 98.652344 C 109.34375 99.136719 109.585938 99.621094 109.746094 99.988281 C 112.210938 104.957031 116.332031 112.1875 122.027344 118.652344 C 130.425781 128.144531 139.554688 132.910156 149.25 132.910156 C 149.453125 132.910156 149.695312 132.910156 149.898438 132.910156 L 149.898438 106.976562 C 149.695312 107.015625 129.5 96.511719 123.398438 71.667969 Z M 123.398438 71.667969 "/>
<path style=" stroke:none;fill-rule:nonzero;fill:url(#linear3);" d="M 72.0625 35.347656 C 77.675781 40.84375 81.835938 47.265625 84.378906 51.667969 C 87.167969 56.558594 91.410156 64.394531 95.367188 71.667969 C 100.738281 61.808594 108.898438 45.164062 108.898438 45.164062 C 107.324219 42.335938 106.03125 40.035156 104.980469 38.175781 C 98.640625 27.027344 81.308594 1.496094 55.417969 0.121094 L 54.933594 26.058594 C 60.507812 26.582031 66.242188 29.691406 72.0625 35.347656 Z M 72.0625 35.347656 "/>
</g>
</svg>
