<svg xmlns="http://www.w3.org/2000/svg" id="Layer_1" data-name="Layer 1" viewBox="0 0 106.52 87.38"><defs><style>.cls-1{fill:#231f20;}</style></defs><rect class="cls-1" x="10.31" y="28.1" width="3.13" height="3.13" transform="translate(-19.73 34.32) rotate(-76.58)"></rect><path class="cls-1" d="M14.54,25.85l-3-1.21c2.37-6,6-9.94,10.82-11.84a18.5,18.5,0,0,1,16.12,1.72l-1.68,2.8c-1.58-.95-7.2-3.85-13.24-1.47C19.59,17.4,16.57,20.76,14.54,25.85Z"></path><path class="cls-1" d="M80,57.56c-8.39,9.26-18.83,17-25.42,21.83-1.33,1-2.54,1.88-3.58,2.67l-3.59-2.67c-6.58-4.85-17-12.55-25.39-21.8H16.4c8.84,10.62,20.66,19.35,28.54,25.17,1.91,1.41,3.55,2.62,4.78,3.59l1.3,1,1.29-1c1.23-1,2.87-2.18,4.78-3.59C65,76.94,76.82,68.19,85.65,57.56Z"></path><path class="cls-1" d="M61.84,34.17a1.84,1.84,0,0,0-3.57.2L53.55,58.21l-6-16.28a1.8,1.8,0,0,0-1.77-1.2A1.84,1.84,0,0,0,44.08,42L40.3,54.27,39,51.73a1.84,1.84,0,0,0-1.64-1l-30.86,0V54.4H36.24L39.08,60a1.84,1.84,0,0,0,3.4-.29L46,48.32l6.37,17.32a1.84,1.84,0,0,0,3.54-.28l4.59-23.2,3.43,10.92a1.84,1.84,0,0,0,1.76,1.29H97.26V50.68H67Z"></path><rect class="cls-1" y="50.7" width="3.69" height="3.69"></rect><path class="cls-1" d="M51.21,17.06,51,17.3l-.2-.24C41.83,6.16,31.05,2.12,21.25,6A26.57,26.57,0,0,0,4.79,31.88,37.47,37.47,0,0,0,9.58,47.27H13.9A35.24,35.24,0,0,1,8.46,31.63,22.83,22.83,0,0,1,22.6,9.41a17,17,0,0,1,6.26-1.22c9.27,0,16.75,8,20.39,12.83l.35.44L51,23.17l1.41-1.71.35-.44C57,15.42,65.7,6.41,76.34,8.51V4.79C67.76,3.45,58.84,7.8,51.21,17.06Z"></path><path class="cls-1" d="M91,41A44.57,44.57,0,0,1,87.7,47.5h4.91A45.13,45.13,0,0,0,95.55,41Z"></path><path class="cls-1" d="M94,0H81.1V12.53H68.48v12.9H81.1V38H94V25.42h12.53V12.54H94Zm9.12,22H90.57V34.26H84.51V22H72.26V15.94H84.52V3.42h6V16H103.1Z"></path></svg>