<svg xmlns="http://www.w3.org/2000/svg" id="Layer_1" data-name="Layer 1" viewBox="0 0 108.87 91.42"><defs><style>.cls-1{fill:#231f20;}</style></defs><path class="cls-1" d="M45.87,0H45.7A45.68,45.68,0,0,0,13.29,77.89a45.3,45.3,0,0,0,32.2,13.53h.15a45.48,45.48,0,0,0,30.62-11.8h-6a41.59,41.59,0,0,1-24.62,8h-.14A42,42,0,0,1,3.79,45.54,42,42,0,0,1,45.69,3.79h.16A41.62,41.62,0,0,1,78.46,19.68l2.89-2.31.06-.05A45.36,45.36,0,0,0,45.87,0Z"></path><path class="cls-1" d="M84.22,32a1.62,1.62,0,0,0,1.61,1.62l23,0v-3.7H88.06V27a1.76,1.76,0,0,0-.52-1.28,1.82,1.82,0,0,0-2.43-.14l-11.42,9.2a1.95,1.95,0,0,0,0,3L85.12,47a1.76,1.76,0,0,0,1.12.41,1.86,1.86,0,0,0,1.31-.55,1.76,1.76,0,0,0,.52-1.28v-2.9H97.2V39l-11.37,0a1.62,1.62,0,0,0-1.61,1.62v1l-.77-.62-.51-.41-4.82-3.88-.46-.37.46-.37L82.94,32l.51-.41.77-.62Z"></path><rect class="cls-1" x="101.91" y="38.95" width="3.72" height="3.72"></rect><path class="cls-1" d="M94.13,68.46a1.61,1.61,0,0,0-1.61-1.61l-20.64,0v3.7H90.29v2.9a1.76,1.76,0,0,0,.51,1.28,1.91,1.91,0,0,0,1.31.54,1.81,1.81,0,0,0,1.13-.4l11.42-9.2a1.92,1.92,0,0,0,.73-1.52,1.94,1.94,0,0,0-.73-1.53L93.23,53.45A1.76,1.76,0,0,0,92.11,53a1.84,1.84,0,0,0-1.31.55,1.74,1.74,0,0,0-.52,1.28v2.9H81.14v3.7H92.52A1.59,1.59,0,0,0,93.66,61a1.61,1.61,0,0,0,.47-1.14v-1l.76.62.52.41,4.82,3.88.46.37-.46.36-4.82,3.88-.52.42-.76.62Z"></path><rect class="cls-1" x="69.23" y="57.75" width="3.72" height="3.72" transform="translate(142.19 119.22) rotate(180)"></rect><path class="cls-1" d="M49,62.68v7.44H44.2v-7.4H41.44v7.4h-4.9V62.68H27.69V57.53h3.19c1.47,0,2-.52,2-2q0-10.14,0-20.3a1.31,1.31,0,0,0-1.32-1.51,6.77,6.77,0,0,0-1-.07H27.23v-5h9.15V21.3h4.89v7.26H44V21.31H48.9v7.27c1.38.29,2.72.47,4,.86a17.85,17.85,0,0,1,3.47,1.43c5.33,2.94,4.53,9.72.73,12.58l-.56.43.73.28a8.14,8.14,0,0,1,5.15,8A16.65,16.65,0,0,1,61.78,56c-1.1,3.47-3.69,5.35-7.12,6.09a45.32,45.32,0,0,1-5,.55A5.94,5.94,0,0,1,49,62.68ZM41.29,57a.5.5,0,0,0,.17.06c2.09,0,4.2,0,6.29-.08a6.28,6.28,0,0,0,4.12-1.62c2.58-2.44,1.79-6.14-1.56-7.18a13,13,0,0,0-3.22-.53c-1.77-.09-3.55,0-5.33,0l-.47,0Zm0-23v8.61c2,0,3.91.1,5.84,0A4.25,4.25,0,0,0,51,38.58c.17-2.28-.81-3.59-3.16-4.24l-.36-.09A29.27,29.27,0,0,0,41.3,33.93Z"></path></svg>