<svg xmlns="http://www.w3.org/2000/svg" id="Layer_1" data-name="Layer 1" viewBox="0 0 120.38 95.98"><defs><style>.cls-1{fill:#231f20;}</style></defs><path class="cls-1" d="M118.29,51.41l-9.76-3.16L94.78,43.8a3.11,3.11,0,0,0-1.86,0h0l-9,2.92c-5.1,1.65-10.35,3.35-14.66,4.73a3,3,0,0,0-2.09,2.89c0,8,.06,21.22,0,31a3,3,0,0,0,2.09,2.88C74.59,89.9,81.11,92,86.49,93.77l6.33,2.06a2.93,2.93,0,0,0,1.85,0c7-2.26,16.69-5.39,23-7.44l.53-.17a3,3,0,0,0,2.09-2.87c0-8.66,0-24.07.1-31A3,3,0,0,0,118.29,51.41ZM91.77,85.69v4.84a.74.74,0,0,1-.31.61.77.77,0,0,1-.44.14.66.66,0,0,1-.23,0l-4-1.31c-4.74-1.55-10.63-3.49-15.23-5a.76.76,0,0,1-.51-.71c0-6.82,0-15.39,0-22.27v-4a.72.72,0,0,1,.31-.6.74.74,0,0,1,.66-.12l6.83,2.08a.74.74,0,0,1,.53.71l.08,12.52a.26.26,0,0,0,.18.24l3.47,1.15a.27.27,0,0,0,.23,0,.26.26,0,0,0,.1-.2v-12a.72.72,0,0,1,.31-.6.71.71,0,0,1,.66-.12l6.81,2.08a.74.74,0,0,1,.54.71C91.78,70.53,91.78,78.24,91.77,85.69Zm2.14-26.1a.83.83,0,0,1-.22,0,.67.67,0,0,1-.24,0c-4.23-1.39-10.14-3.35-15-5l-.83-.27a.75.75,0,0,1-.51-.72.74.74,0,0,1,.51-.71l1.5-.5c4.81-1.6,10.25-3.41,14.49-4.78a.72.72,0,0,1,.46,0c4.77,1.54,11,3.59,15.62,5.13l.46.16a.72.72,0,0,1,.51.71.73.73,0,0,1-.51.71l-1,.31C104.19,56.29,98.52,58.15,93.91,59.59Zm22.58,24.67A.75.75,0,0,1,116,85c-2.17.63-4.88,1.46-6.5,2l-.44.14a.71.71,0,0,1-.66-.12.72.72,0,0,1-.31-.6L108,75.13a.26.26,0,0,0-.1-.2.24.24,0,0,0-.23,0l-3.4,1.1a.25.25,0,0,0-.17.24v12a.75.75,0,0,1-.54.72c-2.08.62-4.86,1.53-6.7,2.13l-.2.07a1,1,0,0,1-.24,0,.73.73,0,0,1-.44-.15.75.75,0,0,1-.31-.61l.06-26.59a.74.74,0,0,1,.5-.7c5.51-1.95,12.72-4.34,18.52-6.25l.79-.26a.76.76,0,0,1,1,.71Z"></path><path class="cls-1" d="M110.12,36.83a40.14,40.14,0,0,0-7.61-19.7A40.74,40.74,0,0,0,75.62.58C74.32.36,73,.25,71.69.14l-.26,0A28.36,28.36,0,0,0,68.32,0,43.66,43.66,0,0,0,56,2.17,41.41,41.41,0,0,0,31.87,23.5l3,2.44A38.55,38.55,0,0,1,40,17.62l-1.1-.44,1.37.23.11,0a54.87,54.87,0,0,0,10,3.61l.14,0,0,.15c-.08.34-.17.68-.25,1l-.07.28c-.27,1.07-.57,2.28-.82,3.46a71.52,71.52,0,0,0-1.48,13,1.07,1.07,0,0,1,0,.32c0,.12-.22.13-.4.13H39.41c-.17.17-.33.31-.5.45L35,43.12H47.78v.14a77.29,77.29,0,0,0,.8,9.36h3.63c-.11-.75-.18-1.33-.24-1.88-.16-1.57-.27-3.19-.38-4.75v-.05c-.06-.84-.11-1.68-.18-2.52v-.13l-.07-.13.17,0a.53.53,0,0,1,.2,0H67.47v3.15l3.62-1.16v-2h6.09l4-1.3,9.27-3,.28-.07h0a71.81,71.81,0,0,0-2.65-17.47l0-.14.27-.09.52-.14a52.42,52.42,0,0,0,9.24-3.36c.24-.12.33-.1.49.09a37.39,37.39,0,0,1,8,18.53c.11.78.18,1.55.26,2.36,0,.26,0,.51.07.77v.17H96.56l11.74,3.8,2,.64v0a1.09,1.09,0,0,1,0-.26l0-4.31-.08-.77C110.24,38,110.18,37.4,110.12,36.83ZM42.7,14.89l-.2-.09.16-.15A37.37,37.37,0,0,1,58.44,5.2L59,5l-.36.4a34.32,34.32,0,0,0-6.13,10.07c-.27.64-.52,1.31-.74,1.9l-.12.33,0,.17-.19,0h-.08A50.26,50.26,0,0,1,42.7,14.89ZM67.46,39.46H51.4v-.15a70.1,70.1,0,0,1,2.48-17.24l0-.13.13,0,1.85.27c1.56.24,3.17.48,4.77.65s3.32.28,4.81.37h.08l1.76.11h.14Zm0-19.54h-.15a78.46,78.46,0,0,1-12.14-1.24l-.17,0,.06-.17a2.47,2.47,0,0,1,.1-.29,31.83,31.83,0,0,1,5.54-10,13.67,13.67,0,0,1,5-3.86A12,12,0,0,1,67,3.93l.48-.16ZM71.12,3.79l.31.09a8.35,8.35,0,0,1,1,.32,13.45,13.45,0,0,1,5.33,3.92,31,31,0,0,1,5.42,9.45l.24.64.17.45-.18,0a76.65,76.65,0,0,1-12.17,1.23h-.15Zm0,35.66V23.32h.14a81.4,81.4,0,0,0,13.25-1.41l.14,0,0,.13A69.55,69.55,0,0,1,87.18,39.3v.15ZM95.92,14.93a50.57,50.57,0,0,1-8.72,2.95l-.13,0,0-.13A46.34,46.34,0,0,0,83.93,11,29.9,29.9,0,0,0,80,5.42L79.64,5l.5.14A45.12,45.12,0,0,1,88.4,8.81,39.2,39.2,0,0,1,96,14.69l.13.15Z"></path><path class="cls-1" d="M59.39,72.66,59,72.12v5.44H49.31l.29.16A39.73,39.73,0,0,0,62.19,82V75.87A20.07,20.07,0,0,1,59.39,72.66Z"></path><path class="cls-1" d="M28,60.12a1.61,1.61,0,0,0,1.61,1.61H59V58H31.83V55.11a1.78,1.78,0,0,0-.51-1.28A1.91,1.91,0,0,0,30,53.29a1.77,1.77,0,0,0-1.13.41L17.46,62.89a1.92,1.92,0,0,0-.73,1.52,1.94,1.94,0,0,0,.73,1.53l11.43,9.2a1.81,1.81,0,0,0,1.12.4A1.87,1.87,0,0,0,31.32,75a1.78,1.78,0,0,0,.52-1.28V70.81h11.5v-3.7H29.6a1.63,1.63,0,0,0-1.14.47A1.61,1.61,0,0,0,28,68.71v1l-.76-.61-.52-.42-4.82-3.88-.46-.37.46-.36,4.82-3.88.52-.42.76-.61Z"></path><rect class="cls-1" x="48.04" y="67.11" width="3.72" height="3.72"></rect><path class="cls-1" d="M26,38.85a1.61,1.61,0,0,0-1.61-1.61H3.72V41H22.13v2.91a1.79,1.79,0,0,0,.51,1.27,1.87,1.87,0,0,0,1.31.55,1.77,1.77,0,0,0,1.13-.41L36.5,36.08a1.94,1.94,0,0,0,.73-1.53A1.92,1.92,0,0,0,36.5,33l-11.43-9.2a1.81,1.81,0,0,0-1.12-.4,1.83,1.83,0,0,0-1.31.54,1.76,1.76,0,0,0-.52,1.28v2.9H10.37v3.71h14A1.6,1.6,0,0,0,26,30.26v-1l.76.61.52.42,4.82,3.88.46.36-.46.37L27.25,38.8l-.52.41-.76.62Z"></path><rect class="cls-1" y="28.13" width="3.72" height="3.72" transform="translate(3.72 59.99) rotate(180)"></rect></svg>