<svg xmlns="http://www.w3.org/2000/svg" id="Layer_1" data-name="Layer 1" viewBox="0 0 192.06 65.56"><defs><style>.cls-1{fill:#231f20;}</style></defs><path class="cls-1" d="M15.59,37.74V32.57H8.88c.38-.37.78-.73,1.19-1.06A27.32,27.32,0,0,1,13,29.38a54.77,54.77,0,0,1,19.54-7.09,14.83,14.83,0,0,0,6.54-2.73A79,79,0,0,1,62.26,8a87.44,87.44,0,0,1,24.27-4.4c7.21-.23,14.44,0,21.66.2a130.09,130.09,0,0,1,17.17,1.54c2.75.44,5.1,1.27,7,3.63,3.62,4.53,7.41,8.94,10.36,14a11,11,0,0,1,.59,1.13H147a15.86,15.86,0,0,0-1.84-3.86A127.36,127.36,0,0,0,133.26,4.88,6.37,6.37,0,0,0,130.2,3a53.76,53.76,0,0,0-11.67-1.91c-6-.41-12.08-.62-18.12-.92C100,.11,99.65,0,99.28,0H88c-.91.08-1.81.17-2.72.23a98.59,98.59,0,0,0-24.65,4.7A84.71,84.71,0,0,0,35.26,18a2.89,2.89,0,0,1-1.11.43c-2,.43-4.07.75-6.08,1.24a54.76,54.76,0,0,0-17.26,7l-.74.5a24.26,24.26,0,0,0-7.59,7.89C-.33,40-.46,45.27.65,50.64a6.73,6.73,0,0,0,5.42,5.48c.43.1.87.18,1.32.25a29.56,29.56,0,0,0,4.2.3h1.18a16.4,16.4,0,0,1-.49-3.44H10.43a7.89,7.89,0,0,1-1-.06c-.69-.07-1.37-.16-2-.26A3.79,3.79,0,0,1,3.9,49.38c-.18-1.65-.29-3.31-.32-5A17.46,17.46,0,0,1,5,37.74Z"></path><path class="cls-1" d="M123.14,21.8a3,3,0,0,0,1.6-4.35A9.45,9.45,0,0,0,123,15.14,23.26,23.26,0,0,0,111.18,9C105.44,7.8,99.63,7.47,92.31,7.32c-5-.27-11.45.6-17.8,1.91a78.86,78.86,0,0,0-18.45,6,27.63,27.63,0,0,0-8.51,5.83,7.89,7.89,0,0,0-2.12,3.44A2.65,2.65,0,0,0,47.51,28a9.84,9.84,0,0,0,2.92.08c3.76-.38,7.51-.91,11.28-1.24,6.86-.6,13.74-1.1,20.61-1.63,5.21-.4,10.43-.81,15.65-1.17,7.23-.51,14.46-1,21.69-1.49A12.12,12.12,0,0,0,123.14,21.8ZM91,13.42c-.08,2.32-.21,4.64-.28,7,0,.57-.21.74-.76.78-8.77.65-17.55,1.28-26.32,2-4.59.39-9.15,1-13.73,1.46-.18,0-.36,0-.77,0,.64-.71,1.11-1.33,1.68-1.86a28.91,28.91,0,0,1,9.13-5.48A88.41,88.41,0,0,1,89,10.81c.63,0,1.25,0,1.93,0C91,11.7,91,12.56,91,13.42Zm3.17,7.36c.13-3.33.25-6.58.38-9.85,1.09,0,2.09,0,3.08,0a74.31,74.31,0,0,1,13.7,1.64,20.09,20.09,0,0,1,9.58,5.33,4.06,4.06,0,0,1,.44.49,2.86,2.86,0,0,1,.25.48Z"></path><path class="cls-1" d="M44.82,56.67H97.5V53H45.29A18.93,18.93,0,0,1,44.82,56.67Z"></path><rect class="cls-1" x="76.06" y="43.39" width="7.95" height="3.72"></rect><path class="cls-1" d="M53.09,43.39c0,1.28-.07,2.52-.16,3.72H72.17V43.39Z"></path><rect class="cls-1" x="116.66" y="27.15" width="6.9" height="3.72"></rect><path class="cls-1" d="M121.43,39.78a12.89,12.89,0,1,0,13.18,12.5A12.89,12.89,0,0,0,121.43,39.78Zm.28,21.74a8.87,8.87,0,1,1,8.88-9A8.88,8.88,0,0,1,121.71,61.52Z"></path><path class="cls-1" d="M28.48,39.78a12.89,12.89,0,1,0,13.18,12.5A12.89,12.89,0,0,0,28.48,39.78Zm.28,21.74a8.87,8.87,0,1,1,8.88-9A8.87,8.87,0,0,1,28.76,61.52Z"></path><path class="cls-1" d="M138.12,47h25.55V43.25H138.12Z"></path><path class="cls-1" d="M126.07,30.87h30.65V27.15H126.07Z"></path><path class="cls-1" d="M146.69,39h38.08V35.27H146.69Z"></path><rect class="cls-1" x="100.94" y="52.95" width="3.72" height="3.72"></rect><rect class="cls-1" x="167.26" y="43.25" width="3.72" height="3.72"></rect><rect class="cls-1" x="188.35" y="35.26" width="3.72" height="3.72"></rect><rect class="cls-1" x="160.3" y="27.15" width="3.72" height="3.72"></rect></svg>