<svg xmlns="http://www.w3.org/2000/svg" id="Layer_1" data-name="Layer 1" viewBox="0 0 94.51 92.35"><defs><style>.cls-1{fill:#231f20;}</style></defs><path class="cls-1" d="M8.71,44.47A39,39,0,0,1,32.26,13.66a14.38,14.38,0,0,1-.15-2.09,14.79,14.79,0,0,1,.17-2.12A42.86,42.86,0,0,0,4.45,49.54c0,.18,0,.35,0,.52A15.31,15.31,0,0,1,8.71,44.47Z"></path><path class="cls-1" d="M62,13.57A39,39,0,0,1,85.84,44.73,15.1,15.1,0,0,1,90,50.67c0-.38,0-.75,0-1.13A42.88,42.88,0,0,0,62,9.34a14.59,14.59,0,0,1,0,4.23Z"></path><path class="cls-1" d="M59.15,86.52a38.77,38.77,0,0,1-24.1,0,4.08,4.08,0,0,1-.61,0h-8.8a42.63,42.63,0,0,0,43,0H59.55Z"></path><path class="cls-1" d="M29,35V36.7a1.87,1.87,0,0,0,1.87,1.87H53.17V34.83H32.76v-.1A10.77,10.77,0,0,1,43.45,24.34h7.61A10.69,10.69,0,0,1,61.75,34.73v.1H57v3.74h6.62a1.87,1.87,0,0,0,1.86-1.87V35A14.33,14.33,0,0,0,54.25,21L54,20.93l.17-.13a11.46,11.46,0,0,0,4.62-9.23,11.57,11.57,0,0,0-23.14,0,11.43,11.43,0,0,0,4.62,9.23l.17.13-.21.05A14.34,14.34,0,0,0,29,35Zm10.4-23.47a7.84,7.84,0,1,1,7.84,7.84A7.84,7.84,0,0,1,39.42,11.57Z"></path><path class="cls-1" d="M83.27,65.61l-.21,0,.17-.13a11.45,11.45,0,0,0,4.62-9.23,11.57,11.57,0,1,0-23.14,0,11.45,11.45,0,0,0,4.62,9.23l.17.13-.21,0A14.32,14.32,0,0,0,58,79.67v1.66a1.87,1.87,0,0,0,1.87,1.86H82.2V79.46H61.78v-.1A10.78,10.78,0,0,1,72.48,69h7.6A10.68,10.68,0,0,1,90.77,79.36v.1H86v3.73h6.62a1.86,1.86,0,0,0,1.86-1.86V79.67A14.31,14.31,0,0,0,83.27,65.61Zm-7-1.58a7.84,7.84,0,1,1,7.84-7.83A7.84,7.84,0,0,1,76.28,64Z"></path><path class="cls-1" d="M3.74,79.36A10.77,10.77,0,0,1,14.43,69H22A10.69,10.69,0,0,1,32.73,79.36v.1H28v3.73H34.6a1.87,1.87,0,0,0,1.87-1.86V79.67A14.31,14.31,0,0,0,25.22,65.61l-.21,0,.18-.13a11.48,11.48,0,0,0,4.62-9.23,11.57,11.57,0,1,0-23.14,0,11.47,11.47,0,0,0,4.61,9.23l.18.13-.21,0A14.31,14.31,0,0,0,0,79.67v1.66a1.87,1.87,0,0,0,1.87,1.86H24.15V79.46H3.74ZM10.4,56.2A7.84,7.84,0,1,1,18.24,64,7.85,7.85,0,0,1,10.4,56.2Z"></path><path class="cls-1" d="M37.85,69.2H52.61V65.48H37.85Z"></path><rect class="cls-1" x="54.99" y="65.48" width="3.72" height="3.72"></rect><path class="cls-1" d="M52.61,49.29H37.85V53H52.61Z"></path><rect class="cls-1" x="54.99" y="49.29" width="3.72" height="3.72"></rect><path class="cls-1" d="M58.71,56.65H44v3.71H58.71Z"></path><rect class="cls-1" x="37.85" y="56.65" width="3.72" height="3.72"></rect></svg>