<svg xmlns="http://www.w3.org/2000/svg" id="Layer_1" data-name="Layer 1" viewBox="0 0 108.67 111.36"><defs><style>.cls-1{fill:#231f20;}</style></defs><path class="cls-1" d="M19,103.88l26.77,0v-3.75H19Z"></path><path class="cls-1" d="M68.38,59.73A19.6,19.6,0,1,0,87.9,79.42,19.63,19.63,0,0,0,68.38,59.73Zm-.14,35A15.38,15.38,0,1,1,83.68,79.4,15.4,15.4,0,0,1,68.24,94.71Z"></path><path class="cls-1" d="M70.18,77.43h-2.5c-.5,0-1,0-1.49,0a2.49,2.49,0,1,1,0-5h2.29c.38,0,.7,0,1,0a4.18,4.18,0,0,1,.5,0c1.72,0,2.73.71,3.09,2.17H77c-.11-.3-.22-.6-.32-.89a12.13,12.13,0,0,0-1-2.39c-1-1.61-2.69-2.51-5.15-2.74l-.27,0v-2H66.44l0,.87-.05.9v.25l-.24,0-.23,0-.29,0a6.3,6.3,0,0,0,.86,12.57h2.42l1.57,0a2.48,2.48,0,1,1,0,5l-.74,0H68.16q-.5,0-1,0l-.49,0c-1.72,0-2.74-.71-3.09-2.17H59.66L60,85a12.3,12.3,0,0,0,1,2.38c1,1.64,2.72,2.53,5.14,2.74l.28,0v2h3.76v-2l.26,0,.32,0,.38-.05a6.3,6.3,0,0,0-1-12.56Z"></path><path class="cls-1" d="M89.15,17.84a19.6,19.6,0,1,0,19.52,19.69A19.63,19.63,0,0,0,89.15,17.84Zm-.14,35a15.38,15.38,0,1,1,15.44-15.31A15.41,15.41,0,0,1,89,52.82Z"></path><path class="cls-1" d="M91,35.54h-2.5c-.5,0-1,0-1.49,0a2.49,2.49,0,1,1,0-5h2.29c.38,0,.7,0,1,0h.5c1.72,0,2.73.71,3.09,2.17h3.92c-.11-.31-.22-.6-.32-.89a12.13,12.13,0,0,0-1-2.39c-1-1.61-2.69-2.51-5.15-2.74l-.27,0v-2H87.21l0,.88,0,.9,0,.24-.24,0-.23,0-.29,0a6.31,6.31,0,0,0,.86,12.58h2.42l1.57,0a2.49,2.49,0,1,1,0,5h-2.3c-.33,0-.66,0-1,0h-.49c-1.72,0-2.74-.71-3.09-2.16H80.43c.12.3.22.59.33.89a12.3,12.3,0,0,0,1,2.38,6.23,6.23,0,0,0,5.14,2.73l.28,0v2H91v-2l.26,0,.32,0,.38,0a6.3,6.3,0,0,0-1-12.56Z"></path><path class="cls-1" d="M61,100.65a26.3,26.3,0,0,1-.1,2.81,5.06,5.06,0,0,1-4.62,4.22c-.5,0-1,.07-1.52.07-15,0-29.92,0-44.88,0a8.55,8.55,0,0,1-3.73-.84A4.79,4.79,0,0,1,3.6,102.5c-.06-1.77,0-3.55,0-5.45H54.43a22.9,22.9,0,0,1-2.1-1.86,22.29,22.29,0,0,1-1.65-1.87h-47V14.57h50.1l3.76,0H61v11l3.72,3V9.55c0-3.83-1.54-6.84-5.05-8.53a10,10,0,0,0-4.32-1Q32.26,0,9.22,0C3.83,0,.09,3.87,0,9.35,0,13,0,89.76,0,101.61c0,3.25,1,6,3.68,7.92a11.07,11.07,0,0,0,2.53,1.19,10.53,10.53,0,0,0,3.64.64H55.19a10.25,10.25,0,0,0,4.46-1,8.17,8.17,0,0,0,2.41-1.71,9.4,9.4,0,0,0,2.61-6.82v-.28A22.8,22.8,0,0,1,61,100.65ZM3.62,8.68a5.25,5.25,0,0,1,5.05-5c.36,0,.72,0,1.09,0q22.6,0,45.2,0c2.41,0,4.33.76,5.5,3A3.47,3.47,0,0,1,60.94,8c.05,2.09,0,.7,0,2.85H3.6A14,14,0,0,1,3.62,8.68Z"></path><path class="cls-1" d="M61,43.9V58a23.17,23.17,0,0,1,3.71-.94V40.91Z"></path><path class="cls-1" d="M23.33,62.28a1.61,1.61,0,0,0,1.61,1.61H48v-3.7H27.17V57.27A1.78,1.78,0,0,0,26.66,56a1.89,1.89,0,0,0-1.31-.54,1.77,1.77,0,0,0-1.13.41L12.8,65.05a2,2,0,0,0,0,3l11.43,9.2a1.81,1.81,0,0,0,1.12.4,1.87,1.87,0,0,0,1.31-.54,1.78,1.78,0,0,0,.52-1.28V73h9.15v-3.7H24.94a1.63,1.63,0,0,0-1.14.47,1.61,1.61,0,0,0-.47,1.14v1l-.76-.61-.52-.42-4.82-3.88-.46-.37.46-.36,4.82-3.88.52-.42.76-.61Z"></path><rect class="cls-1" x="41.03" y="69.27" width="3.72" height="3.72"></rect><path class="cls-1" d="M54.92,39.08a1.62,1.62,0,0,0-1.61-1.62l-20.64,0v3.7H51.08v2.9a1.76,1.76,0,0,0,.52,1.28A1.82,1.82,0,0,0,54,45.5l11.43-9.2a1.95,1.95,0,0,0,0-3L54,24.06a1.77,1.77,0,0,0-1.13-.41,1.87,1.87,0,0,0-1.31.55,1.76,1.76,0,0,0-.51,1.28v2.9H41.94v3.7l11.37,0a1.58,1.58,0,0,0,1.14-.48,1.55,1.55,0,0,0,.47-1.14v-1l.77.62.52.41L61,34.41l.45.37-.45.37L56.21,39l-.52.41-.77.62Z"></path><rect class="cls-1" x="30.03" y="28.36" width="3.72" height="3.72" transform="translate(63.78 60.44) rotate(180)"></rect></svg>