<svg xmlns="http://www.w3.org/2000/svg" id="Layer_1" data-name="Layer 1" viewBox="0 0 90.96 94.69"><defs><style>.cls-1{fill:#231f20;}</style></defs><rect class="cls-1" x="77.44" y="83.12" width="3.28" height="4.08" transform="translate(-36.45 72.58) rotate(-40.91)"></rect><path class="cls-1" d="M41.7,70.64a19.72,19.72,0,0,1-3.49-3.57c-.37-.48-.7-1-1-1.47a21.87,21.87,0,0,1-8.83-6.81l-2.8,2.34A25.49,25.49,0,0,0,41.7,70.64Z"></path><path class="cls-1" d="M26,54.89a21.33,21.33,0,0,1-1.3-3.42l-3.48,1.08a24.72,24.72,0,0,0,1.49,3.9Z"></path><path class="cls-1" d="M45.63,23.66a21.85,21.85,0,0,1,21.6,18.72A17.16,17.16,0,0,1,68.58,44,19,19,0,0,1,71,48.1a25.46,25.46,0,1,0-50.79-2.62c0,.56,0,1.11.06,1.66l3.61-.58q0-.54,0-1.08A21.85,21.85,0,0,1,45.63,23.66Z"></path><path class="cls-1" d="M58.05,78.54a2.86,2.86,0,0,0-1.85-.14l-3.55.95a2.87,2.87,0,0,0-2,1.91L50.08,83l-.85,2.66a2.88,2.88,0,0,1-2.75,2h-2a2.9,2.9,0,0,1-2.76-2L40.88,83l-.57-1.75a2.87,2.87,0,0,0-2-1.91l-3.55-.95a2.9,2.9,0,0,0-2.7.65L30.7,80.29l-2.06,1.87a2.88,2.88,0,0,1-3.39.37l-1.74-1a2.9,2.9,0,0,1-1.38-3.12l.59-2.73.4-1.8a2.89,2.89,0,0,0-.79-2.65l-2.6-2.6a2.89,2.89,0,0,0-2.65-.79l-1.8.4-2.73.59a2.9,2.9,0,0,1-3.12-1.38l-1-1.74a2.88,2.88,0,0,1,.37-3.39l1.87-2.06,1.24-1.36a2.9,2.9,0,0,0,.65-2.7l-1-3.55a2.87,2.87,0,0,0-1.91-2L8,50.08l-2.66-.85a2.88,2.88,0,0,1-2-2.75v-2a2.9,2.9,0,0,1,2-2.76L8,40.88l1.75-.57a2.87,2.87,0,0,0,1.91-2l1-3.55a2.9,2.9,0,0,0-.65-2.7L10.67,30.7,8.8,28.64a2.88,2.88,0,0,1-.37-3.39l1-1.74a2.9,2.9,0,0,1,3.12-1.38l2.73.59,1.8.4a2.89,2.89,0,0,0,2.65-.79l2.6-2.6a2.89,2.89,0,0,0,.79-2.65l-1-4.53a2.9,2.9,0,0,1,1.38-3.12l1.74-1a2.88,2.88,0,0,1,3.39.37l3.42,3.11a2.9,2.9,0,0,0,2.7.65l3.55-1a2.87,2.87,0,0,0,2-1.91l1.41-4.41a2.9,2.9,0,0,1,2.76-2h2a2.88,2.88,0,0,1,2.75,2L50.65,9.7a2.87,2.87,0,0,0,2,1.91l3.55,1a2.9,2.9,0,0,0,2.7-.65l1.36-1.24L62.32,8.8a2.88,2.88,0,0,1,3.39-.37l1.74,1a2.9,2.9,0,0,1,1.38,3.12l-.6,2.73-.39,1.8a2.89,2.89,0,0,0,.79,2.65l2.6,2.6a2.89,2.89,0,0,0,2.65.79l1.8-.4,2.73-.59a2.9,2.9,0,0,1,3.12,1.38l1,1.74a2.88,2.88,0,0,1-.37,3.39L80.29,30.7l-1.24,1.36a2.9,2.9,0,0,0-.65,2.7l.95,3.55a2.87,2.87,0,0,0,1.91,2l1.75.56,2.66.85a2.9,2.9,0,0,1,2,2.76v2a2.88,2.88,0,0,1-2,2.75L83,50.08l-1.75.57a2.87,2.87,0,0,0-1.91,2L78.4,56.2a2.9,2.9,0,0,0,.65,2.7l1.24,1.36,1.87,2.06a2.88,2.88,0,0,1,.37,3.39l-1,1.74a3,3,0,0,1-1.4,1.22l2.63,3a3.2,3.2,0,0,0,.41-.54l3.39-5.88a2.88,2.88,0,0,0-.36-3.39L82.62,58a2.9,2.9,0,0,1,1.26-4.7L89,51.63a2.89,2.89,0,0,0,2-2.76V42.09a2.89,2.89,0,0,0-2-2.76l-5.07-1.62A2.9,2.9,0,0,1,82.62,33l3.58-3.94a2.88,2.88,0,0,0,.36-3.39L83.17,19.8a2.89,2.89,0,0,0-3.12-1.38l-5.2,1.13a2.91,2.91,0,0,1-2.66-.78h0a2.91,2.91,0,0,1-.78-2.66l1.13-5.2a2.89,2.89,0,0,0-1.38-3.12L65.28,4.4a2.88,2.88,0,0,0-3.39.36L58,8.34A2.88,2.88,0,0,1,55.26,9h0a2.88,2.88,0,0,1-2-1.91L51.63,2a2.89,2.89,0,0,0-2.76-2H42.09a2.89,2.89,0,0,0-2.76,2L37.71,7.08A2.9,2.9,0,0,1,33,8.34L29.07,4.76a2.88,2.88,0,0,0-3.39-.36L19.8,7.79a2.89,2.89,0,0,0-1.38,3.12l1.13,5.2a2.91,2.91,0,0,1-.78,2.66h0a2.91,2.91,0,0,1-2.66.78l-5.2-1.13A2.89,2.89,0,0,0,7.79,19.8L4.4,25.68a2.88,2.88,0,0,0,.36,3.39L8.34,33A2.88,2.88,0,0,1,9,35.7H9a2.88,2.88,0,0,1-1.91,2L2,39.33a2.89,2.89,0,0,0-2,2.76v6.78a2.89,2.89,0,0,0,2,2.76l5.07,1.62A2.9,2.9,0,0,1,8.34,58L4.76,61.89a2.88,2.88,0,0,0-.36,3.39l3.39,5.88a2.89,2.89,0,0,0,3.12,1.38l5.2-1.13a2.91,2.91,0,0,1,2.66.78h0a2.91,2.91,0,0,1,.78,2.66l-1.13,5.2a2.89,2.89,0,0,0,1.38,3.12l5.88,3.39a2.88,2.88,0,0,0,3.39-.36L33,82.62A2.88,2.88,0,0,1,35.7,82h0a2.88,2.88,0,0,1,2,1.91L39.33,89a2.89,2.89,0,0,0,2.76,2h6.78a2.89,2.89,0,0,0,2.76-2l1.62-5.07A2.9,2.9,0,0,1,58,82.62l3.94,3.58a2.87,2.87,0,0,0,3.2.45L60.9,81.82Z"></path><path class="cls-1" d="M85.65,81.16c-5.41-6.26-11-12.74-16.56-19.07a2.48,2.48,0,0,1-.63-2.69A15.45,15.45,0,0,0,50.29,40.24c-1.14.25-1.83.72-2,1.39A2.45,2.45,0,0,0,49,43.94l.11.13c1.57,1.85,3.2,3.76,4.86,5.59a1.79,1.79,0,0,1,.35,1.81C53.91,54,52.56,55.16,50,55.28a1.87,1.87,0,0,1-1.81-.68c-1.21-1.46-2.47-2.9-3.69-4.3l-1.26-1.44c-.92-1.07-1.72-1.52-2.43-1.4s-1.3.81-1.82,2.11C36.73,55.2,37.38,60.4,40.91,65s8.54,6.72,14.63,5.91a1.74,1.74,0,0,1,1.82.67c2.17,2.55,4.4,5.12,6.56,7.61l2.51,2.9h0l2.13,2.46C70.72,87,72.86,89.51,75,92a8,8,0,0,0,1.5,1.38,7.73,7.73,0,0,0,4.32,1.33,7.36,7.36,0,0,0,5.46-2.38,7.57,7.57,0,0,0,.12-10.25ZM56.46,56.57c.5-1.17.92-2.4,1.32-3.58.22-.64.43-1.29.67-1.92a2.43,2.43,0,0,0-.54-2.69c-1-1.12-2-2.27-3-3.49l-1-1.2a11.13,11.13,0,0,1,7.67,3.07,11.56,11.56,0,0,1,2.89,13A2.89,2.89,0,0,0,65,63.1c6.08,7,12.22,14.06,18.19,21,1.58,1.82,1.81,3.68.67,5.24A3.79,3.79,0,0,1,81,90.93a4,4,0,0,1-3.22-1.49c-3.11-3.56-6.19-7.12-9.28-10.69L65,74.69c-.55-.65-1.11-1.29-1.68-1.93-1.34-1.53-2.72-3.11-4-4.71A2.74,2.74,0,0,0,57,66.88,4.32,4.32,0,0,0,56,67a11.68,11.68,0,0,1-14.15-14L43,54.35c1.14,1.3,2.22,2.53,3.26,3.8a2.73,2.73,0,0,0,3,1.08c.77-.18,1.56-.33,2.32-.48,1-.19,2.11-.39,3.14-.68A3,3,0,0,0,56.46,56.57Z"></path></svg>